/* XPM */
static char * brightness_xpm[] = {
"24 18 172 2",
"  	c None",
". 	c #C9C8C5",
"+ 	c #E8D961",
"@ 	c #E3DB83",
"# 	c #C6C3BE",
"$ 	c #EEDB50",
"% 	c #E7DC77",
"& 	c #DECF68",
"* 	c #DCCD61",
"= 	c #EBDB5B",
"- 	c #E3DB90",
"; 	c #D0CEB7",
"> 	c #DFDA9E",
", 	c #DEDAB4",
"' 	c #DECE69",
") 	c #F2D01B",
"! 	c #DEC948",
"~ 	c #D5CF97",
"{ 	c #E3DA7C",
"] 	c #E3DD9D",
"^ 	c #D7D5B6",
"/ 	c #C8C8BC",
"( 	c #E8E089",
"_ 	c #F1E478",
": 	c #E0D9A1",
"< 	c #E4CD4A",
"[ 	c #E4CD3A",
"} 	c #EDDB48",
"| 	c #FAE334",
"1 	c #FCEA44",
"2 	c #FDF36B",
"3 	c #F9F07F",
"4 	c #E8E093",
"5 	c #D1CFB3",
"6 	c #F1E681",
"7 	c #D3D0AC",
"8 	c #EDD834",
"9 	c #FEE309",
"0 	c #FFE61C",
"a 	c #FFEB38",
"b 	c #FFF767",
"c 	c #FFF878",
"d 	c #FFF578",
"e 	c #EEE48C",
"f 	c #D0CEB9",
"g 	c #DCC944",
"h 	c #F2D700",
"i 	c #FBE502",
"j 	c #FFE711",
"k 	c #FFEB32",
"l 	c #FFF567",
"m 	c #FFF978",
"n 	c #FFF877",
"o 	c #FFF471",
"p 	c #E8DE8C",
"q 	c #D2D2CB",
"r 	c #D1D1CB",
"s 	c #D0D0CB",
"t 	c #D1CB9B",
"u 	c #DABD1D",
"v 	c #E9D100",
"w 	c #F6E100",
"x 	c #FEE706",
"y 	c #FFEC29",
"z 	c #FFF369",
"A 	c #FFF778",
"B 	c #FFF874",
"C 	c #FFF76A",
"D 	c #F6E96C",
"E 	c #D6D3B3",
"F 	c #CDCCC9",
"G 	c #CAC9C4",
"H 	c #CBCBC8",
"I 	c #DDC83D",
"J 	c #D9C12D",
"K 	c #D3BF3F",
"L 	c #D0C25E",
"M 	c #D1B613",
"N 	c #DCCA00",
"O 	c #ECD500",
"P 	c #F7E000",
"Q 	c #FDE90F",
"R 	c #FFF149",
"S 	c #FFF35C",
"T 	c #FFF557",
"U 	c #FFF64C",
"V 	c #F9E94C",
"W 	c #E1D883",
"X 	c #E9DA66",
"Y 	c #EFDC4D",
"Z 	c #EADB59",
"` 	c #D7C953",
" .	c #D3C141",
"..	c #D0C258",
"+.	c #CDC37A",
"@.	c #C5AD18",
"#.	c #CEBE00",
"$.	c #DAC500",
"%.	c #E5CE00",
"&.	c #EFD900",
"*.	c #FBE703",
"=.	c #FEE90C",
"-.	c #FFE911",
";.	c #FFE913",
">.	c #FAE328",
",.	c #E2D777",
"'.	c #E3D66A",
").	c #E7D653",
"!.	c #E5D864",
"~.	c #CFCAA3",
"{.	c #C3AB24",
"].	c #C7B500",
"^.	c #D2C200",
"/.	c #DBC800",
"(.	c #E5CF00",
"_.	c #F0DC00",
":.	c #F5DF00",
"<.	c #F9DF00",
"[.	c #FBDE02",
"}.	c #F6DD24",
"|.	c #DCD692",
"1.	c #C7B54B",
"2.	c #C3AB00",
"3.	c #CDBE00",
"4.	c #D5C800",
"5.	c #DDCC00",
"6.	c #E7D600",
"7.	c #EBDB00",
"8.	c #EDD900",
"9.	c #F0D300",
"0.	c #E8D659",
"a.	c #D2CEB5",
"b.	c #CAB83C",
"c.	c #C9B400",
"d.	c #D0C000",
"e.	c #D7C900",
"f.	c #DFD400",
"g.	c #E2D600",
"h.	c #E1CE00",
"i.	c #E0CF40",
"j.	c #C3B25A",
"k.	c #C5B03B",
"l.	c #D7D4BD",
"m.	c #D2C252",
"n.	c #CFBB18",
"o.	c #D2BD0C",
"p.	c #D9C60D",
"q.	c #DBC716",
"r.	c #D7C851",
"s.	c #D7C85E",
"t.	c #D9C755",
"u.	c #CCBF79",
"v.	c #C5A91C",
"w.	c #C2AF3A",
"x.	c #D4D4D2",
"y.	c #DBD4AA",
"z.	c #D9CF88",
"A.	c #DAD188",
"B.	c #DAD4A4",
"C.	c #D8C038",
"D.	c #E5C419",
"E.	c #D9CA6A",
"F.	c #CDC071",
"G.	c #CBBA52",
"H.	c #D5C868",
"I.	c #D7C651",
"J.	c #DFCA43",
"K.	c #DECE65",
"L.	c #D4C136",
"M.	c #D8BF19",
"N.	c #D8C742",
"O.	c #DBC525",
"                    . + @                       ",
"                    # $ %                       ",
"          & *         = -       ; > ,           ",
"          ' ) !     ~ { ] ^   / ( _ :           ",
"            < [   } | 1 2 3 4 5 6 -             ",
"              7 8 9 0 a b c d e f               ",
"              g h i j k l m n o p               ",
"      q r s t u v w x y z A B C D E F G H       ",
"      I J K L M N O P Q R S T U V W X Y Z       ",
"      `  ...+.@.#.$.%.&.*.=.-.;.>.,.'.).!.      ",
"            ~.{.].^./.(._.:.<.[.}.|.            ",
"              1.2.3.4.5.6.7.8.9.0.              ",
"              a.b.c.d.e.f.g.h.i.                ",
"            j.k.l.m.n.o.p.q.r.  s.t.            ",
"          u.v.w.x.  y.z.A.B.    C.D.E.          ",
"          F.G.        H.I.        J.K.          ",
"                      L.M.                      ",
"                      N.O.                      "};
