/* XPM */
static char * color_xpm[] = {
"24 18 215 2",
"  	c None",
". 	c #BFBFBF",
"+ 	c #A4A4A4",
"@ 	c #909090",
"# 	c #6D6D6D",
"$ 	c #696969",
"% 	c #8D8D8D",
"& 	c #B9B9B9",
"* 	c #C5C1C1",
"= 	c #EBD1D1",
"- 	c #F3CDCD",
"; 	c #794A4A",
"> 	c #6A4E4E",
", 	c #393535",
"' 	c #3F3F3F",
") 	c #929292",
"! 	c #C4C4C4",
"~ 	c #C2C2C2",
"{ 	c #E8E8E8",
"] 	c #ECD4D4",
"^ 	c #F6A8A8",
"/ 	c #FDB1B1",
"( 	c #EA5555",
"_ 	c #B22C2C",
": 	c #4F2E2E",
"< 	c #272727",
"[ 	c #2C2C2C",
"} 	c #666666",
"| 	c #B6B6B6",
"1 	c #C9C9C9",
"2 	c #ECECEC",
"3 	c #F0C5C5",
"4 	c #FDAFAF",
"5 	c #FFC2C2",
"6 	c #FF4C4C",
"7 	c #EA0C0C",
"8 	c #631717",
"9 	c #212121",
"0 	c #202020",
"a 	c #242424",
"b 	c #7C7C7C",
"c 	c #B3B3B3",
"d 	c #F6F6F6",
"e 	c #EEEEEE",
"f 	c #EFB4B4",
"g 	c #FD6161",
"h 	c #FF5252",
"i 	c #FF2828",
"j 	c #ED0505",
"k 	c #590707",
"l 	c #0E0E0E",
"m 	c #252525",
"n 	c #1C1C1C",
"o 	c #A8A8A8",
"p 	c #959595",
"q 	c #E1E1E1",
"r 	c #F9F9F9",
"s 	c #FDFDFD",
"t 	c #F7F7F7",
"u 	c #F0CACA",
"v 	c #F84E4E",
"w 	c #FD0E0E",
"x 	c #F21515",
"y 	c #B50E0E",
"z 	c #2D0505",
"A 	c #020202",
"B 	c #191919",
"C 	c #262626",
"D 	c #131313",
"E 	c #555555",
"F 	c #C8C8C8",
"G 	c #8F8F8F",
"H 	c #F3F3F3",
"I 	c #FCFCFC",
"J 	c #FFFFFF",
"K 	c #F4EEEE",
"L 	c #F0C0C0",
"M 	c #EC8181",
"N 	c #831F1F",
"O 	c #4D1F1F",
"P 	c #0C0606",
"Q 	c #000000",
"R 	c #080808",
"S 	c #1D1D1D",
"T 	c #9D9D9D",
"U 	c #ADADAD",
"V 	c #F4F4F4",
"W 	c #FBFBFB",
"X 	c #DFDFDF",
"Y 	c #090909",
"Z 	c #030303",
"` 	c #181818",
" .	c #1B1B1B",
"..	c #9B9B9B",
"+.	c #898989",
"@.	c #B7B7B7",
"#.	c #F1FDF1",
"$.	c #B9FFB9",
"%.	c #96FF96",
"&.	c #87FF87",
"*.	c #C5FBC5",
"=.	c #DDE1DD",
"-.	c #222226",
";.	c #242456",
">.	c #3E3E98",
",.	c #1616AE",
"'.	c #010159",
").	c #0E0E1B",
"!.	c #868686",
"~.	c #979797",
"{.	c #A6A6A6",
"].	c #D0FFD0",
"^.	c #A8FFA8",
"/.	c #CCFFCC",
"(.	c #3EFF3E",
"_.	c #41FD41",
":.	c #C8E5C8",
"<.	c #232338",
"[.	c #6565C6",
"}.	c #9F9FFF",
"|.	c #3E3EFF",
"1.	c #0000E9",
"2.	c #07075D",
"3.	c #1A1A1A",
"4.	c #888888",
"5.	c #797979",
"6.	c #B9FDB9",
"7.	c #89FF89",
"8.	c #90FF90",
"9.	c #2AFF2A",
"0.	c #19FE19",
"a.	c #BDE8BD",
"b.	c #2E2E44",
"c.	c #7979E9",
"d.	c #7575FF",
"e.	c #2D2DFF",
"f.	c #0000F7",
"g.	c #030383",
"h.	c #0F0F0F",
"i.	c #A0A0A0",
"j.	c #747474",
"k.	c #D7D7D7",
"l.	c #A6F9A6",
"m.	c #25FF25",
"n.	c #29FF29",
"o.	c #11FF11",
"p.	c #33FD33",
"q.	c #C9EAC9",
"r.	c #25253E",
"s.	c #2A2AD2",
"t.	c #0F0FFF",
"u.	c #0202FF",
"v.	c #0000ED",
"w.	c #040468",
"x.	c #111111",
"y.	c #464646",
"z.	c #999999",
"A.	c #D0F0D0",
"B.	c #6EFB6E",
"C.	c #24FF24",
"D.	c #39FF39",
"E.	c #98FA98",
"F.	c #E0EBE0",
"G.	c #22222C",
"H.	c #131373",
"I.	c #0101C9",
"J.	c #0000E0",
"K.	c #01018E",
"L.	c #090929",
"M.	c #767676",
"N.	c #D8D8D8",
"O.	c #AFB0AF",
"P.	c #E4EEE4",
"Q.	c #E8FBE8",
"R.	c #EEFFEE",
"S.	c #F5FBF5",
"T.	c #EDEEED",
"U.	c #1E1E1F",
"V.	c #101016",
"W.	c #010111",
"X.	c #030316",
"Y.	c #090913",
"Z.	c #1B1B1C",
"`.	c #5D5D5D",
" +	c #C5C5C5",
".+	c #818181",
"++	c #A3A3A3",
"@+	c #DDDDDD",
"#+	c #F8F8F8",
"$+	c #F2F2F2",
"%+	c #1E1E1E",
"&+	c #0B0B0B",
"*+	c #040404",
"=+	c #565656",
"-+	c #A7A7A7",
";+	c #878787",
">+	c #858585",
",+	c #ACACAC",
"'+	c #CECECE",
")+	c #D5D5D5",
"!+	c #171717",
"~+	c #050505",
"{+	c #AAAAAA",
"]+	c #D3D3D3",
"^+	c #D4D4D4",
"/+	c #A2A2A2",
"(+	c #7F7F7F",
"_+	c #323232",
":+	c #303030",
"<+	c #535353",
"[+	c #838383",
"}+	c #CCCCCC",
"|+	c #ABABAB",
"1+	c #9E9E9E",
"2+	c #BBBBBB",
"                  . + @ # $ %                   ",
"              . & * = - ; > , ' )               ",
"            ! ~ { ] ^ / ( _ : < [ }             ",
"          | 1 2 2 3 4 5 6 7 8 9 0 a b           ",
"        . c 2 d e f g h i j k l m n [ o         ",
"        p q r s t u v w x y z A B C D E         ",
"      F G H I J s K L M N O P Q R 9 S m !       ",
"      T U V W J J W V X m C Y Q Z ` m  ...      ",
"      +.@.t #.$.%.&.*.=.-.;.>.,.'.).m 0 !.      ",
"      ~.{.r ].^./.(._.:.<.[.}.|.1.2.3.S 4.      ",
"      ! 5.H 6.7.8.9.0.a.b.c.d.e.f.g.h.a i.      ",
"        j.k.l.m.n.o.p.q.r.s.t.u.v.w.x.y..       ",
"        T z.A.B.C.D.E.F.G.H.I.J.K.L.< M.N.      ",
"          4.O.P.Q.R.S.T.U.V.W.X.Y.Z.`.@.        ",
"           +.+++@+#+s $+%+&+*+&+9 =+-+@+        ",
"            ~ ;+>+,+'+)+!+~+D [ $ {+]+          ",
"              ^+/+(+b 5._+:+<+[+&               ",
"                  }+@.|+1+/+2+                  "};
