/* XPM */
static char * computer_xpm[] = {
"16 16 7 1",
" 	c None",
".	c #000000",
"+	c #D8D8D8",
"@	c #747474",
"#	c #F7F7F7",
"$	c #B9B9B9",
"%	c #006DAA",
"     .  ...     ",
"    .+..+++..   ",
"   .++++..++@.  ",
"  .#++++++..@.  ",
"  .$##+++++.@.  ",
"  .$$$##++@.@.  ",
"  .$%%$$#@@.@.  ",
"  .$%.%%$@@.@.  ",
"  .$%...$@@...  ",
"  ..$$..$@@...  ",
"  .$..$$$@@.@.  ",
"  .$$$..$@.@@.  ",
"  .$$$$$..@@@.  ",
"  ..$$@@$@@@.   ",
"    ..$$$@@.    ",
"      ..$@.     "};
