/* XPM */
static char * connect_16_xpm[] = {
"16 16 61 1",
" 	c None",
".	c #1B1B19",
"+	c #2D2C29",
"@	c #252523",
"#	c #32312E",
"$	c #66645E",
"%	c #9C9A96",
"&	c #9A978F",
"*	c #4A4947",
"=	c #9F9C94",
"-	c #726F69",
";	c #4E4C4A",
">	c #686763",
",	c #EBEAE7",
"'	c #BFBDB6",
")	c #A3A199",
"!	c #504F4E",
"~	c #A5A39C",
"{	c #CAC8C5",
"]	c #D6D5D1",
"^	c #2C2B28",
"/	c #9C9B97",
"(	c #D3D1CC",
"_	c #EDEBE8",
":	c #B2AEA7",
"<	c #A4A19A",
"[	c #A5A29B",
"}	c #C0BEB8",
"|	c #E5E3E0",
"1	c #B5B3AE",
"2	c #55534D",
"3	c #52504A",
"4	c #8A877E",
"5	c #AEABA5",
"6	c #9A968D",
"7	c #99968E",
"8	c #41403F",
"9	c #96948C",
"0	c #9C978E",
"a	c #A5A198",
"b	c #6D6A62",
"c	c #504E49",
"d	c #9D9A92",
"e	c #918C83",
"f	c #959188",
"g	c #383735",
"h	c #8D8A82",
"i	c #89867C",
"j	c #8B887E",
"k	c #272622",
"l	c #21201C",
"m	c #59564F",
"n	c #7E7A71",
"o	c #31302D",
"p	c #86837A",
"q	c #44413A",
"r	c #393630",
"s	c #31302B",
"t	c #1F1F1C",
"u	c #2F2E2B",
"v	c #050505",
"                ",
"                ",
"                ",
"                ",
"      .+@#      ",
"     $%&*=-;    ",
"    >,')!~{]^   ",
"////(_:<![}|1///",
"22234567890ab222",
"    cdefghijk   ",
"    lmbnopqr    ",
"      kstuv     ",
"                ",
"                ",
"                ",
"                "};
