/* XPM */
static char * connect_xpm[] = {
"32 32 256 2",
"  	c None",
". 	c #000000",
"+ 	c #FFFFFF",
"@ 	c #D7C9CA",
"# 	c #C9BEC0",
"$ 	c #EBDEE1",
"% 	c #D0C5C8",
"& 	c #B6ACAF",
"* 	c #C1B7BA",
"= 	c #B9AFB2",
"- 	c #C6BCBF",
"; 	c #C5BBBE",
"> 	c #BDB3B7",
", 	c #C1B9BD",
"' 	c #E0D7DC",
") 	c #DBD2D7",
"! 	c #B3AEB1",
"~ 	c #C9C1C6",
"{ 	c #C6BDC3",
"] 	c #BDB6BB",
"^ 	c #CCC5CB",
"/ 	c #CAC3C9",
"( 	c #AFA7AE",
"_ 	c #D2CAD1",
": 	c #C9B9C9",
"< 	c #B7AFB7",
"[ 	c #C7C0C7",
"} 	c #BDB6BD",
"| 	c #BBB4BB",
"1 	c #CDC6CD",
"2 	c #B9B3B9",
"3 	c #B6AAB7",
"4 	c #B3A9B4",
"5 	c #B7AFB8",
"6 	c #D8D1DA",
"7 	c #B4B0B8",
"8 	c #AAABB5",
"9 	c #C1C3CF",
"0 	c #BFC6D8",
"a 	c #CED5E7",
"b 	c #AEB6C7",
"c 	c #B4BBCA",
"d 	c #B4BED0",
"e 	c #9BA5B6",
"f 	c #8C9BB1",
"g 	c #A7BCD8",
"h 	c #ADC1DC",
"i 	c #124D94",
"j 	c #2F61A0",
"k 	c #8BA6C7",
"l 	c #16549C",
"m 	c #1B5AA1",
"n 	c #1F5FA5",
"o 	c #205FA3",
"p 	c #2263A9",
"q 	c #205B9F",
"r 	c #2364AA",
"s 	c #356AA7",
"t 	c #3C72AC",
"u 	c #7098C4",
"v 	c #7998BB",
"w 	c #7793B1",
"x 	c #7A95B3",
"y 	c #8FAED0",
"z 	c #93B1D4",
"A 	c #7E99B6",
"B 	c #91ADCB",
"C 	c #98B2D0",
"D 	c #155AA2",
"E 	c #195FA6",
"F 	c #1B63AA",
"G 	c #1A5DA3",
"H 	c #1F5FA3",
"I 	c #2166AB",
"J 	c #2164A9",
"K 	c #2061A5",
"L 	c #2367AC",
"M 	c #2264A7",
"N 	c #256AAE",
"O 	c #2465AA",
"P 	c #2667A9",
"Q 	c #2A6EB1",
"R 	c #296BAE",
"S 	c #3272B1",
"T 	c #3875B1",
"U 	c #447CB5",
"V 	c #4880B9",
"W 	c #5187BD",
"X 	c #5C8DBD",
"Y 	c #6897C7",
"Z 	c #668DB5",
"` 	c #739BC4",
" .	c #84A8CC",
"..	c #87A6C6",
"+.	c #8DA9C6",
"@.	c #1D6AB1",
"#.	c #1E67AD",
"$.	c #2069AF",
"%.	c #1F66AA",
"&.	c #226DB2",
"*.	c #236FB5",
"=.	c #2267A9",
"-.	c #2672B6",
";.	c #256EB1",
">.	c #256DB0",
",.	c #246AAD",
"'.	c #266FB2",
").	c #266DB1",
"!.	c #2770B3",
"~.	c #266CAF",
"{.	c #2972B5",
"].	c #2871B3",
"^.	c #2B74B5",
"/.	c #2A71B1",
"(.	c #2C72B2",
"_.	c #3078B8",
":.	c #2F76B5",
"<.	c #2E72B2",
"[.	c #3175B4",
"}.	c #357BB9",
"|.	c #3576B4",
"1.	c #3A77B2",
"2.	c #3D7EB9",
"3.	c #4282BB",
"4.	c #4A82B6",
"5.	c #4F8ABF",
"6.	c #5B92C4",
"7.	c #6198CA",
"8.	c #5987B3",
"9.	c #6595C3",
"0.	c #76A1CA",
"a.	c #8AAAC9",
"b.	c #2170B4",
"c.	c #2777BA",
"d.	c #2775B7",
"e.	c #2876B7",
"f.	c #2A7BBD",
"g.	c #2975B7",
"h.	c #2B78BA",
"i.	c #2B76B6",
"j.	c #2B75B6",
"k.	c #2C77B8",
"l.	c #2D78B9",
"m.	c #2D77B7",
"n.	c #2C75B4",
"o.	c #2F7DBD",
"p.	c #2F7ABB",
"q.	c #2F79BA",
"r.	c #2E77B7",
"s.	c #307CBC",
"t.	c #307CBB",
"u.	c #2F78B7",
"v.	c #307ABA",
"w.	c #3381C0",
"x.	c #337FBF",
"y.	c #327CBC",
"z.	c #327AB8",
"A.	c #377EBC",
"B.	c #3881BE",
"C.	c #3982BE",
"D.	c #3980BD",
"E.	c #377AB5",
"F.	c #3B84BF",
"G.	c #3B81BD",
"H.	c #3D83BE",
"I.	c #448BC5",
"J.	c #4689C2",
"K.	c #4D90C7",
"L.	c #508EC1",
"M.	c #5591C4",
"N.	c #6799C4",
"O.	c #6A9DC9",
"P.	c #2C7FC0",
"Q.	c #307FBE",
"R.	c #3281BF",
"S.	c #3682BF",
"T.	c #3986C2",
"U.	c #3C89C4",
"V.	c #3E87C1",
"W.	c #418EC7",
"X.	c #428FC8",
"Y.	c #428AC3",
"Z.	c #4D96CC",
"`.	c #4F94C9",
" +	c #5497C9",
".+	c #5699CC",
"++	c #4793CA",
"@+	c #4993C9",
"#+	c #4C95CA",
"$+	c #4F9ACD",
"%+	c #549CCF",
"&+	c #599DCE",
"*+	c #61A4D3",
"=+	c #67A9D5",
"-+	c #6BAAD5",
";+	c #5BA5D4",
">+	c #6BAFDA",
",+	c #7BB9DF",
"'+	c #82BBDF",
")+	c #8BC4E4",
"!+	c #21591D",
"~+	c #3D9337",
"{+	c #377D32",
"]+	c #5AC252",
"^+	c #4EA747",
"/+	c #367431",
"(+	c #397535",
"_+	c #4C9446",
":+	c #1C4D17",
"<+	c #265F21",
"[+	c #30712A",
"}+	c #32702C",
"|+	c #35722F",
"1+	c #3A7933",
"2+	c #407F39",
"3+	c #44853D",
"4+	c #498A42",
"5+	c #61B459",
"6+	c #52974C",
"7+	c #70C668",
"8+	c #599A52",
"9+	c #79D271",
"0+	c #67AF5F",
"a+	c #67B060",
"b+	c #69B262",
"c+	c #68AE61",
"d+	c #74BF6C",
"e+	c #72BD6B",
"f+	c #62A35C",
"g+	c #4A7A45",
"h+	c #77C170",
"i+	c #7CC975",
"j+	c #85D57E",
"k+	c #8DDD84",
"l+	c #7BC075",
"m+	c #7EBD77",
"n+	c #5A8856",
"o+	c #9AE192",
"p+	c #93D78D",
"q+	c #8DCC86",
"r+	c #73A26E",
"s+	c #97D491",
"t+	c #92CA8D",
"u+	c #C1CAC0",
"v+	c #306D29",
"w+	c #5DA355",
"x+	c #70B668",
"y+	c #83B37D",
"z+	c #7AA675",
"A+	c #8DB288",
"B+	c #A4BDA1",
"C+	c #A0AF9E",
"D+	c #B1CFAC",
"E+	c #B5B8B4",
"F+	c #A7A9A6",
"G+	c #B5B6B3",
"              p+s+1 [                                           ",
"            t+]+j+D+5 |                                         ",
"          t+]+9+k+o+B+( 2                                       ",
"        t+^+7+j+j+j+p+B+( 2                         $ 6         ",
"      y+~+5+i+i+i+i+j+s+C+( |                   z 9.9 % [       ",
"    B+{+^+e+e+e+d+d+h+q+q+C+4 }               z '.D 1.e > }     ",
"  u+(+_+0+a+0+a+a+a+b+m+l+m+F+} {           g (.d.!.#.^.f & ]   ",
"  g+[+_+_+6+8+w+w+w+f+c+c+x+y+E+          g P -.T.++V.$.;.f !   ",
"r+[+/+}+n+|+3+_+6+6+f+z+z+A+y+y+          j #.w.++>+,+K.&.1.(   ",
"          |+1+3+3+4+f+F+3 :             s i ^.p.B.*+)+'+H./.f & ",
"          }+|+1+1+2+f+F+<             6.r m ~.!.~.}.*+,+I.].x & ",
"          <+<+v+v+|+8+!               a U l K M J L D.%+U.d.w & ",
"          :+:+:+!+<+v+G+                C p %.L L L ~.s.w.h.w & ",
"                                          Y }.g.].K H !.o.h.x = ",
"                                            V #.).K n N h.u.e   ",
"                                          0.>.l.Q.o.o.x.f.4.!   ",
"                                        g -.h.o.w.W.X.P.}.e ,   ",
"                                      y }.-.^.k.T.%+W.^.f *     ",
"                                      S &.{.r.Y.Z.I.^.w *       ",
"                    $               t #.{.}.`.=+%+c.Z * /       ",
"                y J.B ~ {   _ ' 0 s l >._.`.*+K.q.Z ] /         ",
"              y J E @.X 8 > { b s D N n.Y..+G.'.Z , ^           ",
"            h N G l l F 8.( w P E Q H.K.`.F./.x ; ^             ",
"          h :.%.,.J o q ,.t M R 2. +-+&+B.[.A ;                 ",
"          _.$.~.N I O r K E ).G.K..+`.B.|.f { _                 ",
"        2.!.p.t.i.>.N ~.=.N l.S.V.A.*.E.e # 1                   ",
"      M.@.!.T.$+#+x.k.j.].l.x.x.p.b.4.e -                       ",
"      g C.@.u.#+;+$+U.R.R.w.S.v.'.Z 7 ; [     6 6     6         ",
"        h J.&.m.@+;+++w.t.z.(.T 1.v [ b N.b _ N.M._ 9 V.a.      ",
"          a 7.{.m.T.w.e.;.S Z b '.k _ 3.y.c b 2.W ^ +.P...@     ",
"              0.{.<.W X ` d ) ' C  .X R |.X 5.v.T X 3.D.L.0._   ",
"                                    3.u 0 U u   9.|.C 0 O.K.'   "};
