/* XPM */
static char * contrast_xpm[] = {
"24 18 131 2",
"  	c None",
". 	c #BFBFBF",
"+ 	c #A4A4A4",
"@ 	c #909090",
"# 	c #6D6D6D",
"$ 	c #696969",
"% 	c #8D8D8D",
"& 	c #B9B9B9",
"* 	c #C4C4C4",
"= 	c #E8E8E8",
"- 	c #EEEEEE",
"; 	c #3F3F3F",
"> 	c #535353",
", 	c #363636",
"' 	c #929292",
") 	c #C2C2C2",
"! 	c #E9E9E9",
"~ 	c #EAEAEA",
"{ 	c #323232",
"] 	c #414141",
"^ 	c #353535",
"/ 	c #272727",
"( 	c #2C2C2C",
"_ 	c #666666",
": 	c #B6B6B6",
"< 	c #C9C9C9",
"[ 	c #ECECEC",
"} 	c #E3E3E3",
"| 	c #333333",
"1 	c #404040",
"2 	c #212121",
"3 	c #202020",
"4 	c #242424",
"5 	c #7C7C7C",
"6 	c #B3B3B3",
"7 	c #F6F6F6",
"8 	c #DDDDDD",
"9 	c #111111",
"0 	c #0E0E0E",
"a 	c #252525",
"b 	c #1C1C1C",
"c 	c #A8A8A8",
"d 	c #959595",
"e 	c #E1E1E1",
"f 	c #F9F9F9",
"g 	c #FDFDFD",
"h 	c #F7F7F7",
"i 	c #DBDBDB",
"j 	c #303030",
"k 	c #080808",
"l 	c #020202",
"m 	c #191919",
"n 	c #262626",
"o 	c #131313",
"p 	c #555555",
"q 	c #C8C8C8",
"r 	c #8F8F8F",
"s 	c #F3F3F3",
"t 	c #FCFCFC",
"u 	c #FFFFFF",
"v 	c #F4F4F4",
"w 	c #EBEBEB",
"x 	c #2A2A2A",
"y 	c #282828",
"z 	c #070707",
"A 	c #000000",
"B 	c #1D1D1D",
"C 	c #9D9D9D",
"D 	c #ADADAD",
"E 	c #FBFBFB",
"F 	c #DFDFDF",
"G 	c #090909",
"H 	c #030303",
"I 	c #181818",
"J 	c #1B1B1B",
"K 	c #9B9B9B",
"L 	c #898989",
"M 	c #B7B7B7",
"N 	c #FEFEFE",
"O 	c #222222",
"P 	c #0B0B0B",
"Q 	c #010101",
"R 	c #868686",
"S 	c #979797",
"T 	c #A6A6A6",
"U 	c #E4E4E4",
"V 	c #0A0A0A",
"W 	c #1A1A1A",
"X 	c #888888",
"Y 	c #797979",
"Z 	c #E7E7E7",
"` 	c #1F1F1F",
" .	c #040404",
"..	c #0F0F0F",
"+.	c #A0A0A0",
"@.	c #747474",
"#.	c #D7D7D7",
"$.	c #F8F8F8",
"%.	c #464646",
"&.	c #999999",
"*.	c #EFEFEF",
"=.	c #232323",
"-.	c #050505",
";.	c #767676",
">.	c #D8D8D8",
",.	c #B0B0B0",
"'.	c #1E1E1E",
").	c #101010",
"!.	c #5D5D5D",
"~.	c #C5C5C5",
"{.	c #818181",
"].	c #A3A3A3",
"^.	c #F2F2F2",
"/.	c #565656",
"(.	c #A7A7A7",
"_.	c #878787",
":.	c #858585",
"<.	c #ACACAC",
"[.	c #CECECE",
"}.	c #D5D5D5",
"|.	c #171717",
"1.	c #AAAAAA",
"2.	c #D3D3D3",
"3.	c #D4D4D4",
"4.	c #A2A2A2",
"5.	c #7F7F7F",
"6.	c #838383",
"7.	c #CCCCCC",
"8.	c #ABABAB",
"9.	c #9E9E9E",
"0.	c #BBBBBB",
"                  . + @ # $ %                   ",
"              . & * = - ; > , ; '               ",
"            * ) = ! ~ ! { ] ^ / ( _             ",
"          : < [ [ ! ~ } | 1 / 2 3 4 5           ",
"        . 6 [ 7 - = ! 8 { , 9 0 a b ( c         ",
"        d e f g h [ = i j ( k l m n o p         ",
"      q r s t u g v w 8 x y z A k 2 B a *       ",
"      C D v E u u E v F a n G A H I a J K       ",
"      L M h g u u N E e O n P A Q 0 a 3 R       ",
"      S T f u u u u E U 3 3 V Q A z W B X       ",
"      * Y s g u u u E Z ` J k Q A  ...4 +.      ",
"        @.#.$.N u u f ! 2 J z Q A  .9 %..       ",
"        C &.*.f u u $.w =.m -.A l V / ;.>.      ",
"          X ,.- E u E - '.).Q H G J !.M         ",
"          ~.{.].8 $.g ^.'.P  .P 2 /.(.8         ",
"            ) _.:.<.[.}.|.-.o ( $ 1.2.          ",
"              3.4.5.5 Y { j > 6.&               ",
"                  7.M 8.9.4.0.                  "};
