/* XPM */
static char * disconnect_xpm[] = {
"32 32 256 2",
"  	c None",
". 	c #000000",
"+ 	c #FFFFFF",
"@ 	c #AB383A",
"# 	c #B53F41",
"$ 	c #B13E3F",
"% 	c #AE3D3F",
"& 	c #B64041",
"* 	c #B64142",
"= 	c #B44042",
"- 	c #B44041",
"; 	c #A83C3D",
"> 	c #B54244",
", 	c #B24142",
"' 	c #BB4546",
") 	c #B74445",
"! 	c #B14345",
"~ 	c #BB4849",
"{ 	c #B94748",
"] 	c #B94849",
"^ 	c #BD4A4B",
"/ 	c #BD4B4D",
"( 	c #BB4A4B",
"_ 	c #C04F50",
": 	c #C15152",
"< 	c #BA4E4F",
"[ 	c #C65455",
"} 	c #C95758",
"| 	c #A54748",
"1 	c #B44F50",
"2 	c #A84A4B",
"3 	c #C9595B",
"4 	c #BE5556",
"5 	c #C95B5C",
"6 	c #C75A5B",
"7 	c #BD5758",
"8 	c #CC5F60",
"9 	c #AD5152",
"0 	c #CE6162",
"a 	c #D06364",
"b 	c #BD5A5B",
"c 	c #D16465",
"d 	c #B55859",
"e 	c #D2696A",
"f 	c #D46B6C",
"g 	c #D36B6C",
"h 	c #C16263",
"i 	c #B65C5E",
"j 	c #D86F70",
"k 	c #C46769",
"l 	c #D87273",
"m 	c #DB7576",
"n 	c #C2696B",
"o 	c #C16F70",
"p 	c #C07273",
"q 	c #9F3F42",
"r 	c #AD494D",
"s 	c #C7787A",
"t 	c #AE6A6C",
"u 	c #C38285",
"v 	c #BC6C71",
"w 	c #CD9497",
"x 	c #A75D63",
"y 	c #B9686E",
"z 	c #BE868A",
"A 	c #CD9CA1",
"B 	c #D2A7AC",
"C 	c #CAA2A6",
"D 	c #D3ACB1",
"E 	c #DBB6BC",
"F 	c #DCBABF",
"G 	c #D5B5BB",
"H 	c #CCADB3",
"I 	c #D8BEC3",
"J 	c #A76E7B",
"K 	c #D2B9BF",
"L 	c #DCC4CA",
"M 	c #DFCBD1",
"N 	c #7F4D5E",
"O 	c #E5D1D8",
"P 	c #8F5C6E",
"Q 	c #B497A2",
"R 	c #CDB8C0",
"S 	c #D6C6CD",
"T 	c #E9DCE3",
"U 	c #E6D9E0",
"V 	c #835D73",
"W 	c #F1E7ED",
"X 	c #F4E9F0",
"Y 	c #EBE0E7",
"Z 	c #EFE6EC",
"` 	c #F2E8EF",
" .	c #EEE3EB",
"..	c #CCC4CA",
"+.	c #DCD4DA",
"@.	c #E8DFE6",
"#.	c #EBE1E9",
"$.	c #EAE3E9",
"%.	c #EFE6EE",
"&.	c #EEE5ED",
"*.	c #DDD5DC",
"=.	c #BAB2BA",
"-.	c #EBE2EB",
";.	c #EDE5ED",
">.	c #ECE4EC",
",.	c #D5CED5",
"'.	c #EDE6ED",
").	c #E8E1E8",
"!.	c #F0E9F1",
"~.	c #EFE8F0",
"{.	c #E9E2EA",
"].	c #E3DCE4",
"^.	c #F2ECF3",
"/.	c #B6ACB9",
"(.	c #F0E9F2",
"_.	c #F2ECF4",
":.	c #F1EBF3",
"<.	c #C3BEC5",
"[.	c #DED9E0",
"}.	c #E0DAE3",
"|.	c #F3EDF6",
"1.	c #F1EBF4",
"2.	c #EAE4ED",
"3.	c #ABA7AE",
"4.	c #D9D5DD",
"5.	c #F1EDF5",
"6.	c #EFEBF3",
"7.	c #F1EDF6",
"8.	c #EBE7F0",
"9.	c #615275",
"0.	c #6D6080",
"a.	c #CFCCD4",
"b.	c #F2EFF7",
"c.	c #F3F0F9",
"d.	c #E5E2EC",
"e.	c #F6F4FC",
"f.	c #837D9B",
"g.	c #E1DFEB",
"h.	c #ABABB3",
"i.	c #D4D5E3",
"j.	c #6E7598",
"k.	c #7180A2",
"l.	c #C3CDE1",
"m.	c #4E6D9D",
"n.	c #AABDD7",
"o.	c #96A6BB",
"p.	c #7993B2",
"q.	c #8799AF",
"r.	c #1358A2",
"s.	c #1B589D",
"t.	c #5C86B5",
"u.	c #6387AF",
"v.	c #1A63AA",
"w.	c #1E60A5",
"x.	c #2163A7",
"y.	c #2265AA",
"z.	c #2469AD",
"A.	c #2468AC",
"B.	c #256BAF",
"C.	c #2B6EAF",
"D.	c #4C82B7",
"E.	c #4C7BAD",
"F.	c #5082B5",
"G.	c #5789BC",
"H.	c #6C9BC9",
"I.	c #6B99C7",
"J.	c #6C97C1",
"K.	c #759FC8",
"L.	c #6A8EB3",
"M.	c #86A6C8",
"N.	c #1468B3",
"O.	c #1F6AAF",
"P.	c #2270B7",
"Q.	c #226FB4",
"R.	c #216AAF",
"S.	c #226DB1",
"T.	c #2269AB",
"U.	c #256FB3",
"V.	c #266EB2",
"W.	c #266EB1",
"X.	c #266DB0",
"Y.	c #2770B2",
"Z.	c #2973B5",
"`.	c #2871B3",
" +	c #276DAF",
".+	c #2C75B6",
"++	c #2F71AF",
"@+	c #3374B2",
"#+	c #3B76AF",
"$+	c #4586C0",
"%+	c #4E8AC1",
"&+	c #5186B8",
"*+	c #6396C4",
"=+	c #679AC8",
"-+	c #6290BA",
";+	c #2270B3",
">+	c #2578BB",
",+	c #2575B8",
"'+	c #2572B5",
")+	c #2775B7",
"!+	c #2A7DC0",
"~+	c #2B7BBC",
"{+	c #2A77B8",
"]+	c #2C7BBC",
"^+	c #2B75B6",
"/+	c #2D79BA",
"(+	c #2E7DBD",
"_+	c #307DBD",
":+	c #317ABA",
"<+	c #3078B6",
"[+	c #337FBF",
"}+	c #3380BE",
"|+	c #357FBD",
"1+	c #3982BF",
"2+	c #307EBC",
"3+	c #3180BE",
"4+	c #3483C1",
"5+	c #3682BF",
"6+	c #3A85C1",
"7+	c #3D8DC9",
"8+	c #3E8AC5",
"9+	c #418DC7",
"0+	c #5198CC",
"a+	c #4491C9",
"b+	c #4A94CA",
"c+	c #5CA4D4",
"d+	c #6AABD7",
"e+	c #8CC5E5",
"f+	c #BF4845",
"g+	c #972323",
"h+	c #A02C2C",
"i+	c #AC3635",
"j+	c #A73534",
"k+	c #B03939",
"l+	c #AD3A3A",
"m+	c #B23C3C",
"n+	c #B44343",
"o+	c #C24C4A",
"p+	c #C95252",
"q+	c #B64A4A",
"r+	c #C35050",
"s+	c #C65452",
"t+	c #CA5755",
"u+	c #C45252",
"v+	c #BC4F4F",
"w+	c #C35353",
"x+	c #B54D4D",
"y+	c #C25453",
"z+	c #C15454",
"A+	c #BF5353",
"B+	c #CD5D5D",
"C+	c #CA5D5D",
"D+	c #CA615F",
"E+	c #D46666",
"F+	c #D66C6C",
"G+	c #D67070",
"                                                                ",
"                %. . .%.                                        ",
"              b.F n+# F b.                                      ",
"              b.F $ m+E c.                                      ",
"              b.F , ) i Y ~.                                    ",
"              b.F n+' x+L 1.              ~.                    ",
"                d ) ~ 7 O               !.O s O T U T           ",
"                x+$ { b M               |.D b F n h h A         ",
"                G d = < B                 s w+h ^ ' { w         ",
"                  I d ~ o S   *.*.    +.w 6 [ r+_ b B           ",
"            ].*.a.a.Q x+y+p /.<.<.=.C s 6 5 3 D+u R             ",
"        ].n.M.J.-+D.&+P s+B+y E.k.k C+5 C+B+v f.o.<.<...        ",
"      l.I.:+]+]+}+8+7+k.4 8 E+n v c 8 3 5 J E..+#+u.p.o./.      ",
"  X l.%+{+/+Z.3+8+0+a+%+x 3 e j j e 8 t+y F.!+[+}+Z.C..+u.h.=.  ",
"X l.$+)+3+^+w.z.3+4+_+~+V p+e l l g B+w+f.7+}+[+[+4+_+{+,+E.3.=.",
"'.=+S.8+9+Z.w.s.`._+(+>+0.o+c l m F+} 1 m./+.+Z.`./+4+8+9+{+u.3.",
"n.O.$+d+0+ +y.B.V.W.`.]+V f+c l m f p+r m.A.x.x.T.Z.(+a+c+5+U.q.",
"K.O.d+e+0+z.y.X.^+++L.p.2 o+a G+l e [ ! Q n.@+w.z.B.^+a+c+6+'+p.",
"*+O.d+e+0+ +y.w.S.F.h.t m+u+0 c c 0 } ' p T $+w.x.y.W.8+c+6+P.L.",
"*+O.0+d+b+^+W.x.r.E.t @ ' [ [ : v+_ r+r+< z E.r.w.y.B.|+b+1+Q.-+",
"H.v.5+a+8+_+^+w.s.N i+# _ A+s C K D u 7 : / x 9.s.A.z.`.2+{+O.-+",
"K.r.Q.,+'+R.s.r.9.j+- ^ v+w           D 7 _ _ f+9.N.R.O.U.S.;+*+",
"n.%+%+G.F.t.t.j.q - ( ( u               A < _ f+x t.M.K.K.M.K.n.",
"d.g.i.}.i.d.R 9 m+{ / 1 L                 v ' ] q+1 H $.}.Y ].@.",
"          I | i+> ] , u                   D , ) - i+2 M         ",
"        M q h+@ n+# 9 M                     i l+$ k+; L         ",
"        z g+h+@ * % A                       B j+j+2 z U         ",
"        t | G i k+9 U                         t x M 1.!.        ",
"        I L e.L D S                           O @.|.            ",
"                                              !.                ",
"                                                                ",
"                                                                "};
