/* XPM */
static char * eye_xpm[] = {
"16 16 51 1",
" 	c None",
".	c #000000",
"+	c #000013",
"@	c #00002B",
"#	c #00004B",
"$	c #00006B",
"%	c #000039",
"&	c #000046",
"*	c #000048",
"=	c #000055",
"-	c #000075",
";	c #000060",
">	c #40406A",
",	c #00007C",
"'	c #000084",
")	c #0E0E0E",
"!	c #757575",
"~	c #5050CF",
"{	c #00008E",
"]	c #000092",
"^	c #000020",
"/	c #303030",
"(	c #656565",
"_	c #CACACA",
":	c #7070EF",
"<	c #0000DC",
"[	c #0000C3",
"}	c #000040",
"|	c #151515",
"1	c #DCDCDC",
"2	c #FDFDFD",
"3	c #1515DF",
"4	c #0000D5",
"5	c #0000AA",
"6	c #FFFFFF",
"7	c #FAFAFA",
"8	c #6E6E6E",
"9	c #969696",
"0	c #9595FF",
"a	c #1515EA",
"b	c #0000F4",
"c	c #0000EA",
"d	c #AAAAAA",
"e	c #7C7C7C",
"f	c #8282C1",
"g	c #3C3CE6",
"h	c #2929FD",
"i	c #8C8C8C",
"j	c #4D4D4D",
"k	c #5D5D83",
"l	c #52527C",
"                ",
"                ",
"                ",
"       ..       ",
"    +@#$$#%&    ",
"  .*=-;>>;,'*.  ",
" )!~{]^//^]{~!) ",
" (_:<[}..}[<:_(|",
"  12345==543678.",
"  910abccba07d  ",
"    efghhgfij   ",
"      kllk      ",
"                ",
"                ",
"                ",
"                "};
