/* XPM */
static char * globe_36_xpm[] = {
"32 32 588 2",
"  	c None",
". 	c #C3D8E1",
"+ 	c #8EBED6",
"@ 	c #73AABF",
"# 	c #ACB177",
"$ 	c #A2AE66",
"% 	c #A3AB58",
"& 	c #C3B748",
"* 	c #B7AE49",
"= 	c #CBB947",
"- 	c #C8BD56",
"; 	c #C9C178",
"> 	c #CAC49F",
", 	c #A5C4CB",
"' 	c #589BB6",
") 	c #79A19A",
"! 	c #83A596",
"~ 	c #B1B461",
"{ 	c #BBBA5E",
"] 	c #C7BF5A",
"^ 	c #C9C153",
"/ 	c #C9C449",
"( 	c #D2C934",
"_ 	c #D2C728",
": 	c #CAC420",
"< 	c #C3BD2A",
"[ 	c #BBB756",
"} 	c #BAB9A3",
"| 	c #96B2AB",
"1 	c #2A87BA",
"2 	c #639EAE",
"3 	c #DDD399",
"4 	c #D2C88D",
"5 	c #A9AB7D",
"6 	c #A5A678",
"7 	c #AFA771",
"8 	c #C9B76D",
"9 	c #D1BD66",
"0 	c #BDAD52",
"a 	c #BAA63B",
"b 	c #CEB54A",
"c 	c #D5BD4A",
"d 	c #D4B831",
"e 	c #C9AB2F",
"f 	c #B6AA7F",
"g 	c #BAB9B8",
"h 	c #C8D7D9",
"i 	c #498FB3",
"j 	c #488CAD",
"k 	c #B2BA95",
"l 	c #F5F0BF",
"m 	c #FDFCD8",
"n 	c #FDFCD4",
"o 	c #F8F6CF",
"p 	c #CBCA95",
"q 	c #91A070",
"r 	c #AFAB76",
"s 	c #B5A966",
"t 	c #DBC37A",
"u 	c #D2B970",
"v 	c #D0B65B",
"w 	c #E0C770",
"x 	c #D1C060",
"y 	c #E0C85E",
"z 	c #E8BD32",
"A 	c #B9A66D",
"B 	c #AEACA8",
"C 	c #6EA0B0",
"D 	c #5795AF",
"E 	c #D7DDB9",
"F 	c #FBFAC9",
"G 	c #FDFDDA",
"H 	c #FDFDE6",
"I 	c #FDFDE4",
"J 	c #F5F3C3",
"K 	c #DBDBB1",
"L 	c #D9DAB0",
"M 	c #BEC188",
"N 	c #C0B573",
"O 	c #DAC57B",
"P 	c #F6E797",
"Q 	c #F1E18F",
"R 	c #D3C373",
"S 	c #D5C366",
"T 	c #E3C44E",
"U 	c #E0B623",
"V 	c #AC9C6D",
"W 	c #A5A5A5",
"X 	c #BDBDBD",
"Y 	c #99B8B7",
"Z 	c #4D899D",
"` 	c #C3D0C0",
" .	c #FCFBE4",
"..	c #FDFDE5",
"+.	c #FDFCD6",
"@.	c #FDFDD6",
"#.	c #FDFCCD",
"$.	c #FDFCD1",
"%.	c #FDFCDA",
"&.	c #F8F6D3",
"*.	c #E9E4A5",
"=.	c #EDE294",
"-.	c #FCF8AD",
";.	c #F8F0A1",
">.	c #E7D47F",
",.	c #DBC668",
"'.	c #DFBC43",
").	c #DFB524",
"!.	c #C2A237",
"~.	c #9D957A",
"{.	c #1C76AA",
"].	c #669FAF",
"^.	c #F3F0C3",
"/.	c #FDFCDF",
"(.	c #FDFDE7",
"_.	c #FDFDDD",
":.	c #FDFCD2",
"<.	c #FDFDD8",
"[.	c #FDFDDC",
"}.	c #FCFBCA",
"|.	c #FDFBC8",
"1.	c #FDFDDB",
"2.	c #F1ECB2",
"3.	c #D9CD7F",
"4.	c #F1E898",
"5.	c #FAF6A9",
"6.	c #E5D682",
"7.	c #D8C169",
"8.	c #DDB837",
"9.	c #D9B324",
"0.	c #CAA41F",
"a.	c #AB954D",
"b.	c #8F8D87",
"c.	c #ACACAC",
"d.	c #80AAB1",
"e.	c #1171AA",
"f.	c #649CA6",
"g.	c #E5DB91",
"h.	c #F1EBA4",
"i.	c #FAF8C0",
"j.	c #FCFBCF",
"k.	c #FEFDEA",
"l.	c #FDFDE0",
"m.	c #F9F5B6",
"n.	c #CAC173",
"o.	c #DAC873",
"p.	c #FBF3A2",
"q.	c #ECDF86",
"r.	c #D2B955",
"s.	c #CAAD35",
"t.	c #D2AB1D",
"u.	c #CAA213",
"v.	c #B99820",
"w.	c #877F67",
"x.	c #969696",
"y.	c #B4B4B4",
"z.	c #3483AF",
"A.	c #1170A8",
"B.	c #5892A0",
"C.	c #D0CA87",
"D.	c #DCD383",
"E.	c #E8E095",
"F.	c #ECE8A4",
"G.	c #F3F1B5",
"H.	c #FAF9C5",
"I.	c #FBF9C4",
"J.	c #FCF9C2",
"K.	c #FDFBC7",
"L.	c #FDFCCC",
"M.	c #FDFBC5",
"N.	c #FBF4AE",
"O.	c #D3C67A",
"P.	c #CBB96C",
"Q.	c #FAF19D",
"R.	c #FBF5A0",
"S.	c #EEDD80",
"T.	c #B49A2F",
"U.	c #71824A",
"V.	c #BD9609",
"W.	c #B9930C",
"X.	c #8E7F46",
"Y.	c #848484",
"Z.	c #A3A3A3",
"`.	c #B7C6BC",
" +	c #2A7CA6",
".+	c #1170A9",
"++	c #2379A9",
"@+	c #4789A0",
"#+	c #99A98A",
"$+	c #A8AF81",
"%+	c #C1C281",
"&+	c #D4D588",
"*+	c #D6DB8C",
"=+	c #D8D88A",
"-+	c #DFD98B",
";+	c #EEE091",
">+	c #F7E89B",
",+	c #F9E99C",
"'+	c #F6E092",
")+	c #E2C978",
"!+	c #C7B45F",
"~+	c #F1E291",
"{+	c #E9D884",
"]+	c #CFB756",
"^+	c #547667",
"/+	c #16638B",
"(+	c #647542",
"_+	c #B08D03",
":+	c #967D22",
"<+	c #747474",
"[+	c #939393",
"}+	c #B3B3B3",
"|+	c #97B0AC",
"1+	c #2175A2",
"2+	c #1172AD",
"3+	c #1275B1",
"4+	c #1171AB",
"5+	c #1672A8",
"6+	c #1773A7",
"7+	c #518992",
"8+	c #BDBF79",
"9+	c #C4CC78",
"0+	c #BAC869",
"a+	c #C1C869",
"b+	c #CBC76D",
"c+	c #D5C46A",
"d+	c #E2C875",
"e+	c #E0C970",
"f+	c #E0C56D",
"g+	c #D7BD68",
"h+	c #B9AC51",
"i+	c #718C6C",
"j+	c #186793",
"k+	c #116595",
"l+	c #0F6495",
"m+	c #476E56",
"n+	c #AA8B01",
"o+	c #80781B",
"p+	c #676767",
"q+	c #858585",
"r+	c #A6A6A6",
"s+	c #6296B6",
"t+	c #106CA3",
"u+	c #1173AE",
"v+	c #137BBD",
"w+	c #1179B6",
"x+	c #1072AC",
"y+	c #1070A9",
"z+	c #538A94",
"A+	c #D0CB76",
"B+	c #CBC96F",
"C+	c #CEC76F",
"D+	c #D1C46C",
"E+	c #D8C66C",
"F+	c #E1C872",
"G+	c #E4CC73",
"H+	c #E9CF74",
"I+	c #EED278",
"J+	c #E9D67A",
"K+	c #7B997A",
"L+	c #10689D",
"M+	c #106AA1",
"N+	c #10679C",
"O+	c #436A53",
"P+	c #9E8402",
"Q+	c #2A595E",
"R+	c #5E5E5E",
"S+	c #7A7A7A",
"T+	c #9B9B9B",
"U+	c #5F92B1",
"V+	c #0F699F",
"W+	c #1275AF",
"X+	c #1488CE",
"Y+	c #1487CB",
"Z+	c #1179B7",
"`+	c #4A8492",
" @	c #C8BF7D",
".@	c #DECD7D",
"+@	c #E1CC77",
"@@	c #E2CB75",
"#@	c #DFC76D",
"$@	c #D7BE67",
"%@	c #D3BA60",
"&@	c #DEC76B",
"*@	c #DEC15F",
"=@	c #DAB54E",
"-@	c #9B9F57",
";@	c #2E778B",
">@	c #116FA7",
",@	c #106BA1",
"'@	c #235D6E",
")@	c #71741D",
"!@	c #255358",
"~@	c #585858",
"{@	c #727272",
"]@	c #5E90AE",
"^@	c #0F6699",
"/@	c #1490D8",
"(@	c #1699E3",
"_@	c #1288CD",
":@	c #1071AB",
"<@	c #1B74A4",
"[@	c #9DB39C",
"}@	c #EBD991",
"|@	c #ECD27D",
"1@	c #EED17D",
"2@	c #E4CA71",
"3@	c #D8BE65",
"4@	c #D2B55C",
"5@	c #D8B555",
"6@	c #B69F40",
"7@	c #4C7F7F",
"8@	c #257495",
"9@	c #1274AE",
"0@	c #137AB7",
"a@	c #1175AF",
"b@	c #106DA4",
"c@	c #0F5986",
"d@	c #1A4C5B",
"e@	c #0E4059",
"f@	c #535353",
"g@	c #6D6D6D",
"h@	c #8D8D8D",
"i@	c #92A696",
"j@	c #1F698B",
"k@	c #1174AF",
"l@	c #1282BE",
"m@	c #1694D2",
"n@	c #169BE7",
"o@	c #1076B2",
"p@	c #377E9C",
"q@	c #BEC298",
"r@	c #F4E8A6",
"s@	c #EFD781",
"t@	c #E6CF73",
"u@	c #D8C362",
"v@	c #D6BB5F",
"w@	c #D8B853",
"x@	c #AF9D48",
"y@	c #387785",
"z@	c #106EA6",
"A@	c #116EA5",
"B@	c #137CBB",
"C@	c #1488CD",
"D@	c #1386C9",
"E@	c #1073AF",
"F@	c #0E5884",
"G@	c #0A3E5D",
"H@	c #123D48",
"I@	c #515151",
"J@	c #6A6A6A",
"K@	c #8A8A8A",
"L@	c #A4B2A0",
"M@	c #266E90",
"N@	c #1177B4",
"O@	c #1381C0",
"P@	c #1691D6",
"Q@	c #1698E5",
"R@	c #1079B6",
"S@	c #62959B",
"T@	c #E7D78D",
"U@	c #F1E498",
"V@	c #EFDD87",
"W@	c #E4CD71",
"X@	c #D3C25D",
"Y@	c #CFB951",
"Z@	c #D6B440",
"`@	c #879863",
" #	c #1070A8",
".#	c #116FA6",
"+#	c #116FA8",
"@#	c #127FB9",
"##	c #158FCB",
"$#	c #158FD2",
"%#	c #1073AE",
"&#	c #0D4F77",
"*#	c #083856",
"=#	c #43532B",
"-#	c #8B8B8B",
";#	c #BFC4BA",
">#	c #3E788C",
",#	c #1074B1",
"'#	c #1383C6",
")#	c #168FD8",
"!#	c #148DD6",
"~#	c #598D92",
"{#	c #DECD80",
"]#	c #F0DF8C",
"^#	c #ECDB84",
"/#	c #DECA6E",
"(#	c #D2BE55",
"_#	c #CEB841",
":#	c #CCB039",
"<#	c #7F9161",
"[#	c #4B7764",
"}#	c #1279B7",
"|#	c #1486B8",
"1#	c #158CB6",
"2#	c #1587C2",
"3#	c #0E6194",
"4#	c #0B476A",
"5#	c #404A3E",
"6#	c #8E8E8E",
"7#	c #CDCDCD",
"8#	c #79907A",
"9#	c #1589CF",
"0#	c #1487CC",
"a#	c #1077B4",
"b#	c #458089",
"c#	c #CFCA85",
"d#	c #F8E99D",
"e#	c #EEDB84",
"f#	c #DBC76A",
"g#	c #D4BC51",
"h#	c #C7B132",
"i#	c #78894C",
"j#	c #32758A",
"k#	c #798554",
"l#	c #9E882A",
"m#	c #1692C7",
"n#	c #1683A6",
"o#	c #1272A5",
"p#	c #0C527C",
"q#	c #0A4365",
"r#	c #2A4B3A",
"s#	c #45493E",
"t#	c #737373",
"u#	c #949494",
"v#	c #AEB4A6",
"w#	c #246E8D",
"x#	c #106EA7",
"y#	c #127AB8",
"z#	c #137FBD",
"A#	c #1071AC",
"B#	c #237295",
"C#	c #A6B795",
"D#	c #F8EDA6",
"E#	c #ECD37D",
"F#	c #DAC164",
"G#	c #D1B146",
"H#	c #8D9045",
"I#	c #1071AA",
"J#	c #4D7B6D",
"K#	c #AB8B13",
"L#	c #3285A3",
"M#	c #158FD7",
"N#	c #0E5F8D",
"O#	c #0C4D73",
"P#	c #114863",
"Q#	c #374942",
"R#	c #4A4A47",
"S#	c #5F5F5F",
"T#	c #7C7C7C",
"U#	c #798E7A",
"V#	c #246982",
"W#	c #106FA8",
"X#	c #6D8F7B",
"Y#	c #E2D27E",
"Z#	c #E9CC72",
"`#	c #D6B359",
" $	c #8F8F58",
".$	c #22749D",
"+$	c #1175B1",
"@$	c #348097",
"#$	c #578263",
"$$	c #1F82B5",
"%$	c #1587CB",
"&$	c #1379B7",
"*$	c #0F669B",
"=$	c #0D5986",
"-$	c #23515E",
";$	c #44473B",
">$	c #505050",
",$	c #696969",
"'$	c #878787",
")$	c #A4A5A0",
"!$	c #50787A",
"~$	c #0F6395",
"{$	c #0F669A",
"]$	c #287595",
"^$	c #4E8994",
"/$	c #548B95",
"($	c #4D818D",
"_$	c #27769D",
":$	c #1278B6",
"<$	c #137EBD",
"[$	c #1381C2",
"}$	c #1483C4",
"|$	c #137BBC",
"1$	c #1273AD",
"2$	c #0F699E",
"3$	c #0D5C8A",
"4$	c #0C547E",
"5$	c #145276",
"6$	c #3A4949",
"7$	c #484848",
"8$	c #595959",
"9$	c #767676",
"0$	c #91968F",
"a$	c #3F7083",
"b$	c #166288",
"c$	c #0F6498",
"d$	c #116CA2",
"e$	c #1273B0",
"f$	c #1375B2",
"g$	c #1378B4",
"h$	c #1379B6",
"i$	c #137AB8",
"j$	c #1277B4",
"k$	c #0F6497",
"l$	c #0D5581",
"m$	c #0C557F",
"n$	c #10557B",
"o$	c #3F4739",
"p$	c #464645",
"q$	c #686868",
"r$	c #8E8F87",
"s$	c #6A7650",
"t$	c #236578",
"u$	c #0F6294",
"v$	c #0F6598",
"w$	c #0F6A9F",
"x$	c #106BA3",
"y$	c #106BA2",
"z$	c #0E6295",
"A$	c #125470",
"B$	c #1D566F",
"C$	c #3A4844",
"D$	c #454545",
"E$	c #525252",
"F$	c #636363",
"G$	c #7B7B7B",
"H$	c #65745C",
"I$	c #3A6767",
"J$	c #1E5F73",
"K$	c #0D5783",
"L$	c #0D5887",
"M$	c #0E5D8D",
"N$	c #0E6091",
"O$	c #0E6293",
"P$	c #0E5D8C",
"Q$	c #0D5A87",
"R$	c #0C547F",
"S$	c #2C564A",
"T$	c #314C46",
"U$	c #404539",
"V$	c #464646",
"W$	c #626262",
"X$	c #777777",
"Y$	c #707368",
"Z$	c #576560",
"`$	c #4F644E",
" %	c #366143",
".%	c #0B4E76",
"+%	c #0C517B",
"@%	c #0C5481",
"#%	c #0C5480",
"$%	c #1D5560",
"%%	c #35543A",
"&%	c #32484A",
"*%	c #434838",
"=%	c #444442",
"-%	c #4B4B4B",
";%	c #555555",
">%	c #666666",
",%	c #797979",
"'%	c #8F8F8F",
")%	c #6D6D6B",
"!%	c #5D5E5C",
"~%	c #525658",
"{%	c #4C5052",
"]%	c #494D4F",
"^%	c #474B4D",
"/%	c #474A4A",
"(%	c #4A4A48",
"_%	c #575757",
":%	c #616161",
"<%	c #6E6E6E",
"[%	c #828282",
"}%	c #707070",
"|%	c #646464",
"1%	c #606060",
"2%	c #7D7D7D",
"3%	c #8C8C8C",
"4%	c #919191",
"5%	c #888888",
"6%	c #7E7E7E",
"7%	c #898989",
"                                                                ",
"                                                                ",
"                                                                ",
"                  . + @ # $ % & * = - ; >                       ",
"                , ' ) ! ~ { ] ^ / ( _ : < [ }                   ",
"              | 1 2 3 4 5 6 7 8 9 0 a b c d e f g               ",
"          h i j k l m n o p q r s t u v w x y z A B             ",
"          C D E F G H I m J K L M N O P Q R S T U V W X         ",
"        Y Z `  .H ..G +.@.#.$.%.&.*.=.-.;.>.,.'.).!.~.W         ",
"        {.].^./.(._.:.<.[.}.|.1.(.2.3.4.5.6.7.8.9.0.a.b.c.      ",
"      d.e.f.g.h.i.j.@...k.[.<.l.[.m.n.o.p.q.r.s.t.u.v.w.x.y.    ",
"      z.A.B.C.D.E.F.G.H.I.J.K.L.M.N.O.P.Q.R.S.T.U.V.W.X.Y.Z.    ",
"    `. +.+++@+#+$+%+&+*+=+-+;+>+,+'+)+!+~+{+]+^+/+(+_+:+<+[+}+  ",
"    |+1+2+3+4+5+6+7+8+9+0+a+b+c+d+e+f+g+h+i+j+k+l+m+n+o+p+q+r+  ",
"    s+t+u+v+w+x+y+z+; A+B+C+D+E+F+G+H+I+J+K+L+M+N+O+P+Q+R+S+T+  ",
"    U+V+W+X+Y+Z+y+`+ @.@+@@@#@$@%@&@*@=@-@;@>@A.,@'@)@!@~@{@[+  ",
"    ]@^@W+/@(@_@:@<@[@}@|@1@2@3@4@5@6@7@8@9@0@a@b@c@d@e@f@g@h@  ",
"    i@j@k@l@m@n@o@p@q@r@s@t@u@v@w@x@y@z@A@B@C@D@E@F@G@H@I@J@K@  ",
"    L@M@N@O@P@Q@R@S@T@U@V@W@X@Y@Z@`@ #.#+#@###$#%#&#*#=#I@J@-#  ",
"    ;#>#,#'#)#!#Z+~#{#]#^#/#(#_#:#<#u+[#}#|#1#2#3#4#*#5#f@g@6#  ",
"    7#8#z@Z+9#0#a#b#c#d#e#f#g#h#i#j#k#l#C@m#n#o#p#q#r#s#~@t#u#  ",
"      v#w#x#y#z#A#B#C#D#E#F#G#H#I#J#K#L#M#9#>@N#O#P#Q#R#S#T#    ",
"        U#V#t+A.W#y+X#Y#Z#`# $.$+$@$#$$$%$&$*$=$p#-$;$>$,$'$    ",
"        )$!$~${$,@W#]$^$/$($_$:$<$[$}$|$1$2$3$4$5$6$7$8$9$      ",
"          0$a$b$c$d$e.e$f$g$h$i$j$k@9@>@k$l$m$n$o$p$f@q$'$      ",
"            r$s$t$u$v$w$x$t+y$,@N+v$v$z$4$A$B$C$D$E$F$G$        ",
"              K@H$I$J$K$L$M$N$O$P$Q$K$R$S$T$U$V$E$W$X$          ",
"                q+Y$Z$`$ %.%+%@%#%$%%%&%*%=%-%;%>%,%            ",
"                  '%T#)%!%~%{%]%^%/%(%-%>$_%:%<%[%              ",
"                      -#G$}%,$|%1%S#1%F$,${@2%3%                ",
"                          4%5%[%6%2%6%[%7%                      ",
"                                                                "};
