/* XPM */
static char * globe2_12_xpm[] = {
"10 10 72 1",
" 	c None",
".	c #7A1414",
"+	c #97BCBE",
"@	c #AEC2A9",
"#	c #BBBB74",
"$	c #BDAA4B",
"%	c #90502A",
"&	c #9F1A1A",
"*	c #9E1A1A",
"=	c #7CAAB3",
"-	c #C4D6C3",
";	c #EEF0CD",
">	c #E3E2B6",
",	c #C7B47E",
"'	c #7D3626",
")	c #A61B1B",
"!	c #B21E1E",
"~	c #5C96A9",
"{	c #BBCAAA",
"]	c #E7E9B5",
"^	c #F4F0B9",
"/	c #E5D696",
"(	c #A06843",
"_	c #931B1A",
":	c #931C1C",
"<	c #227CAE",
"[	c #478DA4",
"}	c #B0BC86",
"|	c #D9CC78",
"1	c #D0AD65",
"2	c #9D3F2B",
"3	c #A31C1B",
"4	c #7C2D2D",
"5	c #867A7A",
"6	c #2776A4",
"7	c #397092",
"8	c #B2AF83",
"9	c #D1B162",
"0	c #9E3D26",
"a	c #A01C1E",
"b	c #732732",
"c	c #42424A",
"d	c #747677",
"e	c #584A59",
"f	c #632226",
"g	c #975C3E",
"h	c #9D4B2E",
"i	c #9E1C1D",
"j	c #712F3D",
"k	c #2E4560",
"l	c #3F5258",
"m	c #777877",
"n	c #8A1D1D",
"o	c #A21919",
"p	c #941B1A",
"q	c #9A1A1B",
"r	c #712E3D",
"s	c #2E4D6C",
"t	c #2D5267",
"u	c #5A6062",
"v	c #9F1919",
"w	c #AE1C1C",
"x	c #931F1F",
"y	c #7D2628",
"z	c #553C49",
"A	c #5B3F49",
"B	c #704346",
"C	c #934140",
"D	c #766666",
"E	c #8A4849",
"F	c #8F4545",
"G	c #A63231",
"       .  ",
"  +@#$%&* ",
" =-;>,')! ",
" ~{]^/(_: ",
" <[}|12345",
" 67890abcd",
" efghijklm",
" nopqrstu ",
" vwxyzABC ",
"    DEFG  "};
