/* XPM */
static char * globe2_22_xpm[] = {
"22 22 334 2",
"  	c None",
". 	c #6D1212",
"+ 	c #6F1212",
"@ 	c #721313",
"# 	c #A2C5D3",
"$ 	c #81B0BE",
"% 	c #A0AF81",
"& 	c #AAB160",
"* 	c #BDB74F",
"= 	c #C1B747",
"- 	c #CBBF47",
"; 	c #C3B763",
"> 	c #8C513C",
", 	c #761313",
"' 	c #921717",
") 	c #9C1919",
"! 	c #7E1515",
"~ 	c #73A8B9",
"{ 	c #69A2B1",
"] 	c #B0BB96",
"^ 	c #ADB179",
"/ 	c #B3B06A",
"( 	c #C4B863",
"_ 	c #CBBE53",
": 	c #C2B238",
"< 	c #A17F25",
"[ 	c #742816",
"} 	c #891616",
"| 	c #BE1E1E",
"1 	c #D52424",
"2 	c #B11E1E",
"3 	c #801515",
"4 	c #609BB5",
"5 	c #8EB0A9",
"6 	c #DDE2BE",
"7 	c #F8F6D1",
"8 	c #EFEEC6",
"9 	c #BEC18F",
"0 	c #B3B27F",
"a 	c #C2B46F",
"b 	c #B8985B",
"c 	c #642A1A",
"d 	c #621211",
"e 	c #8E1616",
"f 	c #C01F1F",
"g 	c #E72929",
"h 	c #E52929",
"i 	c #A41B1B",
"j 	c #6E9EAB",
"k 	c #98BABA",
"l 	c #F3F4D3",
"m 	c #FDFDDE",
"n 	c #FDFDDF",
"o 	c #FDFCD8",
"p 	c #F4F3C5",
"q 	c #EBEBC4",
"r 	c #D9D7A3",
"s 	c #CAB578",
"t 	c #632B21",
"u 	c #550F0F",
"v 	c #7E1414",
"w 	c #B01C1C",
"x 	c #CD2222",
"y 	c #CF2222",
"z 	c #A21A1A",
"A 	c #681212",
"B 	c #4C90AB",
"C 	c #DBE1BF",
"D 	c #FCFBDD",
"E 	c #FDFDDD",
"F 	c #FDFDD6",
"G 	c #FDFDDB",
"H 	c #FDFBCC",
"I 	c #FDFCD7",
"J 	c #F8F7D2",
"K 	c #E1D691",
"L 	c #A07D52",
"M 	c #591C17",
"N 	c #6E1313",
"O 	c #A31A1A",
"P 	c #B51E1E",
"Q 	c #B41C1C",
"R 	c #691616",
"S 	c #4A8EAE",
"T 	c #3D87A6",
"U 	c #CECE91",
"V 	c #EDE7A1",
"W 	c #F5F2BB",
"X 	c #FAF9CE",
"Y 	c #FCFBD8",
"Z 	c #FDFCD1",
"` 	c #FDFCD5",
" .	c #FCFAC8",
"..	c #DED68D",
"+.	c #D1BE72",
"@.	c #9E714D",
"#.	c #711816",
"$.	c #931818",
"%.	c #A31B1B",
"&.	c #A51A1A",
"*.	c #861717",
"=.	c #7B4040",
"-.	c #2C7DA9",
";.	c #2278A8",
">.	c #6A9999",
",.	c #A8B489",
"'.	c #C3C78B",
").	c #DCDE95",
"!.	c #DFE097",
"~.	c #E9E299",
"{.	c #F4E9A2",
"].	c #F8E9A0",
"^.	c #E7D283",
"/.	c #CAB467",
"(.	c #A16B48",
"_.	c #831918",
":.	c #981818",
"<.	c #9F1A1A",
"[.	c #6F1919",
"}.	c #8F7979",
"|.	c #83A6B0",
"1.	c #1F75A6",
"2.	c #1275B2",
"3.	c #1274AF",
"4.	c #1472A9",
"5.	c #548C93",
"6.	c #C5C578",
"7.	c #C3C96E",
"8.	c #C9C76C",
"9.	c #D3C56B",
"0.	c #E2C973",
"a.	c #DEC26D",
"b.	c #A87443",
"c.	c #801F18",
"d.	c #9B1818",
"e.	c #B21D1D",
"f.	c #B41E1E",
"g.	c #811919",
"h.	c #643231",
"i.	c #8B8686",
"j.	c #6093B3",
"k.	c #156FA5",
"l.	c #137DBD",
"m.	c #1381C2",
"n.	c #1073AE",
"o.	c #518994",
"p.	c #D0C57B",
"q.	c #DACB76",
"r.	c #DBC871",
"s.	c #D8C26A",
"t.	c #D7BD66",
"u.	c #BE9351",
"v.	c #862D20",
"w.	c #931717",
"x.	c #A91B1B",
"y.	c #B91E1E",
"z.	c #A11C1B",
"A.	c #622321",
"B.	c #574A4B",
"C.	c #818080",
"D.	c #6E97A6",
"E.	c #196D9C",
"F.	c #1382C1",
"G.	c #1692D7",
"H.	c #157AB7",
"I.	c #317DA1",
"J.	c #C6C899",
"K.	c #EDD684",
"L.	c #E7CD75",
"M.	c #D9BE65",
"N.	c #B78544",
"O.	c #8B3420",
"P.	c #931817",
"Q.	c #AA1B1B",
"R.	c #B71D1D",
"S.	c #A41C1D",
"T.	c #66222A",
"U.	c #253646",
"V.	c #444E53",
"W.	c #787878",
"X.	c #9DAE9C",
"Y.	c #267398",
"Z.	c #127BB8",
"`.	c #2174A8",
" +	c #2D4D70",
".+	c #586F76",
"++	c #E2D795",
"@+	c #EFDD8A",
"#+	c #DDC76A",
"$+	c #C29D4D",
"%+	c #994024",
"&+	c #901B18",
"*+	c #A61A1A",
"=+	c #A11B1C",
"-+	c #73242D",
";+	c #313851",
">+	c #1D4046",
",+	c #4A514C",
"'+	c #767676",
")+	c #C1C5BD",
"!+	c #447E94",
"~+	c #1E679B",
"{+	c #433043",
"]+	c #4D1316",
"^+	c #542320",
"/+	c #B08D5C",
"(+	c #E5D17F",
"_+	c #BC9751",
":+	c #944124",
"<+	c #921917",
"[+	c #9F1919",
"}+	c #B81D1D",
"|+	c #991A1B",
"1+	c #67262E",
"2+	c #30496A",
"3+	c #104668",
"4+	c #264347",
"5+	c #515350",
"6+	c #7B7B7B",
"7+	c #798581",
"8+	c #423448",
"9+	c #631415",
"0+	c #621010",
"a+	c #581110",
"b+	c #733628",
"c+	c #AE8051",
"d+	c #7E3623",
"e+	c #851816",
"f+	c #B91D1D",
"g+	c #9C1A1B",
"h+	c #66252F",
"i+	c #304F70",
"j+	c #105984",
"k+	c #124863",
"l+	c #3B4A40",
"m+	c #595957",
"n+	c #7E7E7E",
"o+	c #651F1F",
"p+	c #711717",
"q+	c #891515",
"r+	c #851414",
"s+	c #811515",
"t+	c #801717",
"u+	c #7A1B18",
"v+	c #841616",
"w+	c #9D1919",
"x+	c #B81E1E",
"y+	c #A21B1C",
"z+	c #602834",
"A+	c #2D547D",
"B+	c #126193",
"C+	c #0D5580",
"D+	c #244E5D",
"E+	c #494C46",
"F+	c #656565",
"G+	c #858585",
"H+	c #991818",
"I+	c #AD1B1B",
"J+	c #AA1A1A",
"K+	c #A91A1A",
"L+	c #9B1919",
"M+	c #B61E1E",
"N+	c #A21D1F",
"O+	c #652631",
"P+	c #255781",
"Q+	c #106395",
"R+	c #0D5884",
"S+	c #1C506A",
"T+	c #3D494B",
"U+	c #565656",
"V+	c #777777",
"W+	c #601111",
"X+	c #871616",
"Y+	c #B41D1D",
"Z+	c #C51F1F",
"`+	c #C61F1F",
" @	c #BD1E1E",
".@	c #A61B1B",
"+@	c #A91D1E",
"@@	c #A21C1D",
"#@	c #5E2A39",
"$@	c #284B6E",
"%@	c #145D8A",
"&@	c #145574",
"*@	c #245267",
"=@	c #404849",
"-@	c #525151",
";@	c #6C6A6A",
">@	c #781313",
",@	c #981919",
"'@	c #BD1D1D",
")@	c #CE2121",
"!@	c #C61F20",
"~@	c #881918",
"{@	c #771D21",
"]@	c #791D22",
"^@	c #3C3F57",
"/@	c #30556A",
"(@	c #583D47",
"_@	c #414740",
":@	c #6A413D",
"<@	c #784646",
"[@	c #745F5E",
"}@	c #A74241",
"|@	c #741313",
"1@	c #8F1616",
"2@	c #A81C1C",
"3@	c #821B1B",
"4@	c #642424",
"5@	c #5C3437",
"6@	c #652729",
"7@	c #51353A",
"8@	c #80403E",
"9@	c #8B2322",
"0@	c #663D3B",
"a@	c #932D2D",
"b@	c #963838",
"c@	c #904848",
"d@	c #B11818",
"e@	c #7D1414",
"f@	c #7C1414",
"g@	c #6F3030",
"h@	c #756464",
"i@	c #797474",
"j@	c #6C6161",
"k@	c #824343",
"l@	c #9F4040",
"m@	c #944B4B",
"n@	c #993232",
"o@	c #A13A3A",
"p@	c #A43433",
"q@	c #AF2828",
"r@	c #AF2C2B",
"s@	c #AE1E1D",
"                                            ",
"                              . + @         ",
"            # $ % & * = - ; > , ' ) !       ",
"          ~ { ] ^ / ( _ : < [ } | 1 2 3     ",
"        4 5 6 7 8 9 0 a b c d e f g h i +   ",
"      j k l m n o p q r s t u v w x y z A   ",
"      B C D E F G H I J K L M N O P Q ' R   ",
"    S T U V W X Y Z `  ...+.@.#.$.%.&.*.=.  ",
"    -.;.>.,.'.).!.~.{.].^./.(._.:.<.$.[.}.  ",
"  |.1.2.3.4.5.6.7.8.9.0.a.b.c.d.e.f.g.h.i.  ",
"  j.k.l.m.n.o.p.q.r.s.t.u.v.w.x.y.z.A.B.C.  ",
"  D.E.F.G.H.I.J.K.L.M.N.O.P.Q.R.S.T.U.V.W.  ",
"  X.Y.Z.`. +.+++@+#+$+%+&+*+Q =+-+;+>+,+'+  ",
"  )+!+~+{+]+^+/+(+_+:+<+[+}+|+1+2+3+4+5+6+  ",
"    7+8+9+0+a+b+c+d+e+&.f+g+h+i+j+k+l+m+n+  ",
"    o+p+q+r+s+t+u+v+w+x+y+z+A+B+C+D+E+F+G+  ",
"    @ H+I+J+K+L+e z M+N+O+P+Q+R+S+T+U+V+    ",
"  W+X+Y+Z+`+ @.@<.+@@@#@$@%@&@*@=@-@;@      ",
"    >@,@'@)@!@i ~@{@]@^@/@(@_@:@<@[@}@      ",
"      |@1@J+2@3@4@5@6@7@8@9@0@a@b@c@d@      ",
"          e@f@g@h@i@j@k@l@m@n@o@p@q@r@s@    ",
"                                            "};
