/* XPM */
static char * globe_22_xpm[] = {
"22 22 304 2",
"  	c None",
". 	c #A2C5D3",
"+ 	c #81B0BE",
"@ 	c #A0AF81",
"# 	c #AAB160",
"$ 	c #BDB74F",
"% 	c #C1B747",
"& 	c #CBBF47",
"* 	c #C9C267",
"= 	c #C5BF75",
"- 	c #73A8B9",
"; 	c #69A2B1",
"> 	c #B0BB96",
", 	c #ADB179",
"' 	c #B3B06A",
") 	c #C4B863",
"! 	c #CBBE53",
"~ 	c #C5B63A",
"{ 	c #CCBB38",
"] 	c #CBBA3F",
"^ 	c #C2B161",
"/ 	c #B8B29C",
"( 	c #609BB5",
"_ 	c #8EB0A9",
": 	c #DDE2BE",
"< 	c #F8F6D1",
"[ 	c #EFEEC6",
"} 	c #BEC18F",
"| 	c #B3B27F",
"1 	c #C2B46F",
"2 	c #D1BB6F",
"3 	c #D9C268",
"4 	c #D9C466",
"5 	c #DBC255",
"6 	c #D1B455",
"7 	c #B2A990",
"8 	c #6E9EAB",
"9 	c #98BABA",
"0 	c #F3F4D3",
"a 	c #FDFDDE",
"b 	c #FDFDDF",
"c 	c #FDFCD8",
"d 	c #F4F3C5",
"e 	c #EBEBC4",
"f 	c #D9D7A3",
"g 	c #DED189",
"h 	c #F7EC9E",
"i 	c #E7D887",
"j 	c #DAC564",
"k 	c #E0BB36",
"l 	c #BCA351",
"m 	c #A8A69E",
"n 	c #4C90AB",
"o 	c #DBE1BF",
"p 	c #FCFBDD",
"q 	c #FDFDDD",
"r 	c #FDFDD6",
"s 	c #FDFDDB",
"t 	c #FDFBCC",
"u 	c #FDFCD7",
"v 	c #F8F7D2",
"w 	c #E3DA93",
"x 	c #F1E99A",
"y 	c #EFE492",
"z 	c #DAC261",
"A 	c #DAB52E",
"B 	c #C8A428",
"C 	c #A09369",
"D 	c #A2A19F",
"E 	c #4A8EAE",
"F 	c #3D87A6",
"G 	c #CECE91",
"H 	c #EDE7A1",
"I 	c #F5F2BB",
"J 	c #FAF9CE",
"K 	c #FCFBD8",
"L 	c #FDFCD1",
"M 	c #FDFCD5",
"N 	c #FCFAC8",
"O 	c #DED68D",
"P 	c #DDCE7C",
"Q 	c #F6ED98",
"R 	c #DBC663",
"S 	c #B49F32",
"T 	c #BE9B16",
"U 	c #A48C34",
"V 	c #8F8C83",
"W 	c #ADADAD",
"X 	c #2C7DA9",
"Y 	c #2278A8",
"Z 	c #6A9999",
"` 	c #A8B489",
" .	c #C3C78B",
"..	c #DCDE95",
"+.	c #DFE097",
"@.	c #E9E299",
"#.	c #F4E9A2",
"$.	c #F8E9A0",
"%.	c #E7D283",
"&.	c #D4C26F",
"*.	c #EADE8C",
"=.	c #BCB467",
"-.	c #4A746C",
";.	c #717C3C",
">.	c #A48716",
",.	c #807B66",
"'.	c #9F9F9F",
").	c #83A6B0",
"!.	c #1F75A6",
"~.	c #1275B2",
"{.	c #1274AF",
"].	c #1472A9",
"^.	c #548C93",
"/.	c #C5C578",
"(.	c #C3C96E",
"_.	c #C9C76C",
":.	c #D3C56B",
"<.	c #E2C973",
"[.	c #E3C970",
"}.	c #DBC36B",
"|.	c #9AA46A",
"1.	c #206C93",
"2.	c #106699",
"3.	c #476F57",
"4.	c #877C18",
"5.	c #64685A",
"6.	c #8D8D8D",
"7.	c #6093B3",
"8.	c #156FA5",
"9.	c #137DBD",
"0.	c #1381C2",
"a.	c #1073AE",
"b.	c #518994",
"c.	c #D0C57B",
"d.	c #DACB76",
"e.	c #DBC871",
"f.	c #D8C26A",
"g.	c #DAC268",
"h.	c #E1C769",
"i.	c #D5BB5D",
"j.	c #769676",
"k.	c #1770A0",
"l.	c #106CA3",
"m.	c #326666",
"n.	c #586933",
"o.	c #4F5A5C",
"p.	c #818181",
"q.	c #6E97A6",
"r.	c #196D9C",
"s.	c #1382C1",
"t.	c #1594DA",
"u.	c #1280C1",
"v.	c #307EA3",
"w.	c #C6C899",
"x.	c #EDD684",
"y.	c #E7CD75",
"z.	c #DAC066",
"A.	c #D1B357",
"B.	c #A59D54",
"C.	c #38798C",
"D.	c #1875A8",
"E.	c #137DBB",
"F.	c #1175AF",
"G.	c #105B87",
"H.	c #124458",
"I.	c #434F54",
"J.	c #787878",
"K.	c #9DAE9C",
"L.	c #267398",
"M.	c #127CBA",
"N.	c #1691D5",
"O.	c #1388CD",
"P.	c #56919F",
"Q.	c #E3D996",
"R.	c #EFDD8A",
"S.	c #DFC96B",
"T.	c #D3BC59",
"U.	c #C3AD4D",
"V.	c #4C8182",
"W.	c #126FA6",
"X.	c #1277B1",
"Y.	c #148ACA",
"Z.	c #127FBE",
"`.	c #0D5581",
" +	c #1A4149",
".+	c #4A514C",
"++	c #767676",
"@+	c #C1C5BD",
"#+	c #447F95",
"$+	c #117AB9",
"%+	c #158CD3",
"&+	c #1282C5",
"*+	c #598F96",
"=+	c #E5D689",
"-+	c #EDDC86",
";+	c #D9C564",
">+	c #CEB945",
",+	c #A09E4C",
"'+	c #437E87",
")+	c #477B76",
"!+	c #1483BC",
"~+	c #1588B6",
"{+	c #1170A6",
"]+	c #0C4A6D",
"^+	c #264347",
"/+	c #515350",
"(+	c #7B7B7B",
"_+	c #789796",
":+	c #1571A4",
"<+	c #137FC0",
"[+	c #127BBA",
"}+	c #3C8095",
"|+	c #D4D397",
"1+	c #EFDB87",
"2+	c #D7BE5C",
"3+	c #B4A641",
"4+	c #3F7B7F",
"5+	c #76824B",
"6+	c #518883",
"7+	c #158CCF",
"8+	c #1377A8",
"9+	c #0E5B87",
"0+	c #124863",
"a+	c #3B4A40",
"b+	c #595957",
"c+	c #7E7E7E",
"d+	c #4B7B84",
"e+	c #136DA0",
"f+	c #106FA8",
"g+	c #1D74A2",
"h+	c #92A885",
"i+	c #CBC17C",
"j+	c #A7A164",
"k+	c #487F86",
"l+	c #1B79AB",
"m+	c #47827D",
"n+	c #2082B4",
"o+	c #0F6599",
"p+	c #0D5580",
"q+	c #244E5D",
"r+	c #494C46",
"s+	c #656565",
"t+	c #858585",
"u+	c #7F8F8C",
"v+	c #2C6C8C",
"w+	c #116697",
"x+	c #126DA3",
"y+	c #2578A1",
"z+	c #327FA3",
"A+	c #297BA4",
"B+	c #1679B3",
"C+	c #127AB8",
"D+	c #137BB9",
"E+	c #1273AE",
"F+	c #0F6498",
"G+	c #0D5984",
"H+	c #1C506A",
"I+	c #3D494B",
"J+	c #565656",
"K+	c #777777",
"L+	c #77847E",
"M+	c #436E6E",
"N+	c #18658D",
"O+	c #10689A",
"P+	c #106AA1",
"Q+	c #106CA4",
"R+	c #106DA4",
"S+	c #10689D",
"T+	c #0F669A",
"U+	c #0F6090",
"V+	c #135574",
"W+	c #215266",
"X+	c #3D4949",
"Y+	c #525251",
"Z+	c #6B6B6B",
"`+	c #7B8178",
" @	c #556E69",
".@	c #315F6B",
"+@	c #215C6B",
"@@	c #0D5885",
"#@	c #0D5B8A",
"$@	c #0F5981",
"%@	c #1B566A",
"&@	c #234F5E",
"*@	c #384C43",
"=@	c #454943",
"-@	c #545454",
";@	c #696969",
">@	c #848582",
",@	c #6D726E",
"'@	c #59635C",
")@	c #415460",
"!@	c #3C515D",
"~@	c #3B4E58",
"{@	c #434E4A",
"]@	c #484D4C",
"^@	c #515250",
"/@	c #5E5E5E",
"(@	c #727272",
"_@	c #7F7F7F",
":@	c #797979",
"<@	c #717171",
"[@	c #707070",
"}@	c #747474",
"                                            ",
"                                            ",
"            . + @ # $ % & * =               ",
"          - ; > , ' ) ! ~ { ] ^ /           ",
"        ( _ : < [ } | 1 2 3 4 5 6 7         ",
"      8 9 0 a b c d e f g h i j k l m       ",
"      n o p q r s t u v w x y z A B C D     ",
"    E F G H I J K L M N O P Q R S T U V W   ",
"    X Y Z `  ...+.@.#.$.%.&.*.=.-.;.>.,.'.  ",
"  ).!.~.{.].^./.(._.:.<.[.}.|.1.2.3.4.5.6.  ",
"  7.8.9.0.a.b.c.d.e.f.g.h.i.j.k.l.m.n.o.p.  ",
"  q.r.s.t.u.v.w.x.y.z.A.B.C.D.E.F.G.H.I.J.  ",
"  K.L.M.N.O.P.Q.R.S.T.U.V.W.X.Y.Z.`. +.+++  ",
"  @+#+$+%+&+*+=+-+;+>+,+'+)+!+~+{+]+^+/+(+  ",
"    _+:+<+[+}+|+1+2+3+4+5+6+7+8+9+0+a+b+c+  ",
"      d+e+f+g+h+i+j+k+l+m+n+9.o+p+q+r+s+t+  ",
"      u+v+w+x+y+z+A+B+C+D+E+F+G+H+I+J+K+    ",
"        L+M+N+O+P+Q+R+S+T+U+V+W+X+Y+Z+      ",
"          `+ @.@+@@@#@$@%@&@*@=@-@;@        ",
"            >@,@'@)@!@~@{@]@^@/@(@          ",
"                _@:@<@Z+Z+[@}@c+            ",
"                                            "};
