/* XPM */
static char * globe_24_xpm[] = {
"22 22 309 2",
"  	c None",
". 	c #97BFCD",
"+ 	c #8AB5C0",
"@ 	c #A1B082",
"# 	c #A9AF62",
"$ 	c #BCB651",
"% 	c #C1B649",
"& 	c #CABD4B",
"* 	c #C9C068",
"= 	c #C8C182",
"- 	c #77A9B7",
"; 	c #89B2B2",
"> 	c #A7BCA3",
", 	c #B7BC83",
"' 	c #B7B56D",
") 	c #C0B863",
"! 	c #C9BD52",
"~ 	c #CBBC40",
"{ 	c #CCBC3B",
"] 	c #CABB4C",
"^ 	c #C8B75C",
"/ 	c #7DABB9",
"( 	c #95B8B2",
"_ 	c #CAD9BF",
": 	c #ECEBC6",
"< 	c #E2E1B7",
"[ 	c #C4C595",
"} 	c #BFBC86",
"| 	c #C3B76F",
"1 	c #CEB968",
"2 	c #D9C368",
"3 	c #DAC562",
"4 	c #D5BD54",
"5 	c #CCB563",
"6 	c #B8AA7E",
"7 	c #77A5B1",
"8 	c #9CBDBB",
"9 	c #DDE6CD",
"0 	c #F9F9D9",
"a 	c #FDFCDC",
"b 	c #FBFAD4",
"c 	c #EEEDC0",
"d 	c #E5E5BC",
"e 	c #DAD6A2",
"f 	c #DFD28A",
"g 	c #EEE192",
"h 	c #E7D783",
"i 	c #DCC560",
"j 	c #D8B842",
"k 	c #BCA657",
"l 	c #ACA692",
"m 	c #649CAC",
"n 	c #C2D2B8",
"o 	c #F8F6D2",
"p 	c #FDFCDA",
"q 	c #FDFDDA",
"r 	c #FDFDDB",
"s 	c #FDFCD2",
"t 	c #FDFDD8",
"u 	c #F7F5CD",
"v 	c #E6DE97",
"w 	c #ECE292",
"x 	c #EEE28E",
"y 	c #DCC45F",
"z 	c #D6B333",
"A 	c #C5A42F",
"B 	c #A49564",
"C 	c #A09D94",
"D 	c #3C87AD",
"E 	c #4E8FA4",
"F 	c #BBC79C",
"G 	c #ECE6A8",
"H 	c #F5F2BB",
"I 	c #F9F8CA",
"J 	c #FCFBD2",
"K 	c #FDFBCE",
"L 	c #FDFCD3",
"M 	c #FAF8C6",
"N 	c #E2D890",
"O 	c #DED080",
"P 	c #F3E993",
"Q 	c #DCC866",
"R 	c #BBA436",
"S 	c #B6991F",
"T 	c #A38C3A",
"U 	c #979284",
"V 	c #A3A3A3",
"W 	c #9AB6B5",
"X 	c #3D86AB",
"Y 	c #287BA7",
"Z 	c #61969C",
"` 	c #95AE92",
" .	c #B9C491",
"..	c #D5D895",
"+.	c #DCDE95",
"@.	c #E4E096",
"#.	c #EFE59D",
"$.	c #F4E49B",
"%.	c #E4D080",
"&.	c #D5C370",
"*.	c #D9D182",
"=.	c #A3A96F",
"-.	c #5C7D67",
";.	c #727D3E",
">.	c #968321",
",.	c #847F67",
"'.	c #9C9C9C",
").	c #78A1B0",
"!.	c #2D7DA9",
"~.	c #1375B0",
"{.	c #1B78AE",
"].	c #2B7CA4",
"^.	c #6B9890",
"/.	c #B7C07E",
"(.	c #C7CA72",
"_.	c #CDC970",
":.	c #D7C971",
"<.	c #E5CD77",
"[.	c #E3CA72",
"}.	c #D8C36E",
"|.	c #9DA974",
"1.	c #3F7B89",
"2.	c #1E698C",
"3.	c #527350",
"4.	c #73752A",
"5.	c #6D6E5C",
"6.	c #8C8C8C",
"7.	c #588FB0",
"8.	c #2076A9",
"9.	c #127CBA",
"0.	c #127FC0",
"a.	c #1877AD",
"b.	c #5E9093",
"c.	c #BCBC7F",
"d.	c #D9CA76",
"e.	c #DAC870",
"f.	c #D8C36A",
"g.	c #DAC168",
"h.	c #E0C568",
"i.	c #CDB860",
"j.	c #739478",
"k.	c #20739B",
"l.	c #146B9B",
"m.	c #3C6B60",
"n.	c #476344",
"o.	c #59605A",
"p.	c #7F7F7F",
"q.	c #6492A5",
"r.	c #2575A1",
"s.	c #1382C2",
"t.	c #1591D7",
"u.	c #1582C1",
"v.	c #4689A3",
"w.	c #B5C099",
"x.	c #E9D484",
"y.	c #E7CD75",
"z.	c #DAC166",
"A.	c #CEB257",
"B.	c #9C9A5B",
"C.	c #417C87",
"D.	c #1976A8",
"E.	c #137BB8",
"F.	c #1172AC",
"G.	c #115B83",
"H.	c #12475D",
"I.	c #475358",
"J.	c #767676",
"K.	c #91A79D",
"L.	c #387C9B",
"M.	c #127EBC",
"N.	c #158FD3",
"O.	c #1B8AC7",
"P.	c #6298A0",
"Q.	c #CDCE98",
"R.	c #EBD986",
"S.	c #DFCA6C",
"T.	c #D3BD59",
"U.	c #BDAB4F",
"V.	c #51837F",
"W.	c #1871A1",
"X.	c #1279B4",
"Y.	c #1487C6",
"Z.	c #127AB5",
"`.	c #0C5480",
" +	c #1C464F",
".+	c #4B5352",
"++	c #757575",
"@+	c #A7B5AD",
"#+	c #52899D",
"$+	c #127BBA",
"%+	c #1489CE",
"&+	c #1B85C1",
"*+	c #669899",
"=+	c #CFCD8E",
"-+	c #EAD883",
";+	c #DBC766",
">+	c #CCB849",
",+	c #9B9C52",
"'+	c #4D807C",
")+	c #3A7A86",
"!+	c #1381BA",
"~+	c #1486BA",
"{+	c #116FA1",
"]+	c #0E4C6F",
"^+	c #29464A",
"/+	c #525654",
"(+	c #787878",
"_+	c #6E9396",
":+	c #1E75A4",
"<+	c #137CB9",
"[+	c #167AB4",
"}+	c #4C8A98",
"|+	c #BDC594",
"1+	c #E7D380",
"2+	c #D5BD5F",
"3+	c #A8A34D",
"4+	c #457D7B",
"5+	c #628061",
"6+	c #57877B",
"7+	c #1587C6",
"8+	c #1378AB",
"9+	c #0F5D87",
"0+	c #194B5F",
"a+	c #384A47",
"b+	c #5C5E5C",
"c+	c #7D7D7D",
"d+	c #487D8F",
"e+	c #186F9E",
"f+	c #116FA7",
"g+	c #2C7A9D",
"h+	c #84A592",
"i+	c #B3B680",
"j+	c #9CA06D",
"k+	c #548580",
"l+	c #1D7AA9",
"m+	c #428286",
"n+	c #2981A9",
"o+	c #137BB9",
"p+	c #0F689B",
"q+	c #11567D",
"r+	c #264C5C",
"s+	c #454D4D",
"t+	c #666766",
"u+	c #7C7C7C",
"v+	c #68878D",
"w+	c #3A738B",
"x+	c #1A6A94",
"y+	c #176E9D",
"z+	c #307C9D",
"A+	c #42859C",
"B+	c #387E9B",
"C+	c #1C78AB",
"D+	c #1378B3",
"E+	c #1878AD",
"F+	c #1472AA",
"G+	c #106598",
"H+	c #105A84",
"I+	c #215168",
"J+	c #3D4C51",
"K+	c #565757",
"L+	c #647D7D",
"M+	c #45707A",
"N+	c #206788",
"O+	c #136796",
"P+	c #10699F",
"Q+	c #106BA2",
"R+	c #106DA4",
"S+	c #10689D",
"T+	c #0F6699",
"U+	c #11608D",
"V+	c #19566F",
"W+	c #245061",
"X+	c #3B4C51",
"Y+	c #545553",
"Z+	c #686868",
"`+	c #697973",
" @	c #506E71",
".@	c #37636E",
"+@	c #225E70",
"@@	c #105A83",
"#@	c #0E5C8B",
"$@	c #115A82",
"%@	c #1C586B",
"&@	c #245160",
"*@	c #364C4A",
"=@	c #404B4C",
"-@	c #535656",
";@	c #717171",
">@	c #797E7C",
",@	c #6E7574",
"'@	c #586565",
")@	c #465963",
"!@	c #405561",
"~@	c #3E515B",
"{@	c #445152",
"]@	c #4A5151",
"^@	c #555755",
"/@	c #616261",
"(@	c #727272",
"_@	c #797979",
":@	c #787978",
"<@	c #767777",
"[@	c #6F6F6F",
"}@	c #696A6A",
"|@	c #696969",
"1@	c #6E6E6E",
"2@	c #737373",
"3@	c #7B7B7B",
"4@	c #848484",
"                                            ",
"                                            ",
"            . + @ # $ % & * =               ",
"          - ; > , ' ) ! ~ { ] ^             ",
"        / ( _ : < [ } | 1 2 3 4 5 6         ",
"      7 8 9 0 a b c d e f g h i j k l       ",
"      m n o p q r s t u v w x y z A B C     ",
"    D E F G H I J K L M N O P Q R S T U V   ",
"  W X Y Z `  ...+.@.#.$.%.&.*.=.-.;.>.,.'.  ",
"  ).!.~.{.].^./.(._.:.<.[.}.|.1.2.3.4.5.6.  ",
"  7.8.9.0.a.b.c.d.e.f.g.h.i.j.k.l.m.n.o.p.  ",
"  q.r.s.t.u.v.w.x.y.z.A.B.C.D.E.F.G.H.I.J.  ",
"  K.L.M.N.O.P.Q.R.S.T.U.V.W.X.Y.Z.`. +.+++  ",
"  @+#+$+%+&+*+=+-+;+>+,+'+)+!+~+{+]+^+/+(+  ",
"    _+:+<+[+}+|+1+2+3+4+5+6+7+8+9+0+a+b+c+  ",
"      d+e+f+g+h+i+j+k+l+m+n+o+p+q+r+s+t+u+  ",
"      v+w+x+y+z+A+B+C+D+E+F+G+H+I+J+K+++    ",
"        L+M+N+O+P+Q+R+S+T+U+V+W+X+Y+Z+u+    ",
"          `+ @.@+@@@#@$@%@&@*@=@-@Z+;@      ",
"            >@,@'@)@!@~@{@]@^@/@(@_@        ",
"                :@<@[@}@|@1@2@3@4@          ",
"                                            "};
