/* XPM */
static char * globe_12_xpm[] = {
"10 10 67 1",
" 	c None",
".	c #97BCBE",
"+	c #AEC2A9",
"@	c #BBBB74",
"#	c #C9BC53",
"$	c #D0C15A",
"%	c #7CAAB3",
"&	c #C4D6C3",
"*	c #EEF0CD",
"=	c #E3E2B6",
"-	c #DDD28F",
";	c #E2CF74",
">	c #CCB457",
",	c #AFA070",
"'	c #5C96A9",
")	c #BBCAAA",
"!	c #E7E9B5",
"~	c #F4F0B9",
"{	c #EEE29E",
"]	c #D8CC7B",
"^	c #ABA24D",
"/	c #958C58",
"(	c #227CAE",
"_	c #478DA4",
":	c #B0BC86",
"<	c #D9CC78",
"[	c #DEC873",
"}	c #99A678",
"|	c #437775",
"1	c #5C6D54",
"2	c #858681",
"3	c #2281B5",
"4	c #308EBB",
"5	c #B4BF93",
"6	c #DCC66A",
"7	c #8D9867",
"8	c #227BA5",
"9	c #116DA0",
"0	c #2D5262",
"a	c #747777",
"b	c #3D84A6",
"c	c #2E84AC",
"d	c #A4B68E",
"e	c #B5B166",
"f	c #52857E",
"g	c #267DA2",
"h	c #15628A",
"i	c #3E535A",
"j	c #777877",
"k	c #55828F",
"l	c #307291",
"m	c #488493",
"n	c #428090",
"o	c #1E729C",
"p	c #196892",
"q	c #2A556B",
"r	c #596062",
"s	c #59767D",
"t	c #436B79",
"u	c #295F7E",
"v	c #295970",
"w	c #3A5660",
"x	c #575F62",
"y	c #6B6C6B",
"z	c #6D7478",
"A	c #696E6F",
"B	c #6E706F",
"          ",
"  .+@#$   ",
" %&*=-;>, ",
" ')!~{]^/ ",
" (_:<[}|12",
" 34567890a",
" bcdefghij",
" klmnopqr ",
"  stuvwxy ",
"    zAB   "};
