/* XPM */
static char * globe2_24_xpm[] = {
"22 22 337 2",
"  	c None",
". 	c #6F1212",
"+ 	c #721212",
"@ 	c #741313",
"# 	c #97BFCD",
"$ 	c #8AB5C0",
"% 	c #A1B082",
"& 	c #A9AF62",
"* 	c #BCB651",
"= 	c #C1B649",
"- 	c #CABC4B",
"; 	c #BDAB5D",
"> 	c #915743",
", 	c #771413",
"' 	c #8E1616",
") 	c #971919",
"! 	c #821616",
"~ 	c #77A9B7",
"{ 	c #89B2B2",
"] 	c #A7BCA3",
"^ 	c #B7BC83",
"/ 	c #B7B56D",
"( 	c #C0B863",
"_ 	c #C9BD52",
": 	c #C2AF3B",
"< 	c #9F7B24",
"[ 	c #782C16",
"} 	c #8A1716",
"| 	c #B91E1E",
"1 	c #D02323",
"2 	c #B41F1F",
"3 	c #841616",
"4 	c #7DABB9",
"5 	c #95B8B2",
"6 	c #CAD9BF",
"7 	c #ECEBC6",
"8 	c #E2E1B7",
"9 	c #C4C595",
"0 	c #BFBC86",
"a 	c #C1B56E",
"b 	c #B09252",
"c 	c #743D23",
"d 	c #671412",
"e 	c #8C1616",
"f 	c #BE1F1F",
"g 	c #E22727",
"h 	c #DB2626",
"i 	c #9E1A1A",
"j 	c #761414",
"k 	c #77A5B1",
"l 	c #9CBDBB",
"m 	c #DDE6CD",
"n 	c #F9F9D9",
"o 	c #FDFCDC",
"p 	c #FBFAD4",
"q 	c #EEEDC0",
"r 	c #E5E5BC",
"s 	c #D9D4A1",
"t 	c #C1A972",
"u 	c #76432F",
"v 	c #5B1110",
"w 	c #7E1414",
"x 	c #AE1C1C",
"y 	c #CC2222",
"z 	c #CD2222",
"A 	c #9C1919",
"B 	c #649CAC",
"C 	c #C2D2B8",
"D 	c #F8F6D2",
"E 	c #FDFCDA",
"F 	c #FDFDDA",
"G 	c #FDFDDB",
"H 	c #FDFCD2",
"I 	c #FDFDD8",
"J 	c #F7F5CD",
"K 	c #DCCF8D",
"L 	c #A38153",
"M 	c #66271F",
"N 	c #721414",
"O 	c #B41D1D",
"P 	c #B41C1C",
"Q 	c #8F1818",
"R 	c #6F1B1B",
"S 	c #3C87AD",
"T 	c #4E8FA4",
"U 	c #BBC79C",
"V 	c #ECE6A8",
"W 	c #F5F2BB",
"X 	c #F9F8CA",
"Y 	c #FCFBD2",
"Z 	c #FDFBCE",
"` 	c #FDFCD3",
" .	c #FAF7C6",
"..	c #E1D68F",
"+.	c #C6B06C",
"@.	c #9B6B49",
"#.	c #781F1B",
"$.	c #911717",
"%.	c #A41A1A",
"&.	c #A31A1A",
"*.	c #851C1C",
"=.	c #783737",
"-.	c #9AB6B5",
";.	c #3D86AB",
">.	c #287BA7",
",.	c #61969C",
"'.	c #95AE92",
").	c #B9C491",
"!.	c #D5D895",
"~.	c #DCDE95",
"{.	c #E4E096",
"].	c #EFE59D",
"^.	c #F4E49B",
"/.	c #E4CF7F",
"(.	c #C6AA62",
"_.	c #9F6243",
":.	c #861D1A",
"<.	c #991818",
"[.	c #A21A1A",
"}.	c #921817",
"|.	c #742525",
"1.	c #8A6D6D",
"2.	c #78A1B0",
"3.	c #2D7DA9",
"4.	c #1375B0",
"5.	c #1B78AE",
"6.	c #2B7CA4",
"7.	c #6B9890",
"8.	c #B7C07E",
"9.	c #C7CA72",
"0.	c #CDC970",
"a.	c #D7C971",
"b.	c #E4CC77",
"c.	c #DABD6B",
"d.	c #AE7B48",
"e.	c #88281F",
"f.	c #981918",
"g.	c #AC1D1D",
"h.	c #841A1A",
"i.	c #6A3838",
"j.	c #897F7F",
"k.	c #588FB0",
"l.	c #2076A9",
"m.	c #127CBA",
"n.	c #127FC0",
"o.	c #1877AD",
"p.	c #5E9093",
"q.	c #BCBC7F",
"r.	c #D9CA76",
"s.	c #DAC870",
"t.	c #D8C36A",
"u.	c #D5BA65",
"v.	c #BA8D4E",
"w.	c #8E3926",
"x.	c #941818",
"y.	c #A81A1A",
"z.	c #B31D1D",
"A.	c #9E1C1A",
"B.	c #672524",
"C.	c #5D4C4C",
"D.	c #7F7D7D",
"E.	c #6492A5",
"F.	c #2575A1",
"G.	c #1382C1",
"H.	c #168DD0",
"I.	c #187AB5",
"J.	c #46859E",
"K.	c #B5BF99",
"L.	c #E9D384",
"M.	c #E6CD75",
"N.	c #D8BD64",
"O.	c #B58042",
"P.	c #8F3521",
"Q.	c #931918",
"R.	c #AA1B1B",
"S.	c #B31C1D",
"T.	c #9D1D20",
"U.	c #62242D",
"V.	c #2C3443",
"W.	c #4A5155",
"X.	c #767676",
"Y.	c #91A79D",
"Z.	c #387C9A",
"`.	c #1578B2",
" +	c #236D9E",
".+	c #305374",
"++	c #667372",
"@+	c #C8C28E",
"#+	c #EAD885",
"$+	c #DCC56A",
"%+	c #C0974B",
"&+	c #9B3F24",
"*+	c #921C19",
"=+	c #A51A1A",
"-+	c #AF1C1C",
";+	c #9D1C1E",
">+	c #6D2834",
",+	c #31364E",
"'+	c #234147",
")+	c #4B5352",
"!+	c #757575",
"~+	c #A7B5AD",
"{+	c #538598",
"]+	c #23608F",
"^+	c #3E3951",
"/+	c #4B1D24",
"(+	c #62352C",
"_+	c #AC8B5D",
":+	c #D9C175",
"<+	c #BE9953",
"[+	c #9A4C29",
"}+	c #941C18",
"|+	c #961D1F",
"1+	c #6B2933",
"2+	c #37415D",
"3+	c #154564",
"4+	c #294549",
"5+	c #525654",
"6+	c #787878",
"7+	c #787572",
"8+	c #473347",
"9+	c #63171B",
"0+	c #641010",
"a+	c #5D1212",
"b+	c #7B3B2C",
"c+	c #A46F47",
"d+	c #894029",
"e+	c #881B18",
"f+	c #A61A1A",
"g+	c #B21C1C",
"h+	c #981E20",
"i+	c #5E2D3C",
"j+	c #324C6D",
"k+	c #14567E",
"l+	c #194A5F",
"m+	c #384A47",
"n+	c #5C5E5C",
"o+	c #7D7D7D",
"p+	c #703230",
"q+	c #701A1C",
"r+	c #851515",
"s+	c #841414",
"t+	c #7F1515",
"u+	c #7F1918",
"v+	c #80231C",
"w+	c #851A18",
"x+	c #9B1919",
"y+	c #9C1D1F",
"z+	c #642B39",
"A+	c #2F5075",
"B+	c #165D8C",
"C+	c #11557D",
"D+	c #264C5C",
"E+	c #454D4D",
"F+	c #666766",
"G+	c #7C7C7C",
"H+	c #611010",
"I+	c #721313",
"J+	c #A91A1A",
"K+	c #991919",
"L+	c #901617",
"M+	c #9F1919",
"N+	c #AF1D1D",
"O+	c #9A1F23",
"P+	c #622D3C",
"Q+	c #2F4D71",
"R+	c #145F8D",
"S+	c #115983",
"T+	c #215168",
"U+	c #3D4C51",
"V+	c #565757",
"W+	c #621010",
"X+	c #801515",
"Y+	c #B01C1C",
"Z+	c #C21E1E",
"`+	c #C41E1E",
" @	c #BB1D1D",
".@	c #A81B1B",
"+@	c #9E191A",
"@@	c #A31C1D",
"#@	c #9F1D1E",
"$@	c #602D3C",
"%@	c #2B486A",
"&@	c #1C5981",
"*@	c #1D556F",
"=@	c #2A5062",
"-@	c #414C51",
";@	c #575352",
">@	c #6B6767",
",@	c #7D7C7C",
"'@	c #811515",
")@	c #9A1919",
"!@	c #B91D1D",
"~@	c #C92020",
"{@	c #C21F1F",
"]@	c #A51B1B",
"^@	c #88191A",
"/@	c #7B1E22",
"(@	c #7F1E22",
"_@	c #423C51",
":@	c #3A5062",
"<@	c #51424E",
"[@	c #444645",
"}@	c #614242",
"|@	c #724848",
"1@	c #795454",
"2@	c #9A4B4B",
"3@	c #831515",
"4@	c #8D1616",
"5@	c #A01A1A",
"6@	c #841F1F",
"7@	c #6A2D2D",
"8@	c #63393B",
"9@	c #662B2D",
"0@	c #57343A",
"a@	c #7C3B3D",
"b@	c #872C2D",
"c@	c #703A38",
"d@	c #8B3231",
"e@	c #943838",
"f@	c #973434",
"g@	c #AF2121",
"h@	c #861515",
"i@	c #7E1515",
"j@	c #743131",
"k@	c #745C5C",
"l@	c #776E6E",
"m@	c #6D5E5E",
"n@	c #7F4545",
"o@	c #9A4242",
"p@	c #944747",
"q@	c #953636",
"r@	c #9C3636",
"s@	c #A53635",
"t@	c #AC2C2B",
"u@	c #B32625",
"v@	c #B12221",
"                                            ",
"                              . + @         ",
"            # $ % & * = - ; > , ' ) !       ",
"          ~ { ] ^ / ( _ : < [ } | 1 2 3     ",
"        4 5 6 7 8 9 0 a b c d e f g h i j   ",
"      k l m n o p q r s t u v w x y z A .   ",
"      B C D E F G H I J K L M N i O P Q R   ",
"    S T U V W X Y Z `  ...+.@.#.$.%.&.*.=.  ",
"  -.;.>.,.'.).!.~.{.].^./.(._.:.<.[.}.|.1.  ",
"  2.3.4.5.6.7.8.9.0.a.b.c.d.e.f.x g.h.i.j.  ",
"  k.l.m.n.o.p.q.r.s.t.u.v.w.x.y.z.A.B.C.D.  ",
"  E.F.G.H.I.J.K.L.M.N.O.P.Q.R.S.T.U.V.W.X.  ",
"  Y.Z.`. +.+++@+#+$+%+&+*+=+-+;+>+,+'+)+!+  ",
"  ~+{+]+^+/+(+_+:+<+[+}+[.-+|+1+2+3+4+5+6+  ",
"    7+8+9+0+a+b+c+d+e+f+g+h+i+j+k+l+m+n+o+  ",
"    p+q+r+s+t+u+v+w+x+z.y+z+A+B+C+D+E+F+G+  ",
"  H+I+f.J+J+=+K+L+M+N+O+P+Q+R+S+T+U+V+!+    ",
"  W+X+Y+Z+`+ @.@+@@@#@$@%@&@*@=@-@;@>@,@    ",
"    '@)@!@~@{@]@^@/@(@_@:@<@[@}@|@1@2@      ",
"      3@4@&.5@6@7@8@9@0@a@b@c@d@e@f@g@      ",
"          h@i@j@k@l@m@n@o@p@q@r@s@t@u@v@    ",
"                                            "};
