/* XPM */
static char * globe2_36_xpm[] = {
"32 32 638 2",
"  	c None",
". 	c #6D1212",
"+ 	c #6F1212",
"@ 	c #731313",
"# 	c #751313",
"$ 	c #711212",
"% 	c #C3D8E1",
"& 	c #8EBED6",
"* 	c #73AABF",
"= 	c #ACB177",
"- 	c #A2AE66",
"; 	c #A3AB58",
"> 	c #C3B748",
", 	c #B7AE49",
"' 	c #CBB947",
") 	c #C8BD56",
"! 	c #C9C178",
"~ 	c #C0B291",
"{ 	c #6C1212",
"] 	c #701212",
"^ 	c #7D1414",
"/ 	c #941717",
"( 	c #961818",
"_ 	c #7D1515",
": 	c #A5C4CB",
"< 	c #589BB6",
"[ 	c #79A19A",
"} 	c #83A596",
"| 	c #B1B461",
"1 	c #BBBA5E",
"2 	c #C7BF5A",
"3 	c #C9C153",
"4 	c #C9C449",
"5 	c #D2C934",
"6 	c #D2C728",
"7 	c #C5BC1F",
"8 	c #946A1D",
"9 	c #6F1915",
"0 	c #A11818",
"a 	c #C61F1F",
"b 	c #C62020",
"c 	c #A31B1B",
"d 	c #96B2AB",
"e 	c #2A87BA",
"f 	c #639EAE",
"g 	c #DDD399",
"h 	c #D2C88D",
"i 	c #A9AB7D",
"j 	c #A5A678",
"k 	c #AFA771",
"l 	c #C9B76D",
"m 	c #D1BD66",
"n 	c #BDAD52",
"o 	c #B19937",
"p 	c #9A6F31",
"q 	c #672115",
"r 	c #8B1616",
"s 	c #B11C1C",
"t 	c #DC2525",
"u 	c #E82929",
"v 	c #DD2727",
"w 	c #AE1D1D",
"x 	c #C8D7D9",
"y 	c #498FB3",
"z 	c #488CAD",
"A 	c #B2BA95",
"B 	c #F5F0BF",
"C 	c #FDFCD8",
"D 	c #FDFCD4",
"E 	c #F8F6CF",
"F 	c #CBCA95",
"G 	c #91A070",
"H 	c #AFAB76",
"I 	c #B5A966",
"J 	c #DBC37A",
"K 	c #A57D4D",
"L 	c #5D2317",
"M 	c #570F0F",
"N 	c #6B1212",
"O 	c #8E1616",
"P 	c #AF1B1B",
"Q 	c #D52323",
"R 	c #EE2B2B",
"S 	c #F82F2F",
"T 	c #DC2727",
"U 	c #991919",
"V 	c #6EA0B0",
"W 	c #5795AF",
"X 	c #D7DDB9",
"Y 	c #FBFAC9",
"Z 	c #FDFDDA",
"` 	c #FDFDE6",
" .	c #FDFDE4",
"..	c #F5F3C3",
"+.	c #DBDBB1",
"@.	c #D9DAB0",
"#.	c #BEC188",
"$.	c #C0B573",
"%.	c #AB8454",
"&.	c #541814",
"*.	c #500F0F",
"=.	c #621111",
"-.	c #821414",
";.	c #A91A1A",
">.	c #C32020",
",.	c #E02626",
"'.	c #E92828",
").	c #D62424",
"!.	c #A11A1A",
"~.	c #99B8B7",
"{.	c #4D899D",
"].	c #C3D0C0",
"^.	c #FCFBE4",
"/.	c #FDFDE5",
"(.	c #FDFCD6",
"_.	c #FDFDD6",
":.	c #FDFCCD",
"<.	c #FDFCD1",
"[.	c #FDFCDA",
"}.	c #F8F6D3",
"|.	c #E9E4A5",
"1.	c #DDCA85",
"2.	c #6F3C2D",
"3.	c #4B0D0D",
"4.	c #550F0F",
"5.	c #A01919",
"6.	c #B61E1E",
"7.	c #BF1F1F",
"8.	c #C11E1E",
"9.	c #B71D1D",
"0.	c #931717",
"a.	c #661111",
"b.	c #1C76AA",
"c.	c #669FAF",
"d.	c #F3F0C3",
"e.	c #FDFCDF",
"f.	c #FDFDE7",
"g.	c #FDFDDD",
"h.	c #FDFCD2",
"i.	c #FDFDD8",
"j.	c #FDFDDC",
"k.	c #FCFBCA",
"l.	c #FDFBC8",
"m.	c #FDFDDB",
"n.	c #F1ECB2",
"o.	c #D8CB7E",
"p.	c #BDA26B",
"q.	c #59201A",
"r.	c #4F0E0E",
"s.	c #661212",
"t.	c #971818",
"u.	c #B01C1C",
"v.	c #B61C1C",
"w.	c #AD1A1A",
"x.	c #8B1515",
"y.	c #671111",
"z.	c #80AAB1",
"A.	c #1171AA",
"B.	c #649CA6",
"C.	c #E5DB91",
"D.	c #F1EBA4",
"E.	c #FAF8C0",
"F.	c #FCFBCF",
"G.	c #FEFDEA",
"H.	c #FDFDE0",
"I.	c #F9F5B6",
"J.	c #CAC173",
"K.	c #D8C672",
"L.	c #B39263",
"M.	c #642019",
"N.	c #671212",
"O.	c #8B1717",
"P.	c #A21A1A",
"Q.	c #AD1D1D",
"R.	c #B41D1D",
"S.	c #851414",
"T.	c #783636",
"U.	c #3483AF",
"V.	c #1170A8",
"W.	c #5892A0",
"X.	c #D0CA87",
"Y.	c #DCD383",
"Z.	c #E8E095",
"`.	c #ECE8A4",
" +	c #F3F1B5",
".+	c #FAF9C5",
"++	c #FBF9C4",
"@+	c #FCF9C2",
"#+	c #FDFBC7",
"$+	c #FDFCCC",
"%+	c #FDFBC5",
"&+	c #FBF4AE",
"*+	c #D3C67A",
"=+	c #CBB96C",
"-+	c #F0E394",
";+	c #935E41",
">+	c #8A1616",
",+	c #9E1A1A",
"'+	c #921717",
")+	c #741212",
"!+	c #7E4E4E",
"~+	c #B7C6BC",
"{+	c #2A7CA6",
"]+	c #1170A9",
"^+	c #2379A9",
"/+	c #4789A0",
"(+	c #99A98A",
"_+	c #A8AF81",
":+	c #C1C281",
"<+	c #D4D588",
"[+	c #D6DB8C",
"}+	c #D8D88A",
"|+	c #DFD98B",
"1+	c #EEE091",
"2+	c #F7E89B",
"3+	c #F9E99C",
"4+	c #F6E092",
"5+	c #E2C978",
"6+	c #C6B35E",
"7+	c #CAAB6F",
"8+	c #76281E",
"9+	c #841616",
"0+	c #9B1919",
"a+	c #A01A1A",
"b+	c #801414",
"c+	c #621414",
"d+	c #7F6363",
"e+	c #B3B3B3",
"f+	c #97B0AC",
"g+	c #2175A2",
"h+	c #1172AD",
"i+	c #1275B1",
"j+	c #1171AB",
"k+	c #1672A8",
"l+	c #1773A7",
"m+	c #518992",
"n+	c #BDBF79",
"o+	c #C4CC78",
"p+	c #BAC869",
"q+	c #C1C869",
"r+	c #CBC76D",
"s+	c #D5C46A",
"t+	c #E2C875",
"u+	c #E0C970",
"v+	c #DFC36C",
"w+	c #C5A45B",
"x+	c #7B3A22",
"y+	c #971717",
"z+	c #A61A1A",
"A+	c #B71E1E",
"B+	c #B91F1F",
"C+	c #9C1B1B",
"D+	c #711513",
"E+	c #622A2A",
"F+	c #7F7373",
"G+	c #A6A6A6",
"H+	c #6296B6",
"I+	c #106CA3",
"J+	c #1173AE",
"K+	c #137BBD",
"L+	c #1179B6",
"M+	c #1072AC",
"N+	c #1070A9",
"O+	c #538A94",
"P+	c #D0CB76",
"Q+	c #CBC96F",
"R+	c #CEC76F",
"S+	c #D1C46C",
"T+	c #D8C66C",
"U+	c #E1C872",
"V+	c #E4CC73",
"W+	c #D6B466",
"X+	c #965837",
"Y+	c #781414",
"Z+	c #A11919",
"`+	c #C22121",
" @	c #B71F1F",
".@	c #861717",
"+@	c #5A1F21",
"@@	c #5E4646",
"#@	c #797777",
"$@	c #9B9B9B",
"%@	c #5F92B1",
"&@	c #0F699F",
"*@	c #1275AF",
"=@	c #1488CE",
"-@	c #1487CB",
";@	c #1179B7",
">@	c #4A8492",
",@	c #C8BF7D",
"'@	c #DECD7D",
")@	c #E1CC77",
"!@	c #E2CB75",
"~@	c #DFC76D",
"{@	c #D7BE67",
"]@	c #D3BA60",
"^@	c #D0B361",
"/@	c #9D6235",
"(@	c #781B16",
"_@	c #8F1717",
":@	c #AC1B1B",
"<@	c #B81D1D",
"[@	c #981919",
"}@	c #701A12",
"|@	c #3D383B",
"1@	c #585454",
"2@	c #727272",
"3@	c #939393",
"4@	c #5E90AE",
"5@	c #0F6699",
"6@	c #1490D8",
"7@	c #1699E3",
"8@	c #1288CD",
"9@	c #1071AB",
"0@	c #1B74A4",
"a@	c #9DB39C",
"b@	c #EBD991",
"c@	c #ECD27D",
"d@	c #EED17D",
"e@	c #E4CA71",
"f@	c #D8BE65",
"g@	c #CAA856",
"h@	c #A66A36",
"i@	c #7D2217",
"j@	c #9D1919",
"k@	c #AD1B1B",
"l@	c #B91D1D",
"m@	c #BA1E1E",
"n@	c #701B1F",
"o@	c #402E36",
"p@	c #153B52",
"q@	c #535353",
"r@	c #6D6D6D",
"s@	c #8D8D8D",
"t@	c #92A696",
"u@	c #1F698B",
"v@	c #1174AF",
"w@	c #1282BE",
"x@	c #188FCB",
"y@	c #1F82C0",
"z@	c #1A6699",
"A@	c #377C9A",
"B@	c #BEC298",
"C@	c #F4E8A6",
"D@	c #EFD781",
"E@	c #E6CF73",
"F@	c #D8C362",
"G@	c #D0B25B",
"H@	c #B47A3B",
"I@	c #882D1E",
"J@	c #8A1818",
"K@	c #9B1818",
"L@	c #AA1B1B",
"M@	c #B81C1C",
"N@	c #A71C1D",
"O@	c #791C21",
"P@	c #442F41",
"Q@	c #163752",
"R@	c #123D48",
"S@	c #515151",
"T@	c #6A6A6A",
"U@	c #8A8A8A",
"V@	c #A4B2A0",
"W@	c #266E90",
"X@	c #1177B4",
"Y@	c #147EBB",
"Z@	c #256EA1",
"`@	c #363C55",
" #	c #382E41",
".#	c #5A5F63",
"+#	c #E3D189",
"@#	c #F1E498",
"##	c #EFDD87",
"$#	c #E4CD71",
"%#	c #CDB959",
"&#	c #AF7939",
"*#	c #94331D",
"=#	c #8C1918",
"-#	c #981717",
";#	c #A71A1A",
">#	c #BB1E1E",
",#	c #B21B1B",
"'#	c #98191A",
")#	c #791C20",
"!#	c #4B364C",
"~#	c #1D4363",
"{#	c #093754",
"]#	c #43532B",
"^#	c #8B8B8B",
"/#	c #BFC4BA",
"(#	c #3E788C",
"_#	c #1074B1",
":#	c #216BA0",
"<#	c #40344A",
"[#	c #4B1316",
"}#	c #491011",
"|#	c #4B1B1C",
"1#	c #9B7049",
"2#	c #E7D284",
"3#	c #ECDB84",
"4#	c #D8C26A",
"5#	c #AF803D",
"6#	c #8D2F1C",
"7#	c #8D1817",
"8#	c #9D1818",
"9#	c #C11F1F",
"0#	c #911819",
"a#	c #71191B",
"b#	c #513547",
"c#	c #1B5580",
"d#	c #0C4668",
"e#	c #083856",
"f#	c #404A3E",
"g#	c #8E8E8E",
"h#	c #CDCDCD",
"i#	c #788F79",
"j#	c #186496",
"k#	c #3E3952",
"l#	c #5A1112",
"m#	c #5C0F0F",
"n#	c #4B0E0E",
"o#	c #521B15",
"p#	c #BE9D6B",
"q#	c #E3CD7C",
"r#	c #A27843",
"s#	c #732619",
"t#	c #851615",
"u#	c #951717",
"v#	c #A21919",
"w#	c #BC1E1E",
"x#	c #BD1E1E",
"y#	c #901718",
"z#	c #6D1A1E",
"A#	c #4A3945",
"B#	c #1B6896",
"C#	c #0C517B",
"D#	c #0A4365",
"E#	c #2A4B3A",
"F#	c #45493E",
"G#	c #585858",
"H#	c #737373",
"I#	c #949494",
"J#	c #A39E92",
"K#	c #443643",
"L#	c #5E1214",
"M#	c #611010",
"N#	c #5F1111",
"O#	c #5E1413",
"P#	c #732D23",
"Q#	c #9C633F",
"R#	c #6A1E17",
"S#	c #7A1514",
"T#	c #911717",
"U#	c #A71A1B",
"V#	c #C01E1E",
"W#	c #BD1E1D",
"X#	c #941818",
"Y#	c #681A1F",
"Z#	c #453E58",
"`#	c #1C6292",
" $	c #0E5F8D",
".$	c #0C4D73",
"+$	c #114863",
"@$	c #374942",
"#$	c #4A4A47",
"$$	c #5F5F5F",
"%$	c #7C7C7C",
"&$	c #641817",
"*$	c #791313",
"=$	c #8A1515",
"-$	c #871515",
";$	c #7F1313",
">$	c #841717",
",$	c #791414",
"'$	c #711313",
")$	c #7C1515",
"!$	c #8F1616",
"~$	c #A0191A",
"{$	c #BA1E1F",
"]$	c #BC1F1F",
"^$	c #9A1918",
"/$	c #6A191C",
"($	c #423C55",
"_$	c #1E699E",
":$	c #0F659A",
"<$	c #0D5986",
"[$	c #0C527C",
"}$	c #23515E",
"|$	c #44473B",
"1$	c #505050",
"2$	c #696969",
"3$	c #878787",
"4$	c #601010",
"5$	c #781313",
"6$	c #A31919",
"7$	c #A01717",
"8$	c #9D1717",
"9$	c #811414",
"0$	c #B61D1E",
"a$	c #9D1A1B",
"b$	c #6A1A1F",
"c$	c #3C3E5A",
"d$	c #166DA4",
"e$	c #0F689D",
"f$	c #0D5C8A",
"g$	c #0C547E",
"h$	c #145276",
"i$	c #3A4949",
"j$	c #484848",
"k$	c #595959",
"l$	c #767676",
"m$	c #5D1010",
"n$	c #751414",
"o$	c #B51B1B",
"p$	c #A81B1B",
"q$	c #981818",
"r$	c #961717",
"s$	c #BD2020",
"t$	c #A41B1D",
"u$	c #6B1F26",
"v$	c #3C3C56",
"w$	c #146A9F",
"x$	c #0F6497",
"y$	c #0D5581",
"z$	c #0C557F",
"A$	c #10557B",
"B$	c #3F4739",
"C$	c #464645",
"D$	c #686868",
"E$	c #611111",
"F$	c #C21F1F",
"G$	c #C81F1F",
"H$	c #C91F1F",
"I$	c #A21A1B",
"J$	c #AC1D1E",
"K$	c #B11E1F",
"L$	c #9A1B1C",
"M$	c #66222C",
"N$	c #353D59",
"O$	c #175B88",
"P$	c #0E6194",
"Q$	c #125470",
"R$	c #1D566F",
"S$	c #3A4844",
"T$	c #454545",
"U$	c #525252",
"V$	c #636363",
"W$	c #7B7B7B",
"X$	c #B81E1E",
"Y$	c #CF2020",
"Z$	c #D22222",
"`$	c #C71F1F",
" %	c #B11D1E",
".%	c #94191A",
"+%	c #901A1C",
"@%	c #801B1E",
"#%	c #7A191D",
"$%	c #4C364C",
"%%	c #17537B",
"&%	c #0D5682",
"*%	c #374867",
"=%	c #3A5046",
"-%	c #324C46",
";%	c #57483E",
">%	c #6B4747",
",%	c #5C4F4F",
"'%	c #646060",
")%	c #866867",
"!%	c #C51F1F",
"~%	c #D02121",
"{%	c #C72020",
"]%	c #881817",
"^%	c #701715",
"/%	c #5D1B21",
"(%	c #602831",
"_%	c #7E1F25",
":%	c #44344C",
"<%	c #305862",
"[%	c #705342",
"}%	c #962222",
"|%	c #583A2E",
"1%	c #494240",
"2%	c #853A39",
"3%	c #AA2D2D",
"4%	c #7A5252",
"5%	c #7E6F6F",
"6%	c #C13131",
"7%	c #9B1717",
"8%	c #A31C1C",
"9%	c #881818",
"0%	c #671B1A",
"a%	c #592525",
"b%	c #553637",
"c%	c #623A3B",
"d%	c #601B1C",
"e%	c #4B2A2B",
"f%	c #674040",
"g%	c #A13635",
"h%	c #991313",
"i%	c #623737",
"j%	c #6F4343",
"k%	c #9B2626",
"l%	c #8F5454",
"m%	c #A00E0E",
"n%	c #BD1616",
"o%	c #7A1313",
"p%	c #7E1515",
"q%	c #745656",
"r%	c #746666",
"s%	c #6E6A6A",
"t%	c #6A5E5E",
"u%	c #594646",
"v%	c #6D3636",
"w%	c #952929",
"x%	c #A63737",
"y%	c #963C3C",
"z%	c #963030",
"A%	c #953030",
"B%	c #A53B3B",
"C%	c #993838",
"D%	c #A21818",
"E%	c #A82121",
"F%	c #A63433",
"G%	c #BB2221",
"H%	c #A10F0F",
"I%	c #919191",
"J%	c #878686",
"K%	c #807F7F",
"L%	c #876868",
"M%	c #A44B4B",
"N%	c #9A5F5F",
"O%	c #8B7676",
"P%	c #9B4949",
"Q%	c #A12424",
"R%	c #A2504F",
"S%	c #BC3E3D",
"T%	c #BF3333",
"U%	c #BD3432",
"                                                                ",
"                                              . . .             ",
"                                            . + @ # $           ",
"                  % & * = - ; > , ' ) ! ~ { ] ^ / ( _ +         ",
"                : < [ } | 1 2 3 4 5 6 7 8 9 ^ 0 a b c _ +       ",
"              d e f g h i j k l m n o p q + r s t u v w _       ",
"          x y z A B C D E F G H I J K L M N O P Q R S T U ]     ",
"          V W X Y Z `  .C ..+.@.#.$.%.&.*.=.-.;.>.,.'.).!.N     ",
"        ~.{.].^.` /.Z (._.:.<.[.}.|.1.2.3.4.$ 5.6.7.8.9.0.a.    ",
"        b.c.d.e.f.g.h.i.j.k.l.m.f.n.o.p.q.r.s.t.u.6.v.w.x.y.    ",
"      z.A.B.C.D.E.F._./.G.j.i.H.j.I.J.K.L.M.N.O.P.Q.R.;.S.T.    ",
"      U.V.W.X.Y.Z.`. +.+++@+#+$+%+&+*+=+-+;+{ >+/ U ,+'+)+!+    ",
"    ~+{+]+^+/+(+_+:+<+[+}+|+1+2+3+4+5+6+7+8+9+( 0+!.a+b+c+d+e+  ",
"    f+g+h+i+j+k+l+m+n+o+p+q+r+s+t+u+v+w+x+^ y+z+A+B+C+D+E+F+G+  ",
"    H+I+J+K+L+M+N+O+! P+Q+R+S+T+U+V+W+X+Y+'+Z+u.`+ @.@+@@@#@$@  ",
"    %@&@*@=@-@;@N+>@,@'@)@!@~@{@]@^@/@(@_@5.:@<@B+[@}@|@1@2@3@  ",
"    4@5@*@6@7@8@9@0@a@b@c@d@e@f@g@h@i@>+j@k@l@m@a+n@o@p@q@r@s@  ",
"    t@u@v@w@x@y@z@A@B@C@D@E@F@G@H@I@J@K@L@M@9.N@O@P@Q@R@S@T@U@  ",
"    V@W@X@Y@Z@`@ #.#+#@###$#%#&#*#=#-#;#>#,#'#)#!#~#{#]#S@T@^#  ",
"    /#(#_#:#<#[#}#|#1#2#3#4#5#6#7#/ 8#9#v.0#a#b#c#d#e#f#q@r@g#  ",
"    h#i#j#k#l#m#M n#o#p#q#r#s#t#u#v#w#x#y#z#A#B#C#D#E#F#G#H#I#  ",
"      J#K#L#+ + M#N#O#P#Q#R#S#T#U#V#W#X#Y#Z#`# $.$+$@$#$$$%$    ",
"      m#&$*$=$-$;$^ >$,$'$)$!$~${$]$^$/$($_$:$<$[$}$|$1$2$3$    ",
"      4$5$-#6$7$8$0 j@O.9$_@v#0$]$a$b$c$d$e$f$g$h$i$j$k$l$      ",
"    m$n$j@u.w#<@o$R.p$q$r$z+{$s$t$u$v$w$x$y$z$A$B$C$q@D$3$      ",
"    E$9+w F$G$H$G$V#L@P.I$J$K$L$M$N$O$P$g$Q$R$S$T$U$V$W$        ",
"    4$$ t.X$H$Y$Z$`$ %,+.%+%@%#%$%%%&%*%=%-%;%>%,%'%)%          ",
"        ] _@k@!%~%{%u.]%^%/%(%_%:%<%[%}%|%1%2%3%4%5%w#6%        ",
"          { -.7%;.8%9%0%a%b%c%d%e%f%g%h%i%j%k%a+l%  m%n%        ",
"              o%b+p%N q%r%s%t%u%v%w%x%y%z%A%B%C%D%E%F%G%H%      ",
"                          I%J%K%L%M%N%O%P%Q%  R%S%T%    U%      ",
"                                                                "};
