/* XPM */
static char * gnome_chat_xpm[] = {
"24 24 169 2",
"  	c None",
". 	c #C0BEAB",
"+ 	c #A8A26E",
"@ 	c #ADABA6",
"# 	c #EAE7D7",
"$ 	c #CFC788",
"% 	c #706623",
"& 	c #8A7F2D",
"* 	c #E6E5E2",
"= 	c #E1E0DC",
"- 	c #DBD9D0",
"; 	c #E6E3CD",
"> 	c #D4CD8E",
", 	c #BFB24C",
"' 	c #C1B13D",
") 	c #A78B14",
"! 	c #E6E5D9",
"~ 	c #EAE8DC",
"{ 	c #DFDBC4",
"] 	c #D0CA94",
"^ 	c #C2B660",
"/ 	c #C0AD3A",
"( 	c #C0AA2D",
"_ 	c #A3830C",
": 	c #251C00",
"< 	c #DCDCDC",
"[ 	c #D3D3D3",
"} 	c #C2C2C2",
"| 	c #9D9D9D",
"1 	c #5E5E5E",
"2 	c #232323",
"3 	c #C0BC95",
"4 	c #DEDAB3",
"5 	c #D2CB9A",
"6 	c #BAAA64",
"7 	c #AE9838",
"8 	c #AD8F1A",
"9 	c #B39314",
"0 	c #AB8A0D",
"a 	c #5B4300",
"b 	c #D6D6D6",
"c 	c #C0C0C0",
"d 	c #8C8C8C",
"e 	c #464646",
"f 	c #101010",
"g 	c #000000",
"h 	c #C0B564",
"i 	c #B29E43",
"j 	c #B7A78B",
"k 	c #BDAE8F",
"l 	c #BCAA79",
"m 	c #A7823F",
"n 	c #6D4A12",
"o 	c #C8C8C7",
"p 	c #585858",
"q 	c #1C1C1C",
"r 	c #A99A31",
"s 	c #AD8E2A",
"t 	c #CBC0AE",
"u 	c #CEC2AC",
"v 	c #D2C6AD",
"w 	c #C0AB82",
"x 	c #8F7C63",
"y 	c #D0CDC7",
"z 	c #797876",
"A 	c #2D2D2D",
"B 	c #030303",
"C 	c #B19D29",
"D 	c #B8A253",
"E 	c #D8D0C2",
"F 	c #DCD4C4",
"G 	c #DBD3C2",
"H 	c #B09C7A",
"I 	c #908D86",
"J 	c #EBE8E1",
"K 	c #BFB7A8",
"L 	c #231E19",
"M 	c #BAA121",
"N 	c #B69C5F",
"O 	c #E1DCD0",
"P 	c #E6E2D8",
"Q 	c #E6E0D4",
"R 	c #D9CDB4",
"S 	c #DFDAD0",
"T 	c #A8A7A5",
"U 	c #ECE8E0",
"V 	c #E4DCCB",
"W 	c #D0C0A1",
"X 	c #2B1A10",
"Y 	c #998A27",
"Z 	c #B49514",
"` 	c #BEA975",
" .	c #E9E5DF",
"..	c #E7E3DA",
"+.	c #DAD0BB",
"@.	c #C0AA81",
"#.	c #7B6041",
"$.	c #575655",
"%.	c #D2D1CD",
"&.	c #EAE5DC",
"*.	c #DCD0B3",
"=.	c #442E1A",
"-.	c #AB8D15",
";.	c #D1C6A6",
">.	c #E3DFD7",
",.	c #868176",
"'.	c #0B0603",
").	c #ECE9E2",
"!.	c #3E2814",
"~.	c #A9A38C",
"{.	c #DCD4C1",
"].	c #C9C5BD",
"^.	c #090808",
"/.	c #4D371E",
"(.	c #BEBBB3",
"_.	c #DDD4C2",
":.	c #DCD7D0",
"<.	c #5D5C5A",
"[.	c #D4CBBC",
"}.	c #CCBDA0",
"|.	c #DCD0B2",
"1.	c #544128",
"2.	c #C2BDB2",
"3.	c #DCD3C0",
"4.	c #E8E3DB",
"5.	c #E8E5DE",
"6.	c #D5D3CE",
"7.	c #D1CEC9",
"8.	c #99968F",
"9.	c #D4CDBF",
"0.	c #E2DAC8",
"a.	c #A6906D",
"b.	c #605742",
"c.	c #C6C2BC",
"d.	c #DED6C3",
"e.	c #E8E3DA",
"f.	c #EAE6DF",
"g.	c #E4DED2",
"h.	c #D4C7AE",
"i.	c #765F3E",
"j.	c #ECE8E2",
"k.	c #D2C497",
"l.	c #C1B287",
"m.	c #CCC8C3",
"n.	c #DFD8C5",
"o.	c #EAE7E0",
"p.	c #E4DFD1",
"q.	c #CFC1A4",
"r.	c #6B4D2C",
"s.	c #EBE7DE",
"t.	c #D0C091",
"u.	c #D6D3CD",
"v.	c #DFD7C4",
"w.	c #E6E1D6",
"x.	c #D9D1C0",
"y.	c #9F8A6A",
"z.	c #3B2311",
"A.	c #BFBEBD",
"B.	c #E9E4DB",
"C.	c #D5CFBE",
"D.	c #BFB59C",
"E.	c #ABA07B",
"F.	c #A49873",
"G.	c #BAB3A3",
"H.	c #9C8E78",
"I.	c #857F73",
"J.	c #4B453B",
"K.	c #1D1813",
"L.	c #494845",
"                                                ",
"                                                ",
"            . +                                 ",
"          @ # $ % &                             ",
"      * = - ; > , ' )                           ",
"      ! ~ { ] ^ / ( _ :     < [ } | 1 2         ",
"    3 4 5 6 7 8 9 0 a       b < c d e f g       ",
"      h i j k l m n           o | p q g g       ",
"      r s t u v w x           y z A B g g       ",
"      C D E F G H I           J K L g g g       ",
"      M N O P Q R S T         U V W X g g       ",
"    Y Z `  ...+.@.#.$.      %.&.V *.=.g g       ",
"      -.;.>.,.'.              ).V *.!.g g       ",
"      ~.{.].^.                ).V *./.g g       ",
"      (._.:.<.                [.}.|.1.g g       ",
"      2.3.4.5.6.7.8.          9.0.*.a.b.g       ",
"      c.d.e.f.g.h.i.          j.V *.k.l.        ",
"      m.n.e.o.p.q.r.          s.V *.k.t.        ",
"      u.v.w.e.x.y.z.        A.B.C.D.E.F.        ",
"      G.H.I.J.K.              L.                ",
"                                                ",
"                                                ",
"                                                ",
"                                                "};
