/* XPM */
static char * ils_xpm[] = {
"32 32 443 2",
"  	c None",
". 	c #C9D0D5",
"+ 	c #BFC5CB",
"@ 	c #C9CED4",
"# 	c #D2D6DB",
"$ 	c #C4C8CD",
"% 	c #C2C4CA",
"& 	c #B5B8BC",
"* 	c #A7ABAD",
"= 	c #9FA2A5",
"- 	c #7D8082",
"; 	c #D1D2D7",
"> 	c #CACFD3",
", 	c #BDC5CB",
"' 	c #BDC3CA",
") 	c #D3D7DA",
"! 	c #CCD1D4",
"~ 	c #C5C9CB",
"{ 	c #C2C5C7",
"] 	c #D6D9DC",
"^ 	c #D1D4D7",
"/ 	c #C9CDCF",
"( 	c #C3C6C9",
"_ 	c #BABDC1",
": 	c #A8AAAD",
"< 	c #9A9CA0",
"[ 	c #95989B",
"} 	c #5E6164",
"| 	c #DCE1E3",
"1 	c #D7DDDF",
"2 	c #D7DBDF",
"3 	c #D3D8DD",
"4 	c #CFD4DA",
"5 	c #C0C5CB",
"6 	c #C1C6CD",
"7 	c #C8CDD3",
"8 	c #C0C5C7",
"9 	c #B7BBBC",
"0 	c #BFC3C1",
"a 	c #D2D5D0",
"b 	c #DBDDDB",
"c 	c #DADCDF",
"d 	c #D2D4D5",
"e 	c #CCCECF",
"f 	c #CBCED0",
"g 	c #C7C9CC",
"h 	c #BCC0C1",
"i 	c #A9ADB0",
"j 	c #909397",
"k 	c #7E8285",
"l 	c #343639",
"m 	c #D7C2C2",
"n 	c #E1E1E3",
"o 	c #D1D1D3",
"p 	c #C7CACD",
"q 	c #D8DADE",
"r 	c #D6D9DF",
"s 	c #CDCFD9",
"t 	c #C9CDD6",
"u 	c #C8CDD7",
"v 	c #B0B5BD",
"w 	c #9DA0A8",
"x 	c #A2A8AB",
"y 	c #BFC3BF",
"z 	c #E0E1E2",
"A 	c #DADBDC",
"B 	c #D5D5D5",
"C 	c #DEDEDD",
"D 	c #D6D6D6",
"E 	c #CED0D1",
"F 	c #BCC0C2",
"G 	c #A2A7AB",
"H 	c #888C90",
"I 	c #5D6062",
"J 	c #212325",
"K 	c #E32C2C",
"L 	c #9E8381",
"M 	c #DCDBDC",
"N 	c #C7C7CB",
"O 	c #D8D9DD",
"P 	c #D2D3D7",
"Q 	c #E3E5EC",
"R 	c #D5D7DE",
"S 	c #C8CBD2",
"T 	c #C3C8D0",
"U 	c #B5BAC4",
"V 	c #A2A8B0",
"W 	c #90969C",
"X 	c #A1A8A8",
"Y 	c #D8D9DA",
"Z 	c #DBDBDA",
"` 	c #D9D9D7",
" .	c #DFDFDD",
"..	c #E8E8E7",
"+.	c #E3E4E3",
"@.	c #DDDEDD",
"#.	c #CBCECE",
"$.	c #B4B8BB",
"%.	c #959A9E",
"&.	c #7A7D80",
"*.	c #36383A",
"=.	c #FA1515",
"-.	c #A16665",
";.	c #A3ABAC",
">.	c #DADADE",
",.	c #D9D9DF",
"'.	c #D9D8DD",
").	c #EDEDF1",
"!.	c #DEE0E5",
"~.	c #D2D6DE",
"{.	c #CACFD7",
"].	c #C3C9CE",
"^.	c #B6BDC4",
"/.	c #959DA3",
"(.	c #89939B",
"_.	c #B2B7BC",
":.	c #CCCECE",
"<.	c #E4E4E0",
"[.	c #E6E6E0",
"}.	c #EDEDE9",
"|.	c #EFEFEB",
"1.	c #E1E2E1",
"2.	c #DEDEDF",
"3.	c #BEC4C9",
"4.	c #A5ACB1",
"5.	c #8E9296",
"6.	c #6B6F72",
"7.	c #1F2022",
"8.	c #975654",
"9.	c #96A1A2",
"0.	c #DDDCDF",
"a.	c #D2D1D4",
"b.	c #D3D4D6",
"c.	c #ECEAEB",
"d.	c #ECEDEE",
"e.	c #CFD1D4",
"f.	c #D2D5D9",
"g.	c #C9CED3",
"h.	c #B2B9C0",
"i.	c #9DA5AB",
"j.	c #879097",
"k.	c #A7ACAF",
"l.	c #CDCECE",
"m.	c #E1E1DC",
"n.	c #E2E2DC",
"o.	c #EDEDE8",
"p.	c #EBEBE6",
"q.	c #E9EAE6",
"r.	c #DADBDB",
"s.	c #D6D8DC",
"t.	c #BEC1C6",
"u.	c #9EA2A6",
"v.	c #929699",
"w.	c #444547",
"x.	c #E91515",
"y.	c #687A78",
"z.	c #ACB2AE",
"A.	c #D7D5D5",
"B.	c #CECED0",
"C.	c #DFDEE0",
"D.	c #F1F1F1",
"E.	c #EBEBEB",
"F.	c #E4E8E9",
"G.	c #D0D3D8",
"H.	c #B6BCC2",
"I.	c #A8B1B9",
"J.	c #99A2A7",
"K.	c #999CA0",
"L.	c #BDC0C0",
"M.	c #D6D7D4",
"N.	c #DEDEDA",
"O.	c #ECECE6",
"P.	c #F4F4ED",
"Q.	c #E6E7E3",
"R.	c #E9EAEA",
"S.	c #DADCDE",
"T.	c #CDD0D4",
"U.	c #B9BDC1",
"V.	c #A6AAAE",
"W.	c #818386",
"X.	c #2B2C2E",
"Y.	c #FA0707",
"Z.	c #8D6360",
"`.	c #889390",
" +	c #DCDADA",
".+	c #DAD8D8",
"++	c #E2E0E0",
"@+	c #EAE9E9",
"#+	c #ECECED",
"$+	c #EAECED",
"%+	c #D8DCDF",
"&+	c #C0C6CC",
"*+	c #ACB5BD",
"=+	c #A0A7AF",
"-+	c #93999E",
";+	c #AEB2B2",
">+	c #DEDED9",
",+	c #E4E4DC",
"'+	c #F0F0EA",
")+	c #F9FAF2",
"!+	c #EEEFEC",
"~+	c #E3E4E5",
"{+	c #DBDFE2",
"]+	c #BBBFC4",
"^+	c #B5B8BD",
"/+	c #A2A5A9",
"(+	c #57595B",
"_+	c #121313",
":+	c #D83E3C",
"<+	c #7D8584",
"[+	c #AAB0AD",
"}+	c #DFDCDC",
"|+	c #DBD9D8",
"1+	c #E5E2E2",
"2+	c #E3E5E6",
"3+	c #DCDEDE",
"4+	c #E4E6E8",
"5+	c #C8CDD0",
"6+	c #B0B6BC",
"7+	c #A2ACB3",
"8+	c #929BA0",
"9+	c #8E9595",
"0+	c #C4C8C5",
"a+	c #D5D5D3",
"b+	c #E6E6E1",
"c+	c #EBEBE5",
"d+	c #EEEEE8",
"e+	c #E5E5E1",
"f+	c #EAEBEB",
"g+	c #D8DBDB",
"h+	c #D1D5D9",
"i+	c #B3B7BD",
"j+	c #A8ACB0",
"k+	c #8F9295",
"l+	c #252626",
"m+	c #ED1D1C",
"n+	c #8D6C6A",
"o+	c #A3A7A3",
"p+	c #CACACA",
"q+	c #DFDDDC",
"r+	c #E7E6E6",
"s+	c #E6E7E9",
"t+	c #D7DADE",
"u+	c #CFD4D8",
"v+	c #CBD0D5",
"w+	c #B7BBC1",
"x+	c #ADB4BB",
"y+	c #989FA2",
"z+	c #838B8E",
"A+	c #AAAEAB",
"B+	c #D5D5D2",
"C+	c #DDDDDA",
"D+	c #E7E7E1",
"E+	c #F1F2EC",
"F+	c #E3E6E4",
"G+	c #DDDFE1",
"H+	c #E8EAEB",
"I+	c #D4D8DA",
"J+	c #BABEC1",
"K+	c #AAB0B5",
"L+	c #B2B5B7",
"M+	c #6F7070",
"N+	c #0E0F0F",
"O+	c #CC6966",
"P+	c #899391",
"Q+	c #B0B1B0",
"R+	c #CFCECE",
"S+	c #D2D2D2",
"T+	c #E2E3E4",
"U+	c #D6D8DA",
"V+	c #D4D6D8",
"W+	c #CED1D3",
"X+	c #C4CACE",
"Y+	c #B5BCC0",
"Z+	c #A4AAAF",
"`+	c #8B9092",
" @	c #949898",
".@	c #C8C9C6",
"+@	c #DADAD7",
"@@	c #DFDFDC",
"#@	c #E6E7E4",
"$@	c #E9ECEB",
"%@	c #E8EDEA",
"&@	c #D4DCDA",
"*@	c #A6B4B6",
"=@	c #96A5A6",
"-@	c #879799",
";@	c #94A2A4",
">@	c #A2ABAC",
",@	c #343B3B",
"'@	c #060606",
")@	c #F52120",
"!@	c #978A87",
"~@	c #999F9C",
"{@	c #D5D2D2",
"]@	c #E3E2E2",
"^@	c #E6E6E6",
"/@	c #D5D7D7",
"(@	c #DDDDDE",
"_@	c #D5D7D9",
":@	c #B8BFC0",
"<@	c #B7BDBF",
"[@	c #ABB3B8",
"}@	c #969A9B",
"|@	c #8B8E8F",
"1@	c #B5B6B6",
"2@	c #D2D2CF",
"3@	c #E7E8E4",
"4@	c #D3D7D8",
"5@	c #B6C0C4",
"6@	c #95A4A8",
"7@	c #809297",
"8@	c #929FA2",
"9@	c #95A4A5",
"0@	c #8F9D9E",
"a@	c #829293",
"b@	c #404F4F",
"c@	c #010101",
"d@	c #CF5554",
"e@	c #9A9996",
"f@	c #9AA09F",
"g@	c #D9D6D5",
"h@	c #DCE1DD",
"i@	c #DEE5DF",
"j@	c #D1D9D2",
"k@	c #B6BDBF",
"l@	c #AFB8BA",
"m@	c #B4BABC",
"n@	c #A1A8AA",
"o@	c #9BA0A1",
"p@	c #848688",
"q@	c #858787",
"r@	c #C3C5C2",
"s@	c #CFCFCD",
"t@	c #A3ABAE",
"u@	c #89989F",
"v@	c #91A3A5",
"w@	c #8F9EA3",
"x@	c #867A7D",
"y@	c #9E6A69",
"z@	c #B55C5A",
"A@	c #BF1E1B",
"B@	c #6D0403",
"C@	c #710403",
"D@	c #000000",
"E@	c #DC2929",
"F@	c #A79291",
"G@	c #7B7F7D",
"H@	c #C2C3C3",
"I@	c #D8DBD3",
"J@	c #CBCCC5",
"K@	c #9EA199",
"L@	c #9CA29F",
"M@	c #95A09D",
"N@	c #7D8C8C",
"O@	c #738081",
"P@	c #757F7F",
"Q@	c #7F8382",
"R@	c #737876",
"S@	c #848986",
"T@	c #899393",
"U@	c #77898A",
"V@	c #6D8484",
"W@	c #7A807E",
"X@	c #9F5D5E",
"Y@	c #AC2B2A",
"Z@	c #890807",
"`@	c #3D0202",
" #	c #210101",
".#	c #030000",
"+#	c #010000",
"@#	c #B15756",
"##	c #848B89",
"$#	c #666B68",
"%#	c #8A8E89",
"&#	c #707672",
"*#	c #7E837C",
"=#	c #737A75",
"-#	c #7D8582",
";#	c #7B8685",
">#	c #86908E",
",#	c #718181",
"'#	c #586A6C",
")#	c #596363",
"!#	c #5E6B69",
"~#	c #6B7D7C",
"{#	c #655E5E",
"]#	c #944646",
"^#	c #870707",
"/#	c #550505",
"(#	c #060101",
"_#	c #CE2727",
":#	c #848785",
"<#	c #7F7F7D",
"[#	c #878280",
"}#	c #7D7473",
"|#	c #9B7470",
"1#	c #B4817F",
"2#	c #A17E7E",
"3#	c #816866",
"4#	c #626A68",
"5#	c #707F7D",
"6#	c #56686B",
"7#	c #375159",
"8#	c #485F62",
"9#	c #6D4C4B",
"0#	c #831F1F",
"a#	c #470101",
"b#	c #050000",
"c#	c #020101",
"d#	c #020202",
"e#	c #050505",
"f#	c #DA2222",
"g#	c #BD2121",
"h#	c #A20909",
"i#	c #7F0606",
"j#	c #760808",
"k#	c #751717",
"l#	c #860000",
"m#	c #9A0000",
"n#	c #8C0405",
"o#	c #691F30",
"p#	c #553B46",
"q#	c #432727",
"r#	c #72293A",
"s#	c #780908",
"t#	c #260101",
"u#	c #030303",
"v#	c #090909",
"w#	c #101010",
"x#	c #0D0D0D",
"y#	c #8B0505",
"z#	c #320303",
"A#	c #120404",
"B#	c #050101",
"C#	c #040000",
"D#	c #070000",
"E#	c #1A0606",
"F#	c #371011",
"G#	c #481010",
"H#	c #3D0909",
"I#	c #190101",
"J#	c #080808",
"                                                                ",
"                                                                ",
"                                                                ",
"                                                                ",
"                                                                ",
"            . + @ #               $ % & * = -                   ",
"        ; > , ' ) ! ~ {       ] ^ / ( _ : < [ }                 ",
"    | 1 2 3 4 5 6 7 8 9 0 a b c d e f g h i j k l               ",
"  m n o p q r s t u v w x y z A B C C D E F G H I J             ",
"K L M N O P Q R S T U V W X Y Z `  ...+.@.#.$.%.&.*.            ",
"=.-.;.>.,.'.).!.~.{.].^./.(._.:.<.[.}.|.1.2.3.4.5.6.7.          ",
"  8.9.0.a.b.c.d.e.f.g.h.i.j.k.l.m.n.o.p.q.r.s.t.u.v.w.          ",
"  x.y.z.A.B.C.D.E.F.G.H.I.J.K.L.M.N.O.P.Q.R.S.T.U.V.W.X.        ",
"  Y.Z.`. +.+++@+#+$+%+&+*+=+-+;+M.>+,+'+)+!+~+{+]+^+/+(+_+      ",
"    :+<+[+}+|+1+2+3+4+5+6+7+8+9+0+a+b+c+d+e+f+g+h+i+j+k+l+      ",
"    m+n+o+p+q+r+s+t+u+v+w+x+y+z+A+B+C+D+E+F+G+H+I+J+K+L+M+N+    ",
"      O+P+Q+R+S+T+U+V+W+X+Y+Z+`+ @.@+@@@#@$@%@&@*@=@-@;@>@,@'@  ",
"      )@!@~@{@]@^@/@(@_@:@<@[@}@|@1@+@2@3@4@5@6@7@8@9@0@a@b@c@  ",
"        d@e@f@g@h@i@j@k@l@m@n@o@p@q@r@s@t@u@v@w@x@y@z@A@B@C@D@D@",
"        E@F@G@H@I@J@K@L@M@N@O@P@Q@R@S@T@U@V@W@X@Y@Z@`@ #.#+#D@D@",
"          @###$#%#&#*#=#-#;#>#,#'#)#!#~#{#]#^#/#(#+#c@c@D@D@D@D@",
"          _#:#<#[#}#|#1#2#3#4#5#6#7#8#9#0#a#b#.#c#d#e#d#D@D@D@  ",
"            f#g#h#i#j#k#l#m#n#o#p#q#r#s#t#+#D@u#v#w#x#          ",
"            y#z#A#B#C#D#D#C#c#E#F#G#H#I#D@D@d#J#                ",
"                D@D@D@D@D@D@D@D@D@D@D@D@D@D@                    ",
"                                D@D@D@D@                        ",
"                                                                ",
"                                                                ",
"                                                                ",
"                                                                ",
"                                                                ",
"                                                                "};
