/* XPM */
static char * ils_xpm[] = {
"24 24 177 2",
"  	c None",
". 	c #000000",
"+ 	c #11161D",
"@ 	c #97A8BE",
"# 	c #7D93AC",
"$ 	c #738AA3",
"% 	c #6C849C",
"& 	c #647C96",
"* 	c #5E768F",
"= 	c #576F88",
"- 	c #506982",
"; 	c #566E86",
"> 	c #495869",
", 	c #121923",
"' 	c #768BA2",
") 	c #8EA2B8",
"! 	c #768DA7",
"~ 	c #567290",
"{ 	c #4E6A88",
"] 	c #466280",
"^ 	c #3D5A78",
"/ 	c #355270",
"( 	c #314E6B",
"_ 	c #36526F",
": 	c #3C5773",
"< 	c #33404F",
"[ 	c #161D26",
"} 	c #0A0D11",
"| 	c #99ACC0",
"1 	c #8096AE",
"2 	c #5B7694",
"3 	c #536F8D",
"4 	c #4A6785",
"5 	c #425F7D",
"6 	c #3A5775",
"7 	c #324F6D",
"8 	c #3B5772",
"9 	c #2D445C",
"0 	c #0B0F11",
"a 	c #232528",
"b 	c #577391",
"c 	c #4F6B88",
"d 	c #476381",
"e 	c #3F5B79",
"f 	c #365371",
"g 	c #34506D",
"h 	c #1A2938",
"i 	c #181B1D",
"j 	c #8097B0",
"k 	c #5C7896",
"l 	c #54708E",
"m 	c #4B6886",
"n 	c #43607E",
"o 	c #3B5876",
"p 	c #33506E",
"q 	c #33506B",
"r 	c #395571",
"s 	c #090E12",
"t 	c #212428",
"u 	c #5B6979",
"v 	c #8FA3B9",
"w 	c #758DA6",
"x 	c #587492",
"y 	c #506C8A",
"z 	c #486482",
"A 	c #405C7A",
"B 	c #385472",
"C 	c #324F6C",
"D 	c #3D5974",
"E 	c #293F56",
"F 	c #0E1114",
"G 	c #2D2F30",
"H 	c #424242",
"I 	c #98ABBF",
"J 	c #7F96AF",
"K 	c #5D7997",
"L 	c #55718F",
"M 	c #4D6987",
"N 	c #44617F",
"O 	c #3C5977",
"P 	c #34516F",
"Q 	c #385470",
"R 	c #2F465D",
"S 	c #0A0F13",
"T 	c #272829",
"U 	c #5B5B5B",
"V 	c #15191D",
"W 	c #4D6984",
"X 	c #2A425A",
"Y 	c #111418",
"Z 	c #3C4144",
"` 	c #404040",
" .	c #070B0F",
"..	c #879DB5",
"+.	c #67829E",
"@.	c #4F6B89",
"#.	c #324F6B",
"$.	c #374D64",
"%.	c #11171E",
"&.	c #202123",
"*.	c #181C1E",
"=.	c #65707D",
"-.	c #91A5BC",
";.	c #718BA6",
">.	c #0F1315",
",.	c #3E4044",
"'.	c #484848",
").	c #070B10",
"!.	c #8494A6",
"~.	c #8A9FB6",
"{.	c #6C85A1",
"].	c #354C63",
"^.	c #1A2530",
"/.	c #222426",
"(.	c #3E4040",
"_.	c #1D2125",
":.	c #757777",
"<.	c #BEC7D4",
"[.	c #AEBECC",
"}.	c #A7B6C6",
"|.	c #A3B2C2",
"1.	c #9EADBD",
"2.	c #9AAAB9",
"3.	c #90A0B0",
"4.	c #7B8FA1",
"5.	c #798C9F",
"6.	c #708499",
"7.	c #556679",
"8.	c #0B1015",
"9.	c #2D3031",
"0.	c #080E13",
"a.	c #000405",
"b.	c #B0BAC4",
"c.	c #2C3E51",
"d.	c #24364A",
"e.	c #2B353F",
"f.	c #32353B",
"g.	c #3D3E40",
"h.	c #1A1D20",
"i.	c #0A0C0D",
"j.	c #87939D",
"k.	c #404145",
"l.	c #5A5B5B",
"m.	c #666666",
"n.	c #6E6F6F",
"o.	c #949494",
"p.	c #9F9F9F",
"q.	c #A0A0A0",
"r.	c #B2B2B2",
"s.	c #C5C5C5",
"t.	c #818383",
"u.	c #4A4C4F",
"v.	c #434549",
"w.	c #3A3A3A",
"x.	c #05080C",
"y.	c #0C0E0F",
"z.	c #6B7B8B",
"A.	c #575757",
"B.	c #747474",
"C.	c #CBCBCB",
"D.	c #EBEBEB",
"E.	c #6E6E6E",
"F.	c #5B5D60",
"G.	c #4D4D4F",
"H.	c #1E252A",
"I.	c #818181",
"J.	c #ACACAC",
"K.	c #C7C7C7",
"L.	c #DEDEDE",
"M.	c #C9C9C9",
"N.	c #6B6D6F",
"O.	c #626365",
"P.	c #242527",
"Q.	c #637281",
"R.	c #697C8E",
"S.	c #8798A8",
"T.	c #0D1215",
"                                                ",
"                                                ",
"                                                ",
"              . . . . . . . . . . . . . .       ",
"            + @ # $ % & * = - - - - - ; > ,     ",
"          . ' ) ! ~ { ] ^ / ( ( _ _ : _ < [     ",
"          } | 1 2 3 4 5 6 7 ( ( ( ( 8 9 0 a     ",
"        . ' ) ! b c d e f ( ( ( ( g 8 h i       ",
"        . ) j k l m n o p ( ( q ( r 9 s t       ",
"      . u v w x y z A B ( ( ( ( C D E F G H     ",
"      . I J K L M N O P ( ( ( ( Q R S T U V     ",
"    . ' ) ! 2 3 W 5 6 7 ( ( ( ( : X Y Z `  .    ",
"    . ) ..+.b @.d e f #.( ( ( ( $.%.&.` *.      ",
"  . =.-.;.k l m n o p ( ( ( ( D E >.,.'.).      ",
"  . !.~.{.x y z A B ( ( ( ( ( ].^./.(._.        ",
". :.<.[.}.|.1.2.3.4.5.5.5.5.6.7.8.9.'.0.        ",
"a.b.c.d.d.d.d.d.d.d.d.d.d.d.d.e.f.g.h.          ",
"i.j.k.H l.m.n.o.p.q.r.s.s.s.t.u.v.w.x.          ",
"y.z.A.B.C.D.D.D.D.D.D.D.D.D.E.F.G.H.            ",
"y.z.A.I.J.K.K.K.L.D.D.D.D.D.M.N.O.).            ",
"P.Q.R.S.S.S.S.S.S.S.S.S.S.S.S.S.T.              ",
"  . . . . . . . . . . . . . . . .               ",
"                                                ",
"                                                "};
