/* XPM */
static char * quickcam_xpm[] = {
"16 16 22 1",
" 	c None",
".	c #282829",
"+	c #505052",
"@	c #878789",
"#	c #CECECF",
"$	c #FFFBF0",
"%	c #D0CECA",
"&	c #DDDDDD",
"*	c #F6F4EB",
"=	c #E7E4DD",
"-	c #BEBEC0",
";	c #A0A0A4",
">	c #373737",
",	c #2A2A2A",
"'	c #333333",
")	c #807E78",
"!	c #222222",
"~	c #78787B",
"{	c #EEECE6",
"]	c #908F8E",
"^	c #AFAFB2",
"/	c #B8B7B7",
"                ",
"      .+++      ",
"     @#$$$%.    ",
"    @&*$$$$=.   ",
"   +-&$$$$$$%   ",
"   ;-& >,')$$+  ",
"   ;-&!  ,)$$+  ",
"   ;-& >,')$$+  ",
"   ~;#&&*$$$=.  ",
"   .;;#&&{{{]   ",
"    +;;^-&&^    ",
"   .==;;;;/$]   ",
"  .=$$$$$$$$$]  ",
" .=$$$$$$$$$$$] ",
".==$=$=$%$=$==$]",
"++++++++++++++++"};
