/* XPM */
char * sample_xpm[] = {
"16 16 59 1",
" 	c None",
".	c #000000",
"+	c #FFFDAD",
"@	c #7473D5",
"#	c #DCDAB7",
"$	c #CFCDBB",
"%	c #1312F2",
"&	c #4B4AE1",
"*	c #DBD9B7",
"=	c #C5C3BE",
"-	c #0000F8",
";	c #2E2DEA",
">	c #5150E0",
",	c #AFADC4",
"'	c #EFEDB1",
")	c #4746E3",
"!	c #EEECB2",
"~	c #F0EEB1",
"{	c #9B99CA",
"]	c #2928EB",
"^	c #C2C0BE",
"/	c #1716F1",
"(	c #7F7ED2",
"_	c #E8E6B3",
":	c #6463DA",
"<	c #FCFAAD",
"[	c #AEACC4",
"}	c #0605F6",
"|	c #9795CB",
"1	c #918FCD",
"2	c #6362DA",
"3	c #2B2AEB",
"4	c #4847E2",
"5	c #0100F7",
"6	c #3A39E6",
"7	c #3D3CE6",
"8	c #4443E4",
"9	c #2221EE",
"0	c #7574D5",
"a	c #EBE9B2",
"b	c #B8B6C1",
"c	c #3332E9",
"d	c #F1EFB1",
"e	c #100FF3",
"f	c #0C0BF4",
"g	c #0807F5",
"h	c #E9E7B3",
"i	c #B9B7C1",
"j	c #2322ED",
"k	c #A8A6C6",
"l	c #2625EC",
"m	c #4A49E2",
"n	c #B5B3C2",
"o	c #9E9CC9",
"p	c #5A59DD",
"q	c #CCCABC",
"r	c #EAE8B3",
"s	c #D1CFBA",
"t	c #BEBCC0",
"                ",
" ...............",
" .++++@#+++++++.",
" .+++$%&+++++++.",
" .+*+=-;+*+++++.",
" .+>+,-;')!~{++.",
" .+]^/-;(-@_:<+.",
" .[}|/-;(-@1-2+.",
" .34}567(-89390.",
" .ab-cd]ef;g{h+.",
" .+i-6+j-jkl+++.",
" .+amn+op8+q+++.",
" .++0r+s(t+++++.",
" ...............",
"                ",
"                "};
