/* XPM */
static char * settings_xpm[] = {
"32 32 238 2",
"  	c None",
". 	c #000000",
"+ 	c #FFFFFF",
"@ 	c #B2A9AA",
"# 	c #BEB5B8",
"$ 	c #5D5A5B",
"% 	c #797677",
"& 	c #999697",
"* 	c #969394",
"= 	c #888586",
"- 	c #B8B0B3",
"; 	c #B2AAAE",
"> 	c #918D8F",
", 	c #A8A4A6",
"' 	c #9E9A9C",
") 	c #B6B2B4",
"! 	c #ADA9AB",
"~ 	c #787677",
"{ 	c #848283",
"] 	c #828081",
"^ 	c #B3ACB0",
"/ 	c #AFAAAD",
"( 	c #898688",
"_ 	c #868385",
": 	c #A7A4A6",
"< 	c #A3A0A2",
"[ 	c #A29FA1",
"} 	c #9F9C9E",
"| 	c #B4ADB2",
"1 	c #8C888B",
"2 	c #9B979A",
"3 	c #999598",
"4 	c #969295",
"5 	c #959094",
"6 	c #B5B0B4",
"7 	c #B2ADB1",
"8 	c #AEA8AD",
"9 	c #DCD3DC",
"0 	c #D8D0D8",
"a 	c #C7C0C7",
"b 	c #C6BFC6",
"c 	c #C4BDC4",
"d 	c #C3BCC3",
"e 	c #C2BBC2",
"f 	c #C0B9C0",
"g 	c #BEB7BE",
"h 	c #BCB5BC",
"i 	c #BAB3BA",
"j 	c #B9B2B9",
"k 	c #B8B1B8",
"l 	c #D3CCD3",
"m 	c #D2CBD2",
"n 	c #D1CAD1",
"o 	c #D0C9D0",
"p 	c #CFC8CF",
"q 	c #CEC7CE",
"r 	c #CCC5CC",
"s 	c #CAC3CA",
"t 	c #C8C1C8",
"u 	c #BEB8BE",
"v 	c #BDB7BD",
"w 	c #BCB6BC",
"x 	c #BBB5BB",
"y 	c #BAB4BA",
"z 	c #B8B2B8",
"A 	c #B7B1B7",
"B 	c #B6B0B6",
"C 	c #B5AFB5",
"D 	c #B4AEB4",
"E 	c #D0CAD0",
"F 	c #C9C3C9",
"G 	c #C6C0C6",
"H 	c #C5BFC5",
"I 	c #C4BEC4",
"J 	c #C3BDC3",
"K 	c #C2BCC2",
"L 	c #C0BAC0",
"M 	c #AAA5AA",
"N 	c #C2BDC2",
"O 	c #999599",
"P 	c #8E8B8E",
"Q 	c #A2A1A2",
"R 	c #9D9C9D",
"S 	c #9B9A9B",
"T 	c #8F8E8F",
"U 	c #C4BDC5",
"V 	c #C3BDC4",
"W 	c #BBB5BC",
"X 	c #B9B3BA",
"Y 	c #B7B1B8",
"Z 	c #C9C3CA",
"` 	c #B8B2BA",
" .	c #BAB4BC",
"..	c #B9B3BB",
"+.	c #B9B3BC",
"@.	c #B7B2BA",
"#.	c #C0BBC3",
"$.	c #B9B4BC",
"%.	c #BAB5BE",
"&.	c #B9B4BD",
"*.	c #B8B3BC",
"=.	c #707071",
"-.	c #988159",
";.	c #8B7146",
">.	c #8C7247",
",.	c #8C7348",
"'.	c #8C7249",
").	c #8D744A",
"!.	c #91774D",
"~.	c #8C734A",
"{.	c #90774D",
"].	c #8C734B",
"^.	c #8C744C",
"/.	c #89714A",
"(.	c #937950",
"_.	c #846D48",
":.	c #927950",
"<.	c #8D754E",
"[.	c #927951",
"}.	c #8C754F",
"|.	c #947C54",
"1.	c #8D7650",
"2.	c #917953",
"3.	c #8E7751",
"4.	c #927A54",
"5.	c #917A54",
"6.	c #978059",
"7.	c #A28E6E",
"8.	c #A89E8E",
"9.	c #6D532E",
"0.	c #6B522E",
"a.	c #705732",
"b.	c #6F5632",
"c.	c #765D38",
"d.	c #735B37",
"e.	c #79603B",
"f.	c #785F3B",
"g.	c #7D643F",
"h.	c #665234",
"i.	c #846B44",
"j.	c #735C3B",
"k.	c #846B45",
"l.	c #7F6743",
"m.	c #8D734B",
"n.	c #8A714A",
"o.	c #826A46",
"p.	c #89704A",
"q.	c #8F764F",
"r.	c #947B54",
"s.	c #8E7857",
"t.	c #8F7958",
"u.	c #8D7858",
"v.	c #5F4521",
"w.	c #6C522E",
"x.	c #6A512E",
"y.	c #6F5634",
"z.	c #654E2F",
"A.	c #725936",
"B.	c #6D5534",
"C.	c #705838",
"D.	c #6F5838",
"E.	c #6E583B",
"F.	c #675640",
"G.	c #988770",
"H.	c #9F8F79",
"I.	c #867967",
"J.	c #A49F98",
"K.	c #4A351C",
"L.	c #6F5739",
"M.	c #6E583C",
"N.	c #715B3F",
"O.	c #705B41",
"P.	c #766045",
"Q.	c #7F6A51",
"R.	c #97846C",
"S.	c #93816A",
"T.	c #9B8A75",
"U.	c #9B8A76",
"V.	c #9A8A76",
"W.	c #695640",
"X.	c #55483A",
"Y.	c #86725C",
"Z.	c #8A765F",
"`.	c #695C4D",
" +	c #857768",
".+	c #7E7D7C",
"++	c #777675",
"@+	c #8E8D8C",
"#+	c #898887",
"$+	c #645547",
"%+	c #938170",
"&+	c #998777",
"*+	c #A6998F",
"=+	c #A59990",
"-+	c #79726E",
";+	c #A99D97",
">+	c #AAA09B",
",+	c #838180",
"'+	c #ACA29E",
")+	c #777473",
"!+	c #ABA09D",
"~+	c #A09693",
"{+	c #ACA29F",
"]+	c #626060",
"^+	c #7E7C7C",
"/+	c #7D7B7B",
"(+	c #7C7A7A",
"_+	c #7B7979",
":+	c #7A7878",
"<+	c #777575",
"[+	c #727070",
"}+	c #6F6D6D",
"|+	c #6D6B6B",
"1+	c #6C6A6A",
"2+	c #696767",
"3+	c #676565",
"4+	c #999797",
"5+	c #949292",
"6+	c #929090",
"7+	c #918F8F",
"8+	c #8F8D8D",
"9+	c #8C8A8A",
"0+	c #8B8989",
"a+	c #8A8888",
"b+	c #898787",
"c+	c #888686",
"d+	c #878585",
"e+	c #868484",
"f+	c #858383",
"g+	c #848282",
"h+	c #838181",
"i+	c #828080",
"j+	c #747373",
"k+	c #989797",
"l+	c #979696",
"m+	c #8F8E8E",
"n+	c #8B8A8A",
"o+	c #A1A1A1",
"                                                                ",
"                                                                ",
"                                                                ",
"                                                                ",
"                                  *     n p                     ",
"                          9 0 N 4+k+0+u d d m                   ",
"                  ! , / 6 7 [ 7+5+a+= j x b                     ",
"          X.  ) } 8+e+g+h+,+i+g+.+4 D g F                       ",
"         +h.I.S 9+e+h+h+h+h+f+% 5 k y F                         ",
"        u.7.J.T h+g+g+g+g+f+_+_ A i H                           ",
"        H.8.o+b+h+g+g+f+i+_+( 8 v a l                           ",
"      < R Q l+m+f+g+g+] ~ O B z I                               ",
"      & n+h+0+5+7+c+{ =.-+C @.Y J m                             ",
"    : #+g+g+g+0+6+0+)+`.y.S.'+Y w c p                           ",
"  @+d+g+g+g+g+g+^+j+F.v.c.!.~.V.$.` x s                         ",
"' }+++g+f+f+f+/+|+P ~+O.w.p.|.'.G.| +.W G n                     ",
"  M <+[+(+h+:+1+_ D #.- M.b.i.r.,.t.>+&. .K E                   ",
"      > 2+]+3+2 V U Z     %+L.f.2.:.^.T.^  .u t o               ",
"        3 $ 1                 E.a.1.-.;.t.!+*.X e p             ",
"                                Q.0.k.6.).n.;+&.+.f q           ",
"                                    Z.e.3.[.<.R.{+%.w I p       ",
"                                      N.9.o.4.>./.*+&.Y L p     ",
"                                        P.C.g.5.(.].=+&...f r   ",
"                                            D.d._.q.m.U.@ X h a ",
"                                              Y.B.A.}.{.s.; ` i ",
"                                                &+z.x.l.j.# V u ",
"                                                    W.K.$+  l p ",
"                                                                ",
"                                                                ",
"                                                                ",
"                                                                ",
"                                                                "};
