/* XPM */
static char * sound_xpm[] = {
"16 16 35 1",
" 	c None",
".	c #003250",
"+	c #004A73",
"@	c #006296",
"#	c #007AB9",
"$	c #0092DC",
"%	c #00AAFF",
"&	c #25AAFF",
"*	c #48B8FF",
"=	c #FFFFFF",
"-	c #737300",
";	c #6BC6FF",
">	c #8ED4FF",
",	c #DCDC00",
"'	c #868686",
")	c #A0A0A4",
"!	c #FFFF00",
"~	c #FFFFB1",
"{	c #B1E2FF",
"]	c #B9B900",
"^	c #FFFF25",
"/	c #FFFF6B",
"(	c #DADADA",
"_	c #969600",
":	c #FFFFD4",
"<	c #6E6E6E",
"[	c #F2F2F2",
"}	c #D4F0FF",
"|	c #FFFF8E",
"1	c #E6E6E6",
"2	c #505000",
"3	c #B6B6B6",
"4	c #CECECE",
"5	c #7A7A7A",
"6	c #929292",
" ..++@@#$$%.    ",
" .++@@#$$%%.&   ",
" ++@@#$$%%*.&=  ",
" +@@#-$%%**;;>  ",
" @@#,')%** ;>>  ",
" @#!,)~'* ;>>{  ",
" ]^/-~(';;>>{{  ",
"_~::-<[';   {}  ",
"_|/~-<1'>>{{}}  ",
" 2-^-34'>   }=  ",
" %*-563'{{}}=[  ",
" **;-5<<{ }===  ",
" *;;>2{{}} [==  ",
" ;;>>{{}}=====  ",
" ;>>{{}}=[====  ",
"                "};
