/* XPM */
static char * speaker_xpm[] = {
"24 24 211 2",
"  	c None",
". 	c #000000",
"+ 	c #FCFCFB",
"@ 	c #EEEAE5",
"# 	c #F2F0ED",
"$ 	c #D2C9BD",
"% 	c #B5A590",
"& 	c #100A03",
"* 	c #52493C",
"= 	c #888178",
"- 	c #676459",
"; 	c #544E43",
"> 	c #1B1B1B",
", 	c #D1C7BA",
"' 	c #E2DBD3",
") 	c #7C6A53",
"! 	c #7B6952",
"~ 	c #685945",
"{ 	c #272117",
"] 	c #7E7768",
"^ 	c #B7B0A6",
"/ 	c #AEABA7",
"( 	c #8B867D",
"_ 	c #7A7365",
": 	c #655E51",
"< 	c #080808",
"[ 	c #554838",
"} 	c #0C0C0C",
"| 	c #020202",
"1 	c #1B1712",
"2 	c #877F71",
"3 	c #C8C3BC",
"4 	c #BFBCB8",
"5 	c #3E3629",
"6 	c #14120B",
"7 	c #413A2C",
"8 	c #221B11",
"9 	c #F8C1C6",
"0 	c #CB6C72",
"a 	c #B5B0AC",
"b 	c #B9B5AD",
"c 	c #5A5549",
"d 	c #1B180F",
"e 	c #131313",
"f 	c #BA4C56",
"g 	c #453A2D",
"h 	c #73624D",
"i 	c #040404",
"j 	c #F5949D",
"k 	c #EB8D94",
"l 	c #151515",
"m 	c #696663",
"n 	c #6D695E",
"o 	c #282318",
"p 	c #2E2E2E",
"q 	c #E4ADB2",
"r 	c #C35E67",
"s 	c #040403",
"t 	c #4F4535",
"u 	c #161106",
"v 	c #463F34",
"w 	c #3D3B39",
"x 	c #070707",
"y 	c #E26772",
"z 	c #B6525B",
"A 	c #484036",
"B 	c #363636",
"C 	c #E9B1B6",
"D 	c #D6787F",
"E 	c #802F36",
"F 	c #1E1B14",
"G 	c #4E4434",
"H 	c #483D2C",
"I 	c #3F3D38",
"J 	c #C5C1BD",
"K 	c #CC4C58",
"L 	c #C64B57",
"M 	c #404040",
"N 	c #EBB1B6",
"O 	c #D8737A",
"P 	c #983A42",
"Q 	c #433B2E",
"R 	c #564C3A",
"S 	c #5C503A",
"T 	c #3A352E",
"U 	c #CFC7BC",
"V 	c #7A736A",
"W 	c #C34852",
"X 	c #CE515B",
"Y 	c #DE858D",
"Z 	c #D4646E",
"` 	c #B0424B",
" .	c #3F372B",
"..	c #615542",
"+.	c #695A46",
"@.	c #6B6050",
"#.	c #4D463E",
"$.	c #C1B4A3",
"%.	c #B2A491",
"&.	c #010101",
"*.	c #C94B58",
"=.	c #D04C57",
"-.	c #CD4D58",
";.	c #C74A55",
">.	c #383026",
",.	c #6C5E4A",
"'.	c #7F6E57",
").	c #7C6B53",
"!.	c #7A6E5F",
"~.	c #4D473D",
"{.	c #7C715E",
"].	c #242424",
"^.	c #E5979E",
"/.	c #D36470",
"(.	c #C54955",
"_.	c #C14852",
":.	c #2E2821",
"<.	c #71624D",
"[.	c #86745B",
"}.	c #988467",
"|.	c #8B775C",
"1.	c #837665",
"2.	c #2D271F",
"3.	c #ECB5BA",
"4.	c #DE858C",
"5.	c #CD5560",
"6.	c #C34752",
"7.	c #BD4652",
"8.	c #3F3529",
"9.	c #88755B",
"0.	c #9F8A6B",
"a.	c #AC9574",
"b.	c #8B785B",
"c.	c #827564",
"d.	c #3A3227",
"e.	c #303030",
"f.	c #EAB5B9",
"g.	c #DA7981",
"h.	c #9F3C45",
"i.	c #CD4D59",
"j.	c #963841",
"k.	c #927E63",
"l.	c #AD9575",
"m.	c #B89F7D",
"n.	c #A59378",
"o.	c #6D5D4C",
"p.	c #E0D9D1",
"q.	c #E6AFB4",
"r.	c #D77880",
"s.	c #9B3A43",
"t.	c #5E574E",
"u.	c #BB4750",
"v.	c #D04D59",
"w.	c #5D574D",
"x.	c #C2B09B",
"y.	c #C8B192",
"z.	c #A69176",
"A.	c #5F5443",
"B.	c #DFD8D0",
"C.	c #C55960",
"D.	c #973942",
"E.	c #43372B",
"F.	c #85755F",
"G.	c #6E6355",
"H.	c #D24F5B",
"I.	c #B4444D",
"J.	c #C0B8AD",
"K.	c #D0C3B3",
"L.	c #AE9B86",
"M.	c #3B3121",
"N.	c #41382B",
"O.	c #2F281B",
"P.	c #7D6C54",
"Q.	c #A18D71",
"R.	c #B6454D",
"S.	c #CF4E59",
"T.	c #B1A697",
"U.	c #B6A38E",
"V.	c #91826D",
"W.	c #20190D",
"X.	c #75644E",
"Y.	c #675845",
"Z.	c #5C4E3D",
"`.	c #504435",
" +	c #262019",
".+	c #251E14",
"++	c #857158",
"@+	c #665B4B",
"#+	c #4C4233",
"$+	c #9D8668",
"%+	c #A18F77",
"&+	c #443B2E",
"*+	c #7A6851",
"=+	c #70604B",
"-+	c #605240",
";+	c #130C03",
">+	c #60513F",
",+	c #98876C",
"'+	c #9D9081",
")+	c #A09587",
"!+	c #A0927F",
"~+	c #6E6350",
"{+	c #BDB09E",
"]+	c #B9AA96",
"^+	c #C4B7A7",
"/+	c #6A5B47",
"(+	c #3C3222",
"_+	c #8D795C",
":+	c #8B785A",
"<+	c #564836",
"[+	c #020000",
"                                                ",
"                                                ",
"  . . . . . . . . . . .       . . .             ",
"  . + @ @ # $ $ $ $ % .   & * = - ; >           ",
"  . @ , , ' ) ) ) ! ~ . { ] ^ / ( _ : <         ",
"  . @ , , ' ) ) [ } | 1 2 3 4 5 6 . 7 8 .       ",
"  . @ , , ' ) ! < 9 0 . a b c d e f . g .       ",
"  . @ , , ' ) h i j k l m n o p q r s t u       ",
"  . @ , , ' ) v w x y z . A B C D E F G H .     ",
"  . @ , , ' ) I J . K L . M N O P . Q R S .     ",
"  . @ , , ' ) T U V . W X Y Z ` .  ...+.@..     ",
"  . @ , , ' ) #.$.%.&.*.=.-.;.. >.,.'.).!..     ",
"  . @ , , ' ) ~.{.].^./.(._.. :.<.[.}.|.1..     ",
"  . @ , , ' ) 2.B 3.4.5.6.7.. 8.9.0.a.b.c..     ",
"  . @ , , ' d.e.f.g.h.. . i.j.. k.l.m.n.o..     ",
"  . @ , , p.| q.r.s.. t.. u.v.. w.x.y.z.A..     ",
"  . @ , , B.&.C.D.. E.F.G.. H.I.. J.K.L.M.      ",
"  . @ , , B.N.. . . O.P.Q.. R.S.. T.U.V.W.      ",
"  . @ , , p.X.Y.Z.`. +.+++@+. . #+$+%+&+.       ",
"  . @ , , ' *+X.=+=+-+. ;+>+,+'+)+!+~+.         ",
"  . {+]+]+^++.~ Y.Y./+.   . (+_+:+<+[+          ",
"  . . . . . . . . . . .     . . . .             ",
"                                                ",
"                                                "};
