/* XPM */
static char * speaker_xpm[] = {
"16 16 129 2",
"  	c None",
". 	c #000000",
"+ 	c #A5A4A2",
"@ 	c #E4DED7",
"# 	c #EAE5E0",
"$ 	c #B5A99A",
"% 	c #AC9F8E",
"& 	c #342F28",
"* 	c #2F291F",
"= 	c #5F574C",
"- 	c #89847C",
"; 	c #676156",
"> 	c #2D2B28",
", 	c #9F9C99",
"' 	c #D1C7BA",
") 	c #DCD4CB",
"! 	c #7C6A53",
"~ 	c #6B5B47",
"{ 	c #2D2720",
"] 	c #181510",
"^ 	c #7F786D",
"/ 	c #B8B3AC",
"( 	c #565148",
"_ 	c #2F2C27",
": 	c #3C362A",
"< 	c #0B0906",
"[ 	c #7B6952",
"} 	c #2D271F",
"| 	c #EC9EA5",
"1 	c #4C2C2E",
"2 	c #9D9993",
"3 	c #666157",
"4 	c #342C29",
"5 	c #9C4E55",
"6 	c #191511",
"7 	c #1D1811",
"8 	c #6F604B",
"9 	c #38342E",
"0 	c #864B50",
"a 	c #A25057",
"b 	c #33312C",
"c 	c #3D3A34",
"d 	c #BB878B",
"e 	c #AD585F",
"f 	c #28241B",
"g 	c #3F3626",
"h 	c #675A49",
"i 	c #9A958F",
"j 	c #482A2B",
"k 	c #B1424C",
"l 	c #552F32",
"m 	c #BE8287",
"n 	c #A94F56",
"o 	c #301918",
"p 	c #524838",
"q 	c #5F5440",
"r 	c #6A5C4A",
"s 	c #9B9285",
"t 	c #6A6358",
"u 	c #85323A",
"v 	c #D0545E",
"w 	c #CE5761",
"x 	c #341919",
"y 	c #4A4133",
"z 	c #756650",
"A 	c #756856",
"B 	c #695B48",
"C 	c #595247",
"D 	c #90696C",
"E 	c #D7707A",
"F 	c #C34853",
"G 	c #40181B",
"H 	c #4B4033",
"I 	c #87755B",
"J 	c #988466",
"K 	c #857662",
"L 	c #453D32",
"M 	c #846B6C",
"N 	c #D17A82",
"O 	c #6A2F34",
"P 	c #6E292F",
"Q 	c #3E3529",
"R 	c #A08A6C",
"S 	c #AC9676",
"T 	c #81715D",
"U 	c #DBD3C9",
"V 	c #4A3234",
"W 	c #CA737A",
"X 	c #4C2023",
"Y 	c #4F473D",
"Z 	c #422625",
"` 	c #B5444E",
" .	c #3D2222",
"..	c #968A7C",
"+.	c #BFAB92",
"@.	c #70624E",
"#.	c #DAD2C9",
"$.	c #33231E",
"%.	c #371719",
"&.	c #120F0B",
"*.	c #675945",
"=.	c #605545",
"-.	c #803036",
";.	c #843239",
">.	c #79736A",
",.	c #B3A28E",
"'.	c #4F4434",
").	c #DBD3CA",
"!.	c #73624D",
"~.	c #665744",
"{.	c #504435",
"].	c #241E16",
"^.	c #61523F",
"/.	c #433B30",
"(.	c #463F37",
"_.	c #8C7B65",
":.	c #6F6351",
"<.	c #13110D",
"[.	c #898279",
"}.	c #C1B4A2",
"|.	c #CABEAF",
"1.	c #6E5E49",
"2.	c #695A46",
"3.	c #221D17",
"4.	c #1B150E",
"5.	c #473D2E",
"6.	c #928169",
"7.	c #7A6C57",
"8.	c #211C17",
"                                ",
"  . . . . . . .     . .         ",
"  + @ # $ $ % & * = - ; >       ",
"  , ' ) ! ~ { ] ^ / ( _ : <     ",
"  , ' ) [ } | 1 2 3 4 5 6 7     ",
"  , ' ) 8 9 0 a b c d e f g     ",
"  , ' ) h i j k l m n o p q .   ",
"  , ' ) r s t u v w x y z A .   ",
"  , ' ) B C D E F G H I J K .   ",
"  , ' ) L M N O P u Q R S T .   ",
"  , ' U V W X Y Z `  ...+.@.    ",
"  , ' #.$.%.&.*.=.-.;.>.,.'.    ",
"  , ' ).!.~.{.].^./.(._.:.<.    ",
"  [.}.|.1.~ 2.3.4.5.6.7.8.      ",
"  . . . . . . .     . .         ",
"                                "};
