/* XPM */
static char * text_chat_xpm[] = {
"24 24 343 2",
"  	c None",
". 	c #000000",
"+ 	c #2C2C2C",
"@ 	c #737373",
"# 	c #A6A6A6",
"$ 	c #A5A5A5",
"% 	c #A2A2A2",
"& 	c #9F9F9F",
"* 	c #9A9A9A",
"= 	c #949494",
"- 	c #8D8D8D",
"; 	c #858585",
"> 	c #787878",
", 	c #666666",
"' 	c #565758",
") 	c #46494B",
"! 	c #34383B",
"~ 	c #262B2F",
"{ 	c #1C2127",
"] 	c #121920",
"^ 	c #080D12",
"/ 	c #020305",
"( 	c #898989",
"_ 	c #A8A8A8",
": 	c #A7A7A7",
"< 	c #939393",
"[ 	c #8C8C8C",
"} 	c #848484",
"| 	c #757576",
"1 	c #656667",
"2 	c #545658",
"3 	c #414447",
"4 	c #34383C",
"5 	c #262C31",
"6 	c #1E242B",
"7 	c #161E26",
"8 	c #0F1923",
"9 	c #0A1118",
"0 	c #A4A4A4",
"a 	c #A3A3A3",
"b 	c #A1A1A1",
"c 	c #9B9B9B",
"d 	c #969696",
"e 	c #919191",
"f 	c #7E7E7F",
"g 	c #727374",
"h 	c #616365",
"i 	c #505355",
"j 	c #3E4246",
"k 	c #32373D",
"l 	c #252B33",
"m 	c #1E252D",
"n 	c #172029",
"o 	c #121C27",
"p 	c #131F2C",
"q 	c #9C9C9C",
"r 	c #979797",
"s 	c #828282",
"t 	c #797A7B",
"u 	c #6C6E70",
"v 	c #5B5F61",
"w 	c #4C5154",
"x 	c #3B4045",
"y 	c #2C3239",
"z 	c #212931",
"A 	c #1C252F",
"B 	c #19242E",
"C 	c #14202C",
"D 	c #152230",
"E 	c #9D9D9D",
"F 	c #989898",
"G 	c #959595",
"H 	c #8F8F8F",
"I 	c #848485",
"J 	c #7D7E7F",
"K 	c #707274",
"L 	c #65676A",
"M 	c #56595D",
"N 	c #454A50",
"O 	c #363D43",
"P 	c #2A323A",
"Q 	c #212B34",
"R 	c #1B2530",
"S 	c #182430",
"T 	c #162330",
"U 	c #182634",
"V 	c #828283",
"W 	c #727476",
"X 	c #6C6E71",
"Y 	c #5B5F63",
"Z 	c #4E5358",
"` 	c #3E444B",
" .	c #303840",
"..	c #252E37",
"+.	c #1F2933",
"@.	c #1B2632",
"#.	c #192634",
"$.	c #182635",
"%.	c #1A2939",
"&.	c #929292",
"*.	c #878787",
"=.	c #808081",
"-.	c #797A7C",
";.	c #737577",
">.	c #6B6D70",
",.	c #606467",
"'.	c #52575B",
").	c #44494F",
"!.	c #373F47",
"~.	c #2C343D",
"{.	c #242E39",
"].	c #1F2A36",
"^.	c #1A2735",
"/.	c #192736",
"(.	c #1C2C3D",
"_.	c #8B8B8B",
":.	c #888888",
"<.	c #838383",
"[.	c #7F7F7F",
"}.	c #7C7D7E",
"|.	c #77797A",
"1.	c #707374",
"2.	c #686A6D",
"3.	c #616468",
"4.	c #555A5E",
"5.	c #4A5056",
"6.	c #3D444B",
"7.	c #2F3842",
"8.	c #29333D",
"9.	c #212E39",
"0.	c #1D2A37",
"a.	c #1A2837",
"b.	c #1A293A",
"c.	c #1C2C3E",
"d.	c #1E3042",
"e.	c #7E7E7E",
"f.	c #797979",
"g.	c #767676",
"h.	c #727273",
"i.	c #707172",
"j.	c #6B6E70",
"k.	c #676A6C",
"l.	c #5F6367",
"m.	c #54595E",
"n.	c #4B5157",
"o.	c #3F474E",
"p.	c #353D46",
"q.	c #2C3640",
"r.	c #24303C",
"s.	c #202E3A",
"t.	c #1C2B39",
"u.	c #1B2B3B",
"v.	c #1C2D3E",
"w.	c #203346",
"x.	c #727272",
"y.	c #707070",
"z.	c #6D6D6D",
"A.	c #6B6B6C",
"B.	c #6A6B6C",
"C.	c #696B6D",
"D.	c #616467",
"E.	c #5C6064",
"F.	c #53585D",
"G.	c #4C5258",
"H.	c #414850",
"I.	c #373F48",
"J.	c #2F3943",
"K.	c #293540",
"L.	c #22303D",
"M.	c #1D2C3A",
"N.	c #1C2C3C",
"O.	c #1C2D3F",
"P.	c #203347",
"Q.	c #22364B",
"R.	c #5F5F5F",
"S.	c #606060",
"T.	c #616161",
"U.	c #646466",
"V.	c #5F6062",
"W.	c #5D5F62",
"X.	c #5A5D60",
"Y.	c #565A5F",
"Z.	c #50555A",
"`.	c #4A5057",
" +	c #39414A",
".+	c #323C46",
"++	c #28333F",
"@+	c #23303D",
"#+	c #1F2D3D",
"$+	c #1D2D3E",
"%+	c #1E3043",
"&+	c #243950",
"*+	c #525252",
"=+	c #535455",
"-+	c #525456",
";+	c #505457",
">+	c #4D5156",
",+	c #494E54",
"'+	c #42494F",
")+	c #363F48",
"!+	c #303A44",
"~+	c #293440",
"{+	c #24313F",
"]+	c #22303E",
"^+	c #1D2E40",
"/+	c #203448",
"(+	c #22374C",
"_+	c #263C54",
":+	c #434343",
"<+	c #464748",
"[+	c #434648",
"}+	c #45484B",
"|+	c #44474B",
"1+	c #41464A",
"2+	c #3F444A",
"3+	c #3D434A",
"4+	c #384048",
"5+	c #313B43",
"6+	c #2B3540",
"7+	c #27333F",
"8+	c #23303E",
"9+	c #212F3E",
"0+	c #1F2F3E",
"a+	c #1E2F40",
"b+	c #1E3144",
"c+	c #243A50",
"d+	c #263D54",
"e+	c #284058",
"f+	c #353738",
"g+	c #383A3C",
"h+	c #373B3E",
"i+	c #373B3F",
"j+	c #373C40",
"k+	c #353B42",
"l+	c #313840",
"m+	c #2E363F",
"n+	c #2C353F",
"o+	c #28333E",
"p+	c #23303F",
"q+	c #202E3D",
"r+	c #1E2E3F",
"s+	c #1F3144",
"t+	c #263D55",
"u+	c #284059",
"v+	c #2A435D",
"w+	c #2A2C30",
"x+	c #2D3033",
"y+	c #2A2F34",
"z+	c #2B3036",
"A+	c #293038",
"B+	c #EFDA8D",
"C+	c #28313B",
"D+	c #25303C",
"E+	c #EED886",
"F+	c #202D3B",
"G+	c #77765B",
"H+	c #EED681",
"I+	c #1E2F41",
"J+	c #213448",
"K+	c #22374D",
"L+	c #243A51",
"M+	c #2C4661",
"N+	c #22262A",
"O+	c #EFDA8C",
"P+	c #756F53",
"Q+	c #21282F",
"R+	c #222A32",
"S+	c #EFD887",
"T+	c #1F2A35",
"U+	c #1E2A38",
"V+	c #EED783",
"W+	c #1D2C3B",
"X+	c #1E2F3F",
"Y+	c #1F3145",
"Z+	c #213449",
"`+	c #23374D",
" @	c #253B51",
".@	c #2A435E",
"+@	c #2C4662",
"@@	c #2E4966",
"#@	c #191E22",
"$@	c #48483B",
"%@	c #787253",
"&@	c #19222C",
"*@	c #1C2935",
"=@	c #1C2A37",
"-@	c #1D2E3F",
";@	c #EED680",
">@	c #213549",
",@	c #23384D",
"'@	c #273E55",
")@	c #28415A",
"!@	c #2A445E",
"~@	c #2C4762",
"{@	c #2E4A66",
"]@	c #304D6A",
"^@	c #141B21",
"/@	c #151D24",
"(@	c #353934",
"_@	c #6D6A4F",
":@	c #1D2F41",
"<@	c #1F3245",
"[@	c #253B52",
"}@	c #273E56",
"|@	c #29415A",
"1@	c #2B445E",
"2@	c #304D6B",
"3@	c #314E6C",
"4@	c #121921",
"5@	c #414338",
"6@	c #EED682",
"7@	c #6C694E",
"8@	c #16222F",
"9@	c #172432",
"0@	c #1F3246",
"a@	c #21354A",
"b@	c #29415B",
"c@	c #2C4763",
"d@	c #2E4A67",
"e@	c #101922",
"f@	c #646249",
"g@	c #14212D",
"h@	c #162431",
"i@	c #0C131B",
"j@	c #131E29",
"k@	c #14212E",
"l@	c #182736",
"m@	c #1A2A3A",
"n@	c #22364A",
"o@	c #23394F",
"p@	c #253C53",
"q@	c #273F57",
"r@	c #29425B",
"s@	c #2B455F",
"t@	c #2D4863",
"u@	c #2F4B68",
"v@	c #030508",
"w@	c #0E161E",
"x@	c #162432",
"y@	c #24394F",
"z@	c #2B4560",
"A@	c #2D4864",
"B@	c #0F1821",
"    . . . . . . . . . . . . . . . . . . . .     ",
"  + @ # # $ $ % & * = - ; > , ' ) ! ~ { ] ^ /   ",
". ( _ : : # $ % & * < [ } | 1 2 3 4 5 6 7 8 9 . ",
". : : : # 0 a b c d e ( f g h i j k l m n o p . ",
". : # $ 0 % & q r < - s t u v w x y z A B C D . ",
". $ 0 b b E F G e H I J K L M N O P Q R S T U . ",
". & & q F r = H ( V J W X Y Z `  ...+.@.#.$.%.. ",
". d d &.e H [ *.=.-.;.>.,.'.).!.~.{.].^./.%.(.. ",
". [ [ _.:.<.[.}.|.1.2.3.4.5.6.7.8.9.0.a.b.c.d.. ",
". } <.e.f.g.h.i.j.k.l.m.n.o.p.q.r.s.t.u.v.d.w.. ",
". x.x.y.z.A.B.C.D.E.F.G.H.I.J.K.L.M.N.O.d.P.Q.. ",
". R.S.T.U.V.W.X.Y.Z.`.H. +.+++@+#+$+O.%+P.Q.&+. ",
". *+*+=+-+2 ;+>+,+'+o.)+!+~+{+]+(.^+%+/+(+&+_+. ",
". :+<+[+}+|+1+2+3+4+5+6+7+8+9+0+a+b+/+(+c+d+e+. ",
". f+g+h+i+j+k+l+m+n+o+r.p+q+r+^+s+/+(+c+t+u+v+. ",
". w+x+y+z+y A+B+C+D+E+F+G+H+I+s+J+K+L+t+u+v+M+. ",
". N+O+P+Q+R+Q S+T+U+V+W+X+I+Y+Z+`+ @t+u+.@+@@@. ",
". #@$@S+%@&@R V+*@=@H+-@;@;@>@,@ @'@)@!@~@{@]@. ",
". ^@/@(@V+_@S H+;@;@;@:@<@;@,@[@}@|@1@~@{@2@3@. ",
". 4@5@6@7@8@9@;@%.(.;@0@a@;@[@}@b@1@c@d@2@3@3@. ",
". e@;@f@g@h@$.;@c.d.;@a@;@;@;@b@;@;@;@;@3@3@3@. ",
". i@j@k@h@l@m@v.d.w.n@o@p@q@r@s@t@u@3@3@3@3@b.. ",
". v@w@x@l@m@O.d.P.Q.y@p@q@r@z@A@u@3@3@3@3@O.B@  ",
"  . . . . . . . . . . . . . . . . . . . . .     "};
