/* XPM */
static char * video_preview_xpm[] = {
"16 16 182 2",
"  	c None",
". 	c #3A3A39",
"+ 	c #5F5E5D",
"@ 	c #5A595A",
"# 	c #3F3E3E",
"$ 	c #4B4A4E",
"% 	c #535052",
"& 	c #3A3939",
"* 	c #3C3B39",
"= 	c #888684",
"- 	c #A8A4A3",
"; 	c #B0ACAC",
"> 	c #A6A19F",
", 	c #A09999",
"' 	c #958F8D",
") 	c #797472",
"! 	c #464342",
"~ 	c #555352",
"{ 	c #B0ADAC",
"] 	c #C8C5C3",
"^ 	c #C2BEBE",
"/ 	c #BAB1B1",
"( 	c #B2A9A9",
"_ 	c #ABA1A1",
": 	c #99908F",
"< 	c #8A8280",
"[ 	c #928988",
"} 	c #555250",
"| 	c #403D3C",
"1 	c #464544",
"2 	c #A9A6A5",
"3 	c #C9C5C4",
"4 	c #CCC7C6",
"5 	c #C0BAB8",
"6 	c #BAB0B0",
"7 	c #B5ABAA",
"8 	c #AAA0A0",
"9 	c #AAA19F",
"0 	c #958A88",
"a 	c #857A77",
"b 	c #6F6966",
"c 	c #464341",
"d 	c #3D3C3A",
"e 	c #807F7D",
"f 	c #C1BDBB",
"g 	c #C6C2C1",
"h 	c #BEB6B6",
"i 	c #9E9796",
"j 	c #413E3E",
"k 	c #2C2828",
"l 	c #2A2828",
"m 	c #676261",
"n 	c #A89E9D",
"o 	c #8E8483",
"p 	c #776F6A",
"q 	c #67625F",
"r 	c #32312E",
"s 	c #575553",
"t 	c #A5A3A1",
"u 	c #BAB6B4",
"v 	c #B9B5B4",
"w 	c #A9A1A0",
"x 	c #4C4948",
"y 	c #1C1C1C",
"z 	c #1B1A1A",
"A 	c #1A191A",
"B 	c #232322",
"C 	c #8D8585",
"D 	c #9B9392",
"E 	c #7A7370",
"F 	c #6F6A67",
"G 	c #4D4947",
"H 	c #3A3938",
"I 	c #969290",
"J 	c #A29E9C",
"K 	c #898383",
"L 	c #232021",
"M 	c #403F40",
"N 	c #383838",
"O 	c #1E1D1E",
"P 	c #232123",
"Q 	c #5F5A5B",
"R 	c #AEA8A7",
"S 	c #7E7A75",
"T 	c #77726F",
"U 	c #5B595D",
"V 	c #2B2929",
"W 	c #817C79",
"X 	c #8D8A85",
"Y 	c #989592",
"Z 	c #827B7C",
"` 	c #252021",
" .	c #3C3B3C",
"..	c #535254",
"+.	c #3A3637",
"@.	c #5E5859",
"#.	c #AFAAA9",
"$.	c #7F7C76",
"%.	c #7F7A76",
"&.	c #625F66",
"*.	c #383636",
"=.	c #746F6B",
"-.	c #827973",
";.	c #8D8381",
">.	c #938B89",
",.	c #3A3535",
"'.	c #1F1D1F",
").	c #333133",
"!.	c #4E4D4E",
"~.	c #3B3838",
"{.	c #AAA5A5",
"].	c #A49C9C",
"^.	c #837974",
"/.	c #908A86",
"(.	c #5A595D",
"_.	c #65605D",
":.	c #7E756F",
"<.	c #857B79",
"[.	c #9C9292",
"}.	c #857C7C",
"|.	c #353333",
"1.	c #272526",
"2.	c #424040",
"3.	c #918D8C",
"4.	c #C6C1C1",
"5.	c #9A9392",
"6.	c #89817B",
"7.	c #9E9995",
"8.	c #474649",
"9.	c #4D4A49",
"0.	c #7D7771",
"a.	c #817D77",
"b.	c #86807F",
"c.	c #9A9192",
"d.	c #B0A9A8",
"e.	c #B8B2B1",
"f.	c #C1BCBB",
"g.	c #B4AEAE",
"h.	c #A09B9A",
"i.	c #A09E9B",
"j.	c #9A9591",
"k.	c #6A6665",
"l.	c #2F2D38",
"m.	c #2E2D2C",
"n.	c #726E6A",
"o.	c #87837E",
"p.	c #86807D",
"q.	c #87837F",
"r.	c #837E7C",
"s.	c #898582",
"t.	c #837E7B",
"u.	c #86817D",
"v.	c #918D89",
"w.	c #A09C99",
"x.	c #8B8885",
"y.	c #3E3D42",
"z.	c #343230",
"A.	c #5F5B59",
"B.	c #837E7A",
"C.	c #827D79",
"D.	c #837E79",
"E.	c #817C77",
"F.	c #8A8581",
"G.	c #918C89",
"H.	c #979491",
"I.	c #817F7D",
"J.	c #3D3A3D",
"K.	c #1E1D21",
"L.	c #363432",
"M.	c #3C3A38",
"N.	c #5F5B58",
"O.	c #7E7A77",
"P.	c #888580",
"Q.	c #888482",
"R.	c #7F7C7A",
"S.	c #4E4C4B",
"T.	c #333138",
"U.	c #343231",
"V.	c #292625",
"W.	c #100F0F",
"X.	c #211F23",
"Y.	c #2A292E",
"        . + @ # $ % &           ",
"      * = - ; > , ' ) !         ",
"    ~ { ] ^ / ( _ : < [ } |     ",
"  1 2 3 4 5 6 7 8 9 0 a b c     ",
"d e f g h i j k l m n o p q r   ",
"s t u v w x y z A B C D E F G   ",
"H I J > K L M N O P Q R S T U   ",
"V W X Y Z ` M  ...+.@.#.$.%.&.  ",
"*.=.-.;.>.,.'.).!.~.{.].^./.(.  ",
"1 _.:.<.[.}.|.1.2.3.4.5.6.7.8.  ",
"  9.0.a.b.c.d.e.f.g.h.i.j.k.l.  ",
"  m.n.o.p.q.r.s.t.u.v.w.x.y.    ",
"    z.A.B.C.D.E.F.G.H.I.J.K.    ",
"      L.M.N.O.P.Q.R.S.T.        ",
"          U.V.W.X.Y.            ",
"                                "};
