/* XPM */
static char * video_preview_xpm[] = {
"24 24 391 2",
"  	c None",
". 	c #575756",
"+ 	c #514F4F",
"@ 	c #3A393A",
"# 	c #222222",
"$ 	c #000000",
"% 	c #17171C",
"& 	c #302F36",
"* 	c #3B3839",
"= 	c #444443",
"- 	c #43413F",
"; 	c #171615",
"> 	c #474645",
", 	c #918D8C",
"' 	c #ABAAAA",
") 	c #ABA9A9",
"! 	c #A5A2A2",
"~ 	c #A3A1A1",
"{ 	c #A19F9F",
"] 	c #817A79",
"^ 	c #3D3B3A",
"/ 	c #0D0C0C",
"( 	c #3F3D3B",
"_ 	c #343433",
": 	c #B1B0AD",
"< 	c #C7C3C2",
"[ 	c #BDB7B6",
"} 	c #B7B2B2",
"| 	c #AAA4A3",
"1 	c #A39C9A",
"2 	c #9F9695",
"3 	c #9D9594",
"4 	c #99928F",
"5 	c #A69F9C",
"6 	c #908C87",
"7 	c #323030",
"8 	c #302F2F",
"9 	c #2C2B2A",
"0 	c #646261",
"a 	c #C6C2C1",
"b 	c #C7C4C2",
"c 	c #C3BFBE",
"d 	c #C0BDBD",
"e 	c #BDB5B5",
"f 	c #B3ABAA",
"g 	c #ADA4A3",
"h 	c #AAA1A1",
"i 	c #A09393",
"j 	c #8F8989",
"k 	c #87807E",
"l 	c #8E8583",
"m 	c #9E9797",
"n 	c #504E4B",
"o 	c #393736",
"p 	c #3A3939",
"q 	c #62605E",
"r 	c #C1BFBE",
"s 	c #CFCACA",
"t 	c #CAC7C6",
"u 	c #C0BBBB",
"v 	c #B9AFAF",
"w 	c #BAB2B2",
"x 	c #B8AEAE",
"y 	c #B7AFAF",
"z 	c #AB9F9E",
"A 	c #9B9391",
"B 	c #8C8684",
"C 	c #887B79",
"D 	c #847A78",
"E 	c #837E7C",
"F 	c #464340",
"G 	c #434141",
"H 	c #605F5D",
"I 	c #3F3E3C",
"J 	c #B9B5B5",
"K 	c #C5C2C0",
"L 	c #CECAC8",
"M 	c #CFCAC9",
"N 	c #C5BEBE",
"O 	c #BBB4AF",
"P 	c #BEB4B4",
"Q 	c #B4A9A8",
"R 	c #B3A9A8",
"S 	c #9E9393",
"T 	c #B4ABAA",
"U 	c #ADA4A0",
"V 	c #A09492",
"W 	c #8D8281",
"X 	c #817672",
"Y 	c #746C67",
"Z 	c #67605F",
"` 	c #373533",
" .	c #585755",
"..	c #191918",
"+.	c #A09F9D",
"@.	c #C2BEBD",
"#.	c #C4C0BE",
"$.	c #CBC7C7",
"%.	c #C4BDBD",
"&.	c #BEB5B3",
"*.	c #AFA6A6",
"=.	c #666261",
"-.	c #332E2E",
";.	c #242020",
">.	c #494646",
",.	c #9D9492",
"'.	c #B3A8A6",
").	c #9B8F8E",
"!.	c #837979",
"~.	c #7A716C",
"{.	c #6F6863",
"].	c #5F5B59",
"^.	c #232321",
"/.	c #595754",
"(.	c #4D4C4B",
"_.	c #C0BDBC",
":.	c #BBB8B5",
"<.	c #C2BFBC",
"[.	c #C0BCBB",
"}.	c #B0ACAB",
"|.	c #52504E",
"1.	c #171717",
"2.	c #1E1D1D",
"3.	c #212021",
"4.	c #181818",
"5.	c #3F3E3D",
"6.	c #A19C9B",
"7.	c #A39B9B",
"8.	c #8B8582",
"9.	c #7B7470",
"0.	c #716D68",
"a.	c #696461",
"b.	c #43403E",
"c.	c #4B4844",
"d.	c #383634",
"e.	c #979594",
"f.	c #B5B2B0",
"g.	c #B7B4B2",
"h.	c #B9B5B3",
"i.	c #B4AFAF",
"j.	c #B9B0AF",
"k.	c #766F6D",
"l.	c #1B1A1A",
"m.	c #1F1F1F",
"n.	c #191919",
"o.	c #141414",
"p.	c #1E1E1E",
"q.	c #696161",
"r.	c #B7ABAA",
"s.	c #938C8B",
"t.	c #7E7673",
"u.	c #77716E",
"v.	c #6E6966",
"w.	c #595352",
"x.	c #0F0E0E",
"y.	c #A09D9C",
"z.	c #999594",
"A.	c #A7A3A2",
"B.	c #A9A5A2",
"C.	c #A9A5A4",
"D.	c #BAB4B3",
"E.	c #342F2F",
"F.	c #1A1919",
"G.	c #181718",
"H.	c #4F4E4F",
"I.	c #191819",
"J.	c #1C1A1B",
"K.	c #312B2C",
"L.	c #C6C1C1",
"M.	c #A19B99",
"N.	c #807B76",
"O.	c #7A7371",
"P.	c #736E6B",
"Q.	c #6C6967",
"R.	c #2C2C38",
"S.	c #020101",
"T.	c #8E8A89",
"U.	c #888581",
"V.	c #96938F",
"W.	c #989692",
"X.	c #B1A9A9",
"Y.	c #211B1E",
"Z.	c #252224",
"`.	c #565556",
" +	c #939294",
".+	c #3C3B3C",
"++	c #141314",
"@+	c #504F51",
"#+	c #272225",
"$+	c #1F191B",
"%+	c #A29A99",
"&+	c #807F79",
"*+	c #7C7973",
"=+	c #787471",
"-+	c #848281",
";+	c #221F37",
">+	c #010101",
",+	c #787271",
"'+	c #7F7A76",
")+	c #86837D",
"!+	c #8B8A84",
"~+	c #9A9695",
"{+	c #B3ACAC",
"]+	c #231B1D",
"^+	c #262223",
"/+	c #161516",
"(+	c #535253",
"_+	c #1A191A",
":+	c #69686A",
"<+	c #686768",
"[+	c #262222",
"}+	c #261F20",
"|+	c #D6D2D2",
"1+	c #9C9796",
"2+	c #817D78",
"3+	c #7D7972",
"4+	c #847E7B",
"5+	c #817E7E",
"6+	c #201E33",
"7+	c #797674",
"8+	c #766F6A",
"9+	c #827A73",
"0+	c #877C79",
"a+	c #928887",
"b+	c #B5ACAA",
"c+	c #413B3B",
"d+	c #272424",
"e+	c #201E20",
"f+	c #100F10",
"g+	c #4D4C4E",
"h+	c #575658",
"i+	c #272323",
"j+	c #797474",
"k+	c #D8D3D2",
"l+	c #908787",
"m+	c #857874",
"n+	c #817872",
"o+	c #908A87",
"p+	c #737170",
"q+	c #313043",
"r+	c #353534",
"s+	c #686462",
"t+	c #7E756F",
"u+	c #837973",
"v+	c #8C8383",
"w+	c #A19795",
"x+	c #948C8C",
"y+	c #2B2627",
"z+	c #282728",
"A+	c #282527",
"B+	c #262426",
"C+	c #262525",
"D+	c #514C4C",
"E+	c #D5D1D1",
"F+	c #BBB4B4",
"G+	c #8D8484",
"H+	c #837A74",
"I+	c #827A74",
"J+	c #A6A3A1",
"K+	c #5A5856",
"L+	c #4A4A51",
"M+	c #474646",
"N+	c #444241",
"O+	c #6F6865",
"P+	c #7A726B",
"Q+	c #837A73",
"R+	c #827978",
"S+	c #918988",
"T+	c #AFA4A4",
"U+	c #99908F",
"V+	c #464343",
"W+	c #393737",
"X+	c #7F7C7B",
"Y+	c #D5CFCF",
"Z+	c #D2CDCD",
"`+	c #A69F9F",
" @	c #928C89",
".@	c #88807A",
"+@	c #958F89",
"@@	c #A5A09E",
"#@	c #393735",
"$@	c #504F5E",
"%@	c #181716",
"&@	c #797472",
"*@	c #77706A",
"=@	c #7E7770",
"-@	c #83817B",
";@	c #817B7A",
">@	c #91898A",
",@	c #A99E9F",
"'@	c #C0BAB9",
")@	c #BAB4B4",
"!@	c #CBC6C6",
"~@	c #D7D3D2",
"{@	c #D4D0CF",
"]@	c #C1BBBB",
"^@	c #A59E9F",
"/@	c #A3A09F",
"(@	c #9E9E98",
"_@	c #928D86",
":@	c #A39E9A",
"<@	c #615E5D",
"[@	c #2D2A2F",
"}@	c #31302F",
"|@	c #3A3838",
"1@	c #85817D",
"2@	c #817C77",
"3@	c #807D78",
"4@	c #86827D",
"5@	c #868080",
"6@	c #8E8787",
"7@	c #918888",
"8@	c #97918D",
"9@	c #9F9A96",
"0@	c #999491",
"a@	c #938B89",
"b@	c #8B8584",
"c@	c #918E8C",
"d@	c #A09C99",
"e@	c #A39F9C",
"f@	c #A9A4A2",
"g@	c #8C8887",
"h@	c #312F2E",
"i@	c #343249",
"j@	c #272626",
"k@	c #585452",
"l@	c #8C8782",
"m@	c #898581",
"n@	c #867E7D",
"o@	c #86847D",
"p@	c #85817B",
"q@	c #797572",
"r@	c #807C7A",
"s@	c #797573",
"t@	c #787370",
"u@	c #87847D",
"v@	c #8B8882",
"w@	c #968F8D",
"x@	c #A4A19E",
"y@	c #9D9A97",
"z@	c #484644",
"A@	c #2D2D3A",
"B@	c #262524",
"C@	c #524E4A",
"D@	c #86817F",
"E@	c #8C8983",
"F@	c #837D79",
"G@	c #847F7C",
"H@	c #84827C",
"I@	c #7F7A75",
"J@	c #86817C",
"K@	c #888480",
"L@	c #898280",
"M@	c #95908C",
"N@	c #9F9E9A",
"O@	c #53504E",
"P@	c #333130",
"Q@	c #17171A",
"R@	c #302D2C",
"S@	c #363432",
"T@	c #736D6A",
"U@	c #7C7774",
"V@	c #847B79",
"W@	c #827E78",
"X@	c #8B8682",
"Y@	c #9C9694",
"Z@	c #9D9A99",
"`@	c #878381",
" #	c #363332",
".#	c #312D38",
"+#	c #0F0D1E",
"@#	c #161514",
"##	c #33312F",
"$#	c #5E5A57",
"%#	c #787573",
"&#	c #84817C",
"*#	c #8D8B87",
"=#	c #878380",
"-#	c #7E7D7B",
";#	c #666361",
">#	c #32302E",
",#	c #1C1A1D",
"'#	c #272637",
")#	c #353331",
"!#	c #2D2A29",
"~#	c #201E1E",
"{#	c #080707",
"]#	c #1E1B1E",
"^#	c #28262C",
"/#	c #2B2A2F",
"(#	c #1E1E2C",
"              . + @ # $ % & * =                 ",
"          - ; > , ' ) ! ~ { ] ^ / (             ",
"        _ ^ : < [ } | 1 2 3 4 5 6 7 8           ",
"      9 0 a b c d e f g h i j k l m n o         ",
"    p q r < s t u v w x y z A B C D E F G       ",
"  H I J K L M N O P Q R S T U V W X Y Z `  .    ",
"  ..+.@.#.$.%.&.*.=.-.-.;.>.,.'.).!.~.{.].^.    ",
"/.(._.:.<.[.y }.|.1.2.2.3.4.5.6.7.8.9.0.a.b.c.  ",
"d.e.f.g.h.i.j.k.l.m.n.n.o.p.l.q.r.s.t.u.v.w.(   ",
"x.y.z.A.B.C.D.E.F.G.H.o.I.G.J.K.L.M.N.O.P.Q.R.  ",
"S.T.U.V.W.1 X.Y.Z.`. +.+++@+#+$+$.%+&+*+=+-+;+  ",
">+,+'+)+!+~+{+]+^+/+(+_+:+<+[+}+|+1+2+3+4+5+6+  ",
"/ 7+8+9+0+a+b+c+d+e+f+g+<+h+i+j+k+l+m+n+o+p+q+  ",
"r+s+0.t+u+v+w+x+y+z+A+A+B+C+D+E+F+G+H+I+J+K+L+  ",
"M+N+O+P+Q+R+S+T+U+V+C+C+W+X+Y+Z+`+ @.@+@@@#@$@  ",
"  %@&@*@=@-@;@>@,@'@)@!@~@{@]@^@/@(@_@:@<@[@    ",
"  }@|@1@2@3@4@5@6@7@8@9@0@a@b@c@d@e@f@g@h@i@    ",
"    j@k@l@m@n@o@p@q@r@r@s@t@u@v@w@x@y@z@A@      ",
"      B@C@D@E@F@G@H@I@I@J@K@L@M@N@e.O@P@Q@      ",
"        R@S@T@U@N.V@W@p@X@Y@x@Z@`@ #.#+#        ",
"          ` @###$#%#&#*#=#-#;#>#,#'#            ",
"              P@)#!#~#{#]#^#/#(#                ",
"                                                ",
"                                                "};
