/* XPM */
static char * whiteness_xpm[] = {
"24 18 173 2",
"  	c None",
". 	c #9797C5",
"+ 	c #6C6CAE",
"@ 	c #5252A0",
"# 	c #5655A0",
"$ 	c #7574B0",
"% 	c #9898C4",
"& 	c #BEBED9",
"* 	c #DEDEEA",
"= 	c #4E4EAB",
"- 	c #2D2D97",
"; 	c #25258F",
"> 	c #383895",
", 	c #5251A1",
"' 	c #7575B5",
") 	c #9394C6",
"! 	c #B5B5DB",
"~ 	c #D6D6EE",
"{ 	c #EAEAF3",
"] 	c #5B5BB3",
"^ 	c #1A1A96",
"/ 	c #16178E",
"( 	c #292993",
"_ 	c #40409D",
": 	c #5D5CAC",
"< 	c #8282C2",
"[ 	c #A0A0D3",
"} 	c #BFBFE4",
"| 	c #D9D9F1",
"1 	c #EDEDF8",
"2 	c #F4F4F7",
"3 	c #6D6DBD",
"4 	c #121299",
"5 	c #0F0F92",
"6 	c #1C1C92",
"7 	c #33329C",
"8 	c #4D4EAB",
"9 	c #6B6ABA",
"0 	c #9191D0",
"a 	c #ADADDF",
"b 	c #C7C7EA",
"c 	c #DEDDF3",
"d 	c #EFEFFA",
"e 	c #FAF9FC",
"f 	c #F8F7F7",
"g 	c #ABABD3",
"h 	c #2121A1",
"i 	c #080895",
"j 	c #111194",
"k 	c #232399",
"l 	c #3E3EA7",
"m 	c #5A5AB8",
"n 	c #7676C6",
"o 	c #9999D7",
"p 	c #B2B2E2",
"q 	c #CACAEC",
"r 	c #E0E1F4",
"s 	c #F2F1FA",
"t 	c #FBFAFE",
"u 	c #FEFEFE",
"v 	c #F2F2F1",
"w 	c #6666BA",
"x 	c #080899",
"y 	c #0B0A96",
"z 	c #141496",
"A 	c #2A2AA0",
"B 	c #4847B1",
"C 	c #6464C1",
"D 	c #7D7CCD",
"E 	c #9B9BD9",
"F 	c #C9CAEB",
"G 	c #F3F2FA",
"H 	c #FBFBFD",
"I 	c #FFFFFF",
"J 	c #F8F8F8",
"K 	c #3030A8",
"L 	c #070798",
"M 	c #0B0B97",
"N 	c #161699",
"O 	c #2F30A6",
"P 	c #4E4DB7",
"Q 	c #6868C5",
"R 	c #7E7ECF",
"S 	c #9A9AD8",
"T 	c #AFAFE1",
"U 	c #DFDFF3",
"V 	c #F2F2FB",
"W 	c #FBFBFE",
"X 	c #FCFCFC",
"Y 	c #17179F",
"Z 	c #17179A",
"` 	c #3333A9",
" .	c #5050BA",
"..	c #6969C6",
"+.	c #AEAEE1",
"@.	c #C5C5E9",
"#.	c #DDDEF3",
"$.	c #FCFBFE",
"%.	c #FDFDFD",
"&.	c #15159E",
"*.	c #070799",
"=.	c #9A9AD9",
"-.	c #DDDEF2",
";.	c #F2F2FA",
">.	c #2929A5",
",.	c #3131A7",
"'.	c #4E4FB8",
").	c #5A5AB6",
"!.	c #060699",
"~.	c #0B0B96",
"{.	c #141497",
"].	c #2B2BA1",
"^.	c #4949B3",
"/.	c #6565C2",
"(.	c #7D7DCD",
"_.	c #B1B1E1",
":.	c #C9C9EB",
"<.	c #E0E0F4",
"[.	c #9C9CCD",
"}.	c #18189F",
"|.	c #090996",
"1.	c #24249B",
"2.	c #4040A9",
"3.	c #5D5CBA",
"4.	c #7778C7",
"5.	c #CACBEB",
"6.	c #E1E1F3",
"7.	c #F0F1FA",
"8.	c #FFFEFF",
"9.	c #F3F3F3",
"0.	c #5C5CB6",
"a.	c #0E0E98",
"b.	c #100F92",
"c.	c #1E1E94",
"d.	c #34359E",
"e.	c #5050AD",
"f.	c #6D6DBC",
"g.	c #9292D2",
"h.	c #AEAFE0",
"i.	c #C8C9EB",
"j.	c #DEDFF3",
"k.	c #F0F0F9",
"l.	c #FAF9FD",
"m.	c #F9F9F9",
"n.	c #4646AC",
"o.	c #141494",
"p.	c #18188F",
"q.	c #2B2B94",
"r.	c #43429F",
"s.	c #5E5EAE",
"t.	c #8484C4",
"u.	c #A2A2D5",
"v.	c #C0C1E6",
"w.	c #DADBF2",
"x.	c #F5F5F9",
"y.	c #5050AB",
"z.	c #1F1F92",
"A.	c #24248E",
"B.	c #393997",
"C.	c #5353A2",
"D.	c #7777B7",
"E.	c #9695C8",
"F.	c #B7B7DD",
"G.	c #D6D7EF",
"H.	c #EBEBF4",
"I.	c #6A6AB2",
"J.	c #5959A6",
"K.	c #4A4A9D",
"L.	c #5555A0",
"M.	c #7575B1",
"N.	c #9595C4",
"O.	c #BABBD8",
"P.	c #DBDAEB",
"                                                ",
"                . + @ # $ % & *                 ",
"              = - ; > , ' ) ! ~ {               ",
"            ] ^ / ( _ : < [ } | 1 2             ",
"          3 4 5 6 7 8 9 0 a b c d e f           ",
"        g h i j k l m n o p q r s t u v         ",
"        w x y z A B C D E p F r G H I J         ",
"        K L M N O P Q R S T b U V W I X         ",
"        Y L M Z `  ...R S +.@.#.V $.I %.        ",
"        &.*.M Z `  ...R =.+.@.-.;.$.I %.        ",
"        >.*.M N ,.'.Q R =.T b U ;.W I X         ",
"        ).!.~.{.].^./.(.E _.:.<.;.H I J         ",
"        [.}.|.j 1.2.3.4.S p 5.6.7.H 8.9.        ",
"          0.a.b.c.d.e.f.g.h.i.j.k.l.m.          ",
"            n.o.p.q.r.s.t.u.v.w.1 x.            ",
"              y.z.A.B.C.D.E.F.G.H.              ",
"                I.J.K.L.M.N.O.P.                ",
"                                                "};
