/* XPM */
static char * xdap_directory_xpm[] = {
"24 24 214 2",
"  	c None",
". 	c #000000",
"+ 	c #DABB7A",
"@ 	c #D6A233",
"# 	c #D2920B",
"$ 	c #FBF9F4",
"% 	c #FFFFFF",
"& 	c #AB7809",
"* 	c #BD953E",
"= 	c #E9DCC0",
"- 	c #FCFAF7",
"; 	c #F7F2E7",
"> 	c #896007",
", 	c #B48725",
"' 	c #C39F50",
") 	c #EFE5D0",
"! 	c #566E86",
"~ 	c #495869",
"{ 	c #111822",
"] 	c #F3ECDD",
"^ 	c #D9C391",
"/ 	c #C09946",
"( 	c #AC7A0D",
"_ 	c #36526F",
": 	c #33404F",
"< 	c #151C25",
"[ 	c #D7C08C",
"} 	c #F2EADA",
"| 	c #F5F0E3",
"1 	c #B68B2B",
"2 	c #2D445C",
"3 	c #232F36",
"4 	c #DDC89B",
"5 	c #BA9137",
"6 	c #B28420",
"7 	c #C19C4B",
"8 	c #293F56",
"9 	c #353C41",
"0 	c #E6D8B8",
"a 	c #F8F4EB",
"b 	c #FDFCFA",
"c 	c #ECE1C8",
"d 	c #C8A75E",
"e 	c #17222C",
"f 	c #7E8285",
"g 	c #353738",
"h 	c #A67408",
"i 	c #634505",
"j 	c #21272E",
"k 	c #4A4C4D",
"l 	c #8E9092",
"m 	c #0C1318",
"n 	c #545759",
"o 	c #65696A",
"p 	c #333334",
"q 	c #657583",
"r 	c #8DA2B9",
"s 	c #768DA7",
"t 	c #5A7593",
"u 	c #516D8B",
"v 	c #496583",
"w 	c #415D7B",
"x 	c #395573",
"y 	c #314E6B",
"z 	c #3C5773",
"A 	c #2A425A",
"B 	c #232B32",
"C 	c #46484A",
"D 	c #909295",
"E 	c #9BACBB",
"F 	c #879CB4",
"G 	c #637E9B",
"H 	c #567290",
"I 	c #4E6A88",
"J 	c #466280",
"K 	c #3D5A78",
"L 	c #355270",
"M 	c #35526E",
"N 	c #344B62",
"O 	c #19242D",
"P 	c #64686B",
"Q 	c #6D6F70",
"R 	c #30475D",
"S 	c #65707D",
"T 	c #91A5BC",
"U 	c #718BA6",
"V 	c #5C7896",
"W 	c #54708E",
"X 	c #4B6886",
"Y 	c #43607E",
"Z 	c #3B5876",
"` 	c #33506E",
" .	c #3D5974",
"..	c #262E33",
"+.	c #575859",
"@.	c #8B8F95",
"#.	c #090D11",
"$.	c #7E8E9F",
"%.	c #8A9FB6",
"&.	c #6C85A1",
"*.	c #587492",
"=.	c #506C8A",
"-.	c #486482",
";.	c #405C7A",
">.	c #385472",
",.	c #354C63",
"'.	c #1A2530",
").	c #484C4E",
"!.	c #737576",
"~.	c #435B73",
"{.	c #757777",
"].	c #BDC6D3",
"^.	c #AEBECC",
"/.	c #A7B6C6",
"(.	c #A3B2C2",
"_.	c #9EADBD",
":.	c #9AAAB9",
"<.	c #90A0B0",
"[.	c #7B8FA1",
"}.	c #798C9F",
"|.	c #708499",
"1.	c #556679",
"2.	c #32353B",
"3.	c #5B5E61",
"4.	c #8E9398",
"5.	c #0A0E11",
"6.	c #020709",
"7.	c #B0BAC4",
"8.	c #2C3E51",
"9.	c #24364A",
"0.	c #2B353F",
"a.	c #5E6268",
"b.	c #77787A",
"c.	c #46607A",
"d.	c #0D0F11",
"e.	c #87939D",
"f.	c #404145",
"g.	c #5F6060",
"h.	c #747474",
"i.	c #969696",
"j.	c #B1B1B1",
"k.	c #AFAFB0",
"l.	c #C5C5C6",
"m.	c #CECECF",
"n.	c #B4BBC1",
"o.	c #BCC2C9",
"p.	c #BDC4CA",
"q.	c #C4CBD2",
"r.	c #CBD2D9",
"s.	c #D6DADE",
"t.	c #90969B",
"u.	c #858A8F",
"v.	c #141B21",
"w.	c #0C0E0F",
"x.	c #6B7B8B",
"y.	c #575757",
"z.	c #7D7E80",
"A.	c #E2E4E6",
"B.	c #E1E1E1",
"C.	c #DFDFE0",
"D.	c #F2F2F2",
"E.	c #FDFDFE",
"F.	c #F1F3F5",
"G.	c #A7A8AA",
"H.	c #B2B5B9",
"I.	c #696D71",
"J.	c #000102",
"K.	c #242527",
"L.	c #637281",
"M.	c #697C8E",
"N.	c #546B83",
"O.	c #455D78",
"P.	c #D6DCE1",
"Q.	c #E7EAED",
"R.	c #EDEFF1",
"S.	c #EDEFF2",
"T.	c #E5E6E7",
"U.	c #DEDEDF",
"V.	c #E1E1E2",
"W.	c #E1E2E3",
"X.	c #727A83",
"Y.	c #8B8F94",
"Z.	c #151B21",
"`.	c #04060A",
" +	c #384A5D",
".+	c #4D6278",
"++	c #54687F",
"@+	c #536A82",
"#+	c #576F86",
"$+	c #8797A7",
"%+	c #D7DDE1",
"&+	c #E2E6E9",
"*+	c #E9ECEE",
"=+	c #F8F9FA",
"-+	c #81858A",
";+	c #A5A7A8",
">+	c #9CA2A8",
",+	c #010203",
"'+	c #3B4B5E",
")+	c #445669",
"!+	c #54677D",
"~+	c #556B80",
"{+	c #566C83",
"]+	c #ACB8C3",
"^+	c #DCE1E5",
"/+	c #E8EBED",
"(+	c #9FA3A6",
"_+	c #151D24",
":+	c #303E4D",
"<+	c #3D4E60",
"[+	c #4F5F73",
"}+	c #53657B",
"|+	c #4C637C",
"1+	c #010305",
"  . . . . . . . . . . . . . . . . .             ",
". + @ @ @ @ @ @ @ @ @ @ @ @ @ @ @ # .           ",
". @ $ % % $ & % % & & * = - ; = & > . . .       ",
". @ & % % & & % % & & ; % , ' ) & > . ! ~ {     ",
". @ & % % & & % % & & ] % ^ / ( & > . _ : <     ",
". @ & % % & & % % & & , [ } % | 1 > . 2 3       ",
". @ & % % & & % % & & 4 5 6 % % 7 > . 8 9 .     ",
". @ $ % % $ & % % % % 0 a b c d & > . e f g     ",
". h > > > > > > > > > > > > > > > i . j k l     ",
"  . . . . . . . . . . . . . . . . . m n o p     ",
"    . q r s t u v w x y y y y y z A B C D .     ",
"    . E F G H I J K L y y y y M N O P Q R .     ",
"  . S T U V W X Y Z ` y y y y  .8 ..+.@.#..     ",
"  . $.%.&.*.=.-.;.>.y y y y y ,.'.).!.~..       ",
". {.].^./.(._.:.<.[.}.}.}.}.|.1.2.3.4.5..       ",
"6.7.8.9.9.9.9.9.9.9.9.9.9.9.9.0.a.b.c..         ",
"d.e.f.g.h.i.j.k.l.m.n.o.p.q.r.s.t.u.v..         ",
"w.x.y.z.A.A.B.C.C.D.E.F.F.F.G.H.I.c.J.          ",
"K.L.M.N.O.P.Q.R.S.T.U.V.V.C.W.X.Y.Z..           ",
"  . `. +.+++@+#+$+%+&+*+=+=+-+;+>+,+            ",
"      . . . . '+)+!+~+{+]+^+/+(+_+.             ",
"              . . . . :+<+[+}+|+1+              ",
"                      . . . . .                 ",
"                                                "};
